<?xml version="1.0" encoding="UTF-8"?>
<svg width="700pt" height="500pt" version="1.1" viewBox="0 0 700 500" xmlns="http://www.w3.org/2000/svg" xmlns:xlink="http://www.w3.org/1999/xlink">
  <g>
  <path d="m407.68 89.602c0 30.309-24.57 54.879-54.879 54.879-30.309 0-54.879-24.57-54.879-54.879 0-30.312 24.57-54.883 54.879-54.883 30.309 0 54.879 24.57 54.879 54.883"/>
  <path d="m407.68 281.68c0 30.309-24.57 54.879-54.879 54.879-30.309 0-54.879-24.57-54.879-54.879 0-30.309 24.57-54.879 54.879-54.879 30.309 0 54.879 24.57 54.879 54.879"/>
  <path d="m407.68 474.32c0 30.309-24.57 54.879-54.879 54.879-30.309 0-54.879-24.57-54.879-54.879 0-30.309 24.57-54.879 54.879-54.879 30.309 0 54.879 24.57 54.879 54.879"/>
 </g>
</svg>
