<?xml version="1.0" encoding="utf-8"?>
<!-- Generator: Adobe Illustrator 26.0.3, SVG Export Plug-In . SVG Version: 6.00 Build 0)  -->
<svg version="1.1" id="Layer_1" xmlns="http://www.w3.org/2000/svg" xmlns:xlink="http://www.w3.org/1999/xlink" x="0px" y="0px"
	 viewBox="0 0 24 24" style="enable-background:new 0 0 24 24;" xml:space="preserve">
<style type="text/css">
	.st0{fill:none;}
	.st1{fill:#FF5555;}
</style>
<path class="st0" d="M0,0h24v24H0V0z"/>
<path class="st1" d="M14.6,8L12,10.6L9.4,8L8,9.4l2.6,2.6L8,14.6L9.4,16l2.6-2.6l2.6,2.6l1.4-1.4L13.4,12L16,9.4L14.6,8z M12,2
	C6.5,2,2,6.5,2,12s4.5,10,10,10s10-4.5,10-10S17.5,2,12,2z M12,20c-4.4,0-8-3.6-8-8s3.6-8,8-8s8,3.6,8,8S16.4,20,12,20z"/>
</svg>
