<svg width="30" height="30" viewBox="0 0 30 30" fill="none" xmlns="http://www.w3.org/2000/svg">
<rect width="30" height="30" fill="#2A3F3E"/>
<path d="M21.4467 19.1133L17.9133 15.58H17.2467L15.5533 17.2733V17.94L19.0867 21.4733C19.2116 21.5975 19.3806 21.6672 19.5567 21.6672C19.7328 21.6672 19.9018 21.5975 20.0267 21.4733L21.44 20.06C21.5029 19.9985 21.5531 19.9251 21.5875 19.8441C21.6219 19.7631 21.6399 19.6761 21.6406 19.588C21.6412 19.5 21.6244 19.4128 21.5911 19.3313C21.5578 19.2498 21.5087 19.1757 21.4467 19.1133Z" fill="#E6E7E8"/>
<path d="M18.56 13.7933L19.5 12.8533L20.9133 14.2667C21.2879 13.8917 21.4983 13.3833 21.4983 12.8533C21.4983 12.3233 21.2879 11.815 20.9133 11.44L18.5533 9.07999L17.6133 10.02V8.13999L17.1467 7.66666L14.7867 10.0267L15.26 10.5H17.1467L16.2067 11.44L16.9133 12.1467L15 14.0733L12.2333 11.32V10.3733L10.2333 8.37332L8.33334 10.2467L10.3333 12.2467H11.2933L14.0467 15L13.48 15.5667H12.0667L8.53334 19.1C8.40918 19.2249 8.33948 19.3939 8.33948 19.57C8.33948 19.7461 8.40918 19.9151 8.53334 20.04L9.94668 21.4533C10.0716 21.5775 10.2406 21.6472 10.4167 21.6472C10.5928 21.6472 10.7618 21.5775 10.8867 21.4533L14.42 17.92V16.5267L17.8533 13.0933L18.56 13.7933Z" fill="#E6E7E8"/>
</svg>
