<svg width="28" height="28" viewBox="0 0 28 28" fill="none" xmlns="http://www.w3.org/2000/svg">
<path d="M20.4466 18.1134L16.9132 14.58H16.2466L14.5532 16.2734V16.94L18.0866 20.4733C18.2115 20.5975 18.3804 20.6672 18.5566 20.6672C18.7327 20.6672 18.9016 20.5975 19.0266 20.4733L20.4399 19.06C20.5028 18.9985 20.5529 18.9251 20.5874 18.8441C20.6218 18.7631 20.6398 18.6761 20.6404 18.5881C20.641 18.5001 20.6242 18.4128 20.591 18.3313C20.5577 18.2498 20.5086 18.1758 20.4466 18.1134Z" fill="#E6E7E8"/>
<path d="M17.5599 12.7934L18.4999 11.8534L19.9133 13.2667C20.2878 12.8917 20.4982 12.3834 20.4982 11.8534C20.4982 11.3234 20.2878 10.815 19.9133 10.44L17.5533 8.08002L16.6133 9.02002V7.14002L16.1466 6.66669L13.7866 9.02669L14.2599 9.50002H16.1466L15.2066 10.44L15.9133 11.1467L13.9999 13.0734L11.2333 10.32V9.37335L9.23325 7.37335L7.33325 9.24669L9.33325 11.2467H10.2933L13.0466 14L12.4799 14.5667H11.0666L7.53325 18.1C7.40908 18.2249 7.33939 18.3939 7.33939 18.57C7.33939 18.7461 7.40908 18.9151 7.53325 19.04L8.94659 20.4534C9.07149 20.5775 9.24046 20.6472 9.41659 20.6472C9.59271 20.6472 9.76168 20.5775 9.88659 20.4534L13.4199 16.92V15.5267L16.8533 12.0934L17.5599 12.7934Z" fill="#E6E7E8"/>
</svg>
