<svg width="70" height="70" viewBox="0 0 70 70" fill="none" xmlns="http://www.w3.org/2000/svg">
<path d="M69.9493 33.2231V2.92141C69.9493 1.30262 68.6304 0 67.0199 0H2.86594C1.2808 0 0 1.27733 0 2.85818V34.4625C0 34.6775 0 34.8799 0 35.0948C0 54.3686 15.6739 70 35 70C54.3261 70 70 54.3686 70 35.0948C70 15.8211 69.9873 33.8428 69.9493 33.2231ZM25.3623 3.21229H43.8261V16.0867H25.3623V3.21229ZM3.37319 3.21229H21.837V16.0867H3.37319V3.21229ZM30.7518 41.3044L22.4964 50.0434C22.0399 50.5366 21.3043 50.5872 21.3043 49.3857C21.3043 48.1843 21.279 46.477 21.279 44.4788C5.9221 44.0108 5.27536 21.0696 5.27536 21.0696H19.4783C19.4783 21.0696 16.5362 26.4697 16.5362 30.4029C16.5362 34.336 19.6178 35.626 21.2536 35.8537C21.2536 34.2349 21.2663 32.8058 21.2663 31.7687C21.2663 31.0352 21.9638 30.6305 22.433 31.0732L30.7011 38.8383C31.3605 39.458 31.3859 40.6468 30.7645 41.3044H30.7518ZM61.3895 55.3424C61.3895 56.6197 59.8424 57.2647 58.9293 56.3668L48.8225 46.4264C47.7319 45.3514 45.9819 45.3261 44.8659 46.3631L34.7971 55.6459C33.8714 56.4932 32.375 55.8482 32.375 54.5836V26.1662C32.375 24.9015 33.4022 23.8898 34.6576 23.8898C34.6576 23.9024 59.1069 23.9024 59.1069 23.9024C60.375 23.9024 61.3895 24.9268 61.3895 26.1789V55.3424ZM65.8152 16.0867H47.3514V3.21229H65.8152V16.0867Z" fill="white"/>
</svg>
