<svg width="70" height="70" viewBox="0 0 70 70" fill="none" xmlns="http://www.w3.org/2000/svg">
<path d="M35 0C15.6739 0 0 15.6739 0 35C0 54.3261 15.6739 70 35 70C54.3261 70 70 54.3261 70 35C70 15.6739 54.3261 0 35 0ZM58.5362 44.663C58.5362 46.7428 56.8496 48.442 54.7572 48.442H51.5996C50.3442 48.442 49.1522 48.962 48.2899 49.8623L39.8062 58.8025L40.0471 50.9529C40.0851 49.5833 38.9819 48.442 37.6123 48.442H16.308C14.2283 48.442 12.529 46.7554 12.529 44.663V21.1141C12.529 19.0344 14.2156 17.3351 16.308 17.3351H54.7572C56.837 17.3351 58.5362 19.0217 58.5362 21.1141V44.663Z" fill="white"/>
</svg>
