<svg width="72" height="71" viewBox="0 0 72 71" fill="none" xmlns="http://www.w3.org/2000/svg">
<g clip-path="url(#clip0_9_103)">
<path d="M66.2839 35.1045C66.2839 51.8264 52.7219 65.3883 36 65.3883C19.278 65.3883 5.71606 51.8264 5.71606 35.1045C5.71606 18.3825 19.278 4.82056 36 4.82056C52.7219 4.82056 66.2839 18.3825 66.2839 35.1045ZM31.5561 49.5332C30.9746 49.226 30.6893 48.5128 30.6893 47.3716V22.947H34.2115C35.2977 22.947 36.0548 23.2433 36.4608 23.8358C36.8668 24.4283 37.1301 25.1195 37.2179 25.9205L37.4044 27.4786H39.2917L39.1052 21.1256H18.6745L18.6635 21.1146L18.477 27.4676H20.3643L20.5508 25.9096C20.6495 25.1086 20.9019 24.4173 21.3079 23.8248C21.7139 23.2323 22.46 22.936 23.5243 22.936H27.0135V47.5472C27.0135 48.6115 26.7173 49.2808 26.1248 49.5661C25.5323 49.8404 24.841 49.9831 24.04 49.9831H23.2061V51.5082H34.4967V49.9831H33.6628C32.8399 49.9831 32.1377 49.8294 31.5561 49.5332ZM36.1454 33.1738L36.1373 33.1658L36 37.8443H37.3898L37.5272 36.6969C37.5999 36.107 37.7857 35.598 38.0847 35.1616C38.3837 34.7253 38.9332 34.5071 39.7169 34.5071H42.2865V48.5912C42.2865 49.375 42.0683 49.8679 41.632 50.078C41.1957 50.28 40.6866 50.385 40.0967 50.385H39.4826V51.5082H47.7973V50.385H47.1832C46.5772 50.385 46.06 50.2719 45.6318 50.0538C45.2035 49.8275 44.9934 49.3023 44.9934 48.4619V34.5152H47.5872C48.3872 34.5152 48.9447 34.7334 49.2437 35.1697C49.5427 35.606 49.7366 36.1151 49.8013 36.705L49.9386 37.8524H51.3285L51.1911 33.1739L36.1454 33.1738ZM48.8761 30.2766L54.088 24.955H43.6642L48.8761 30.2766ZM48.8761 16.7441L43.6642 22.0658H54.088L48.8761 16.7441Z" fill="#FAFAFA"/>
</g>
<defs>
<clipPath id="clip0_9_103">
<rect width="70.2235" height="70.2235" fill="white" transform="translate(0.888184 -0.00732422)"/>
</clipPath>
</defs>
</svg>
