<svg width="70" height="70" viewBox="0 0 70 70" fill="none" xmlns="http://www.w3.org/2000/svg">
<path d="M70 35C70 54.3261 54.3261 70 35 70C15.6739 70 0 54.3261 0 35C0 15.6739 15.6739 0 35 0C54.3261 0 70 15.6739 70 35ZM29.8641 51.6757C29.192 51.3207 28.8623 50.4964 28.8623 49.1775V20.9493H32.933C34.1884 20.9493 35.0634 21.2917 35.5326 21.9764C36.0018 22.6612 36.3062 23.4601 36.4076 24.3859L36.6232 26.1866H38.8043L38.5888 18.8442H14.9764L14.9638 18.8315L14.7482 26.1739H16.9293L17.1449 24.3732C17.2591 23.4475 17.5507 22.6486 18.0199 21.9638C18.4891 21.279 19.3514 20.9366 20.5815 20.9366H24.6141V49.3804C24.6141 50.6105 24.2717 51.3841 23.587 51.7138C22.9022 52.0308 22.1033 52.1957 21.1775 52.1957H20.2138V53.9583H33.2627V52.1957H32.2989C31.3478 52.1957 30.5362 52.0181 29.8641 51.6757ZM35.1681 32.7687L35.1588 32.7594L35 38.1665H36.6063L36.765 36.8404C36.8491 36.1587 37.0639 35.5704 37.4094 35.0661C37.7549 34.5618 38.39 34.3096 39.2958 34.3096H42.2655V50.587C42.2655 51.4929 42.0134 52.0626 41.5091 52.3054C41.0048 52.5388 40.4165 52.6602 39.7348 52.6602H39.025V53.9583H48.6346V52.6602H47.9248C47.2244 52.6602 46.6267 52.5295 46.1318 52.2774C45.6368 52.0159 45.394 51.4088 45.394 50.4376V34.319H48.3918C49.3163 34.319 49.9607 34.5711 50.3062 35.0754C50.6517 35.5797 50.8759 36.168 50.9506 36.8498L51.1093 38.1759H52.7156L52.5568 32.7687L35.1681 32.7687ZM49.8813 29.4203L55.9049 23.2699H43.8578L49.8813 29.4203ZM49.8813 13.7805L43.8578 19.9308H55.9049L49.8813 13.7805Z" fill="white"/>
</svg>
