<?xml version="1.0" encoding="UTF-8"?>
<svg id="drag" xmlns="http://www.w3.org/2000/svg" version="1.1" viewBox="0 0 640 640">
  <!-- Generator: Adobe Illustrator 29.3.1, SVG Export Plug-In . SVG Version: 2.1.0 Build 151)  -->
  <defs>
    <style>
      .st0 {
        fill: #fafafa;
      }
    </style>
  </defs>
  <path class="st0" d="M319.6,44c-152.2.2-275.6,123.7-275.6,276s107.3,259,245.2,274.3l-53.1-53.1c-13.8-13.8-13.8-36.3,0-50.1,11.1-11.1,27.8-13.3,41.1-6.5l-3.7-3.7c-13.7-13.7-14.4-36.1-1-50.1,12-12.5,30.8-14.2,44.7-5.2l-4.8-4.8c-13.8-13.8-14.4-36.4-.7-50.4,12.2-12.4,31.4-13.9,45.2-4.4l-61.5-61.5c-13.8-13.8-13.8-36.3,0-50.1,13.8-13.8,36.3-13.8,50.1,0l154.9,154.9c-20-20-20-52.4,0-72.4,4.5-4.5,11.8-4.5,16.3,0l41.9,41.9c11.8,11.8,17.9,27,18.3,42.5,12.5-31.8,19.3-66.4,19.1-102.7-.9-151.5-124.9-274.6-276.4-274.4ZM419,241.4c0,9.4-7.6,17-17,17s-17-7.6-17-17v-33.3c0-9.8-8-17.8-17.8-17.8h-112.7c-9.8,0-17.8,8-17.8,17.8v112.7c0,9.8,8,17.8,17.8,17.8h32.2c9.4,0,17,7.6,17,17s-7.6,17-17,17h-32.2c-28.6,0-51.8-23.2-51.8-51.8v-112.7c0-28.6,23.2-51.8,51.8-51.8h112.7c28.6,0,51.8,23.2,51.8,51.8v33.3Z"/>
</svg>