<svg width="70" height="70" viewBox="0 0 70 70" fill="none" xmlns="http://www.w3.org/2000/svg">
<path d="M34.949 0C15.6484 0.0253621 0 15.6865 0 34.9997C0 54.313 13.6068 67.8437 31.094 69.7839L24.3603 63.0502C22.6103 61.3003 22.6103 58.447 24.3603 56.697C25.7679 55.2894 27.8857 55.0104 29.5722 55.8728L29.103 55.4036C27.3657 53.6663 27.277 50.8257 28.9762 49.0503C30.498 47.4652 32.882 47.2496 34.6447 48.3909L34.036 47.7822C32.286 46.0323 32.2099 43.1663 33.9472 41.391C35.4943 39.8185 37.9291 39.6283 39.679 40.833L31.8802 33.0342C30.1302 31.2842 30.1302 28.4309 31.8802 26.681C33.6302 24.931 36.4834 24.931 38.2334 26.681L57.8764 46.3239C55.3401 43.7877 55.3401 39.679 57.8764 37.1428C58.447 36.5722 59.3727 36.5722 59.9434 37.1428L65.2567 42.4562C66.7531 43.9526 67.5266 45.8801 67.5774 47.8456C69.1625 43.8131 70.0248 39.4254 69.9995 34.8222C69.8853 15.6104 54.1608 9.63709e-08 34.949 0.0253622V0ZM47.554 25.0324C47.554 26.2244 46.5902 27.1882 45.3982 27.1882C44.2062 27.1882 43.2424 26.2244 43.2424 25.0324V20.8096C43.2424 19.5669 42.2279 18.5524 40.9852 18.5524H26.6936C25.4509 18.5524 24.4364 19.5669 24.4364 20.8096V35.1012C24.4364 36.3439 25.4509 37.3584 26.6936 37.3584H30.7769C31.969 37.3584 32.9327 38.3222 32.9327 39.5142C32.9327 40.7062 31.969 41.67 30.7769 41.67H26.6936C23.0669 41.67 20.1248 38.728 20.1248 35.1012V20.8096C20.1248 17.1828 23.0669 14.2408 26.6936 14.2408H40.9852C44.612 14.2408 47.554 17.1828 47.554 20.8096V25.0324Z" fill="white"/>
</svg>
