<svg width="63" height="63" viewBox="0 0 63 63" fill="none" xmlns="http://www.w3.org/2000/svg">
<path d="M10.2773 28.9917L31.5511 7.71799H49.8084C44.7415 3.81145 38.3927 1.48633 31.4999 1.48633C14.9239 1.48634 1.48633 14.9239 1.48633 31.4999C1.48633 39.7881 4.8458 47.2915 10.2773 52.7229V28.9917Z" fill="white"/>
<path d="M29.6203 16.3574L18.3752 27.6025H29.6203V16.3574Z" fill="white"/>
<path d="M34.364 12.4617V32.3461H15.021V56.5865C19.7513 59.7001 25.4134 61.5137 31.5 61.5137C48.076 61.5137 61.5136 48.0761 61.5136 31.5001C61.5136 24.2725 58.9583 17.6421 54.7026 12.4617H34.364ZM52.2703 25.3404H47.4886V45.1411H52.2703V48.7684H39.0796V45.1411H43.8613V25.3404H39.0796V21.7129H52.2703V25.3404Z" fill="white"/>
</svg>
