<svg width="70" height="70" viewBox="0 0 70 70" fill="none" xmlns="http://www.w3.org/2000/svg">
<path d="M10.2515 32.0751L35.0597 7.26698H56.3504C50.4417 2.71141 43.038 0 35.0001 0C15.6701 1.14792e-05 0 15.67 0 35C0 44.6651 3.91762 53.4152 10.2515 59.749V32.0751Z" fill="white"/>
<path d="M32.8082 17.3415L19.6948 30.4549H32.8082V17.3415Z" fill="white"/>
<path d="M38.3398 12.7986V35.9866H15.7832V64.2543C21.2995 67.8852 27.9023 70 35 70C54.33 70 70.0001 54.33 70.0001 35C70.0001 26.5717 67.0203 18.8397 62.0576 12.7986H38.3398ZM59.2211 27.8169H53.6451V50.9073H59.2211V55.1373H43.839V50.9073H49.415V27.8169H43.839V23.5868H59.2211V27.8169Z" fill="white"/>
</svg>
