<?xml version="1.0" encoding="UTF-8"?>
<svg id="import" xmlns="http://www.w3.org/2000/svg" version="1.1" viewBox="0 0 640 640">
  <!-- Generator: Adobe Illustrator 29.3.1, SVG Export Plug-In . SVG Version: 2.1.0 Build 151)  -->
  <defs>
    <style>
      .st0 {
        fill: #fafafa;
      }
    </style>
  </defs>
  <path class="st0" d="M276,570.8v-62.1c0-16.6,13.5-30.1,30.1-30.1h43v-21.6h-43c-16.6,0-30.1-13.5-30.1-30.1v-36.7h-89.3l-.4-12.4c0-.4-1.1-38.5-1.8-76.6-.4-22.4-.5-40.5-.5-53.6v-8.2h-76.8c-16.6,0-30.1-13.5-30.1-30.1v-20.5c-21.1,39-33.1,83.7-33.1,131.2,0,141.3,106.1,257.7,243,274-6.7-5.5-11-13.9-11-23.2Z"/>
  <path class="st0" d="M320,44c-72.2,0-137.9,27.7-187.1,73.1h85.9c16.6,0,30.1,13.5,30.1,30.1v62.1c0,16.6-13.5,30.1-30.1,30.1h-9.3v23.2h66.4v-41.7c0-16.6,13.5-30.1,30.1-30.1h111.6c16.6,0,30.1,13.5,30.1,30.1v62.1c0,16.6-13.5,30.1-30.1,30.1h-111.4c-14.9,0-27.3-10.8-29.7-25h-66.6c.3,23.2.9,50.2,1.6,76.6h64.5c.1-16.6,13.5-30,30.1-30h111.6c16.6,0,30.1,13.5,30.1,30.1v62.1c0,16.6-13.5,30.1-30.1,30.1h-43v21.6h43c16.6,0,30.1,13.5,30.1,30.1v56c88.1-46.1,148.2-138.4,148.2-244.7,0-152.4-123.6-276-276-276Z"/>
</svg>