<svg width="70" height="70" viewBox="0 0 70 70" fill="none" xmlns="http://www.w3.org/2000/svg">
<path fill-rule="evenodd" clip-rule="evenodd" d="M70 35C70 54.33 54.33 70 35 70C15.67 70 0 54.33 0 35C0 15.67 15.67 0 35 0C54.33 0 70 15.67 70 35ZM47.9857 31.4461H36.8667C35.3795 31.4461 34.1419 30.3745 33.9023 28.9657H27.2549C27.2849 31.2675 27.3448 33.9463 27.4146 36.5655H33.8524C33.8624 34.9186 35.1999 33.5891 36.8568 33.5891H47.9957C49.6526 33.5891 51 34.9285 51 36.5754V42.7367C51 44.3836 49.6526 45.723 47.9957 45.723H43.7038V47.8661H47.9957C49.6526 47.8661 51 49.2055 51 50.8524V57.0136C51 58.6606 49.6526 60 47.9957 60H36.8568C35.1999 60 33.8524 58.6606 33.8524 57.0136V50.8524C33.8524 49.2055 35.1999 47.8661 36.8568 47.8661H41.1487V45.723H36.8568C35.1999 45.723 33.8524 44.3836 33.8524 42.7367V39.0955H24.9393L24.8994 37.8652C24.8994 37.8592 24.8969 37.7667 24.8923 37.6009C24.8669 36.6761 24.779 33.4708 24.7197 30.2654C24.6798 28.043 24.6698 26.2472 24.6698 24.9475V24.1339H17.0043C15.3474 24.1339 14 22.7945 14 21.1476V14.9864C14 13.3394 15.3474 12 17.0043 12H28.1432C29.8001 12 31.1476 13.3394 31.1476 14.9864V21.1476C31.1476 22.7945 29.8001 24.1339 28.1432 24.1339H27.215V26.4357H33.8425V22.2985C33.8425 20.6515 35.1899 19.3121 36.8468 19.3121H47.9857C49.6426 19.3121 50.99 20.6515 50.99 22.2985V28.4597C50.99 30.1067 49.6426 31.4461 47.9857 31.4461Z" fill="white"/>
</svg>
