<svg width="72" height="71" viewBox="0 0 72 71" fill="none" xmlns="http://www.w3.org/2000/svg">
<path d="M36 4.82056C19.278 4.82056 5.71606 18.3825 5.71606 35.1045C5.71606 51.8264 19.278 65.3884 36 65.3884C52.7219 65.3884 66.2839 51.8264 66.2839 35.1045C66.2839 18.3825 52.7219 4.82056 36 4.82056ZM41.6584 44.9845L26.1683 29.5893C22.9689 27.1071 18.2435 27.8802 16.0348 31.2632C12.5333 36.6262 17.395 43.4 23.5947 41.9033C26.4752 41.2079 28.2774 38.4019 30.3793 36.5351L34.5829 40.861C34.4834 40.8673 34.4022 40.915 34.3319 40.9824C32.3889 42.8457 30.6006 45.1298 28.2291 46.4544C21.2846 50.3333 12.4982 47.1167 9.71301 39.7176C6.24237 30.4975 13.8237 21.0449 23.541 22.2266C28.7057 22.8547 31.4454 26.3224 34.8873 29.7363C38.347 33.1679 41.7157 36.7037 45.1954 40.1155C49.277 44.0344 56.1334 41.8424 57.0376 36.2192C57.8729 31.0241 52.8726 26.849 47.8858 28.4826C45.7583 29.1796 43.4292 31.8238 41.8627 33.4515C41.7881 33.529 41.7493 33.7036 41.7001 33.7042L37.4154 29.499C39.9896 27.0138 42.0097 24.3084 45.4684 22.985C55.9035 18.9921 66.1818 29.1906 62.3068 39.6569C59.1784 48.1065 48.5036 50.8352 41.6584 44.9845Z" fill="#FAFAFA"/>
</svg>
