<svg width="70" height="70" viewBox="0 0 70 70" fill="none" xmlns="http://www.w3.org/2000/svg">
<path d="M35 0C15.6739 0 0 15.6739 0 35C0 54.3261 15.6739 70 35 70C54.3261 70 70 54.3261 70 35C70 15.6739 54.3261 0 35 0ZM41.5396 46.4187L23.6373 28.6259C19.9396 25.7572 14.4783 26.6507 11.9257 30.5605C7.87888 36.7587 13.4976 44.5875 20.6629 42.8576C23.992 42.0539 26.0748 38.8109 28.5041 36.6534L33.3623 41.653C33.2473 41.6603 33.1534 41.7154 33.0721 41.7933C30.8266 43.9468 28.7598 46.5866 26.019 48.1175C17.9931 52.6004 7.83829 48.8829 4.61939 40.3316C0.608265 29.6756 9.37022 18.751 20.6008 20.1167C26.5698 20.8426 29.7362 24.8503 33.714 28.7958C37.7125 32.7619 41.6058 36.8483 45.6275 40.7914C50.3447 45.3206 58.2688 42.7872 59.3138 36.2883C60.2792 30.2842 54.5002 25.4589 48.7368 27.3469C46.278 28.1524 43.5862 31.2084 41.7758 33.0897C41.6896 33.1793 41.6447 33.381 41.5878 33.3817L36.6358 28.5216C39.611 25.6493 41.9456 22.5227 45.943 20.9932C58.0031 16.3785 69.8821 28.1652 65.4035 40.2613C61.788 50.0268 49.4509 53.1804 41.5396 46.4187Z" fill="white"/>
</svg>
