<svg width="70" height="70" viewBox="0 0 70 70" fill="none" xmlns="http://www.w3.org/2000/svg">
<path d="M32.9835 33.5645L17 25.026L31.5932 35.7445C33.8683 37.4185 37.0742 37.4185 39.3494 35.7445L54 25L37.959 33.5645C36.5916 34.2912 34.3624 34.2912 32.995 33.5645H32.9835Z" fill="white"/>
<path d="M28.2732 25.3116L28.8471 25.6215C29.7769 26.1151 30.9019 26.1036 31.8202 25.5871L40.9577 20.4214L42.2089 23.4519C42.404 23.9226 42.9206 24.1637 43.3912 24.0029L44.2063 23.7504C44.7458 23.5782 45.0328 22.9813 44.8147 22.4647L42.9091 17.7468C42.7828 17.4369 42.4844 17.2188 42.14 17.2073L31.0167 16.7596C30.592 16.7481 30.2132 17.0007 30.0639 17.4024C29.8458 18.0223 30.282 18.6766 30.9363 18.6996L37.6287 18.9636L28.2617 24.0259C27.7451 24.3014 27.7451 25.0476 28.2617 25.3231L28.2732 25.3116Z" fill="white"/>
<path d="M35 0C15.6691 0 0 15.6691 0 35C0 54.3309 15.6691 70 35 70C54.3309 70 70 54.3309 70 35C70 15.6691 54.3309 0 35 0ZM60.0131 41.5087L37.732 55.9954C36.6645 56.6038 34.9311 56.6038 33.8636 55.9954L11.5825 41.5087C10.9167 41.1299 10.6642 40.5904 10.8363 40.0967L14.0161 22.2696C14.0161 21.8678 14.2801 21.4775 14.8081 21.1676L33.8636 10.3313C34.9311 9.72286 36.6645 9.72286 37.732 10.3313L56.7875 21.1676C57.3155 21.4661 57.5795 21.8678 57.5795 22.2696L60.7593 40.0967C60.9315 40.5904 60.6904 41.1299 60.0131 41.5087Z" fill="white"/>
</svg>
