<svg width="68" height="68" viewBox="0 0 68 68" fill="none" xmlns="http://www.w3.org/2000/svg">
<path d="M34.0001 1.60449C16.1085 1.60449 1.60449 16.1085 1.60449 34.0001C1.60449 51.8917 16.1085 66.3957 34.0001 66.3957C51.8917 66.3957 66.3957 51.8917 66.3957 34.0001C66.3957 16.1085 51.8917 1.60449 34.0001 1.60449ZM54.6403 52.3771C54.6403 53.8502 53.4461 55.0444 51.9729 55.0444H31.5521C30.0789 55.0444 28.8847 53.8502 28.8847 52.3771V30.8083C28.8847 29.9691 29.565 29.2889 30.4042 29.2889H31.2908V21.6747C31.2908 17.897 28.1886 14.8303 24.398 14.8882C20.6738 14.945 17.7162 18.0531 17.7162 21.7777V25.0659C17.7162 26.2952 16.6977 27.2866 15.4586 27.2425C14.2783 27.2005 13.36 26.1947 13.36 25.0136V21.6747C13.36 15.5085 18.3943 10.4959 24.5686 10.5314C30.7176 10.5667 35.647 15.6481 35.647 21.7972V29.2889H53.1208C53.96 29.2889 54.6403 29.9691 54.6403 30.8083V52.3771Z" fill="white"/>
</svg>
