<svg width="70" height="70" viewBox="0 0 70 70" fill="none" xmlns="http://www.w3.org/2000/svg">
<path d="M35 0C15.67 0 0 15.67 0 35C0 54.33 15.67 70 35 70C54.33 70 70 54.33 70 35C70 15.67 54.33 0 35 0ZM57.2995 54.8543C57.2995 56.4459 56.0092 57.7361 54.4177 57.7361H32.3551C30.7636 57.7361 29.4734 56.4459 29.4734 54.8543V31.5516C29.4734 30.645 30.2083 29.91 31.115 29.91H32.0729V21.6837C32.0729 17.6023 28.7213 14.2891 24.6259 14.3516C20.6023 14.413 17.4069 17.771 17.4069 21.795V25.3475C17.4069 26.6756 16.3066 27.7468 14.9678 27.6992C13.6927 27.6538 12.7005 26.567 12.7005 25.2911V21.6837C12.7005 15.0217 18.1396 9.60622 24.8102 9.64451C31.4536 9.68266 36.7792 15.1726 36.7792 21.8161V29.91H55.6579C56.5645 29.91 57.2995 30.645 57.2995 31.5516V54.8543Z" fill="white"/>
</svg>
