<?xml version="1.0" encoding="UTF-8"?>
<svg id="import" xmlns="http://www.w3.org/2000/svg" version="1.1" viewBox="0 0 640 640">
  <!-- Generator: Adobe Illustrator 29.3.1, SVG Export Plug-In . SVG Version: 2.1.0 Build 151)  -->
  <defs>
    <style>
      .st0 {
        fill: #fafafa;
      }
    </style>
  </defs>
  <path class="st0" d="M320,44c-152.4,0-276,123.6-276,276s123.6,276,276,276,276-123.6,276-276S472.4,44,320,44ZM510.5,414.3c0,25-20.3,45.2-45.2,45.2h-91.1c-18.8,0-35.1-12.9-39.3-31.2-2.5-10.5-5.2-22.2-7.9-32.8-2.3-9.1-15.1-9.5-17.9-.6l-11.2,35.3c-5.5,17.4-21.7,29.2-39.9,29.2h-84.6c-25,0-45.2-20.3-45.2-45.2v-42.4c0-25,20.3-45.2,45.2-45.2h291.9c25,0,45.2,20.3,45.2,45.2v42.4ZM59.1,302.6l156.1-53.9v-89.9l219.6,1.9v97.6l156.1,44.3H59.1Z"/>
</svg>