<svg width="70" height="70" viewBox="0 0 70 70" fill="none" xmlns="http://www.w3.org/2000/svg">
<path d="M35 0C15.6739 0 0 15.6739 0 35C0 54.3261 15.6739 70 35 70C54.3261 70 70 54.3261 70 35C70 15.6739 54.3261 0 35 0ZM59.1576 46.9583C59.1576 50.1286 56.5833 52.6902 53.4257 52.6902H41.8732C39.4891 52.6902 37.4221 51.0543 36.8895 48.7337C36.5725 47.4022 36.2301 45.9185 35.8877 44.5743C35.596 43.4203 33.9728 43.3696 33.6178 44.4982L32.1975 48.9746C31.5 51.1812 29.4457 52.6775 27.1377 52.6775H16.4094C13.2391 52.6775 10.6775 50.1033 10.6775 46.9457V41.5688C10.6775 38.3985 13.2518 35.837 16.4094 35.837H53.4257C56.596 35.837 59.1576 38.4112 59.1576 41.5688V46.9457V46.9583ZM1.91485 32.7935L21.7101 25.9583V14.558L49.558 14.7989V27.1757L69.3533 32.7935H1.91485Z" fill="white"/>
</svg>
