<svg width="70" height="70" viewBox="0 0 70 70" fill="none" xmlns="http://www.w3.org/2000/svg">
<path d="M1.65161 36.6973V33.0484C3.17875 10.8617 25.3277 -4.02004 46.5495 3.72375C67.0021 11.1868 74.8663 36.2133 62.3017 54.1461C59.0153 58.8365 52.6615 64.3603 47.1301 66.0813C45.7735 66.5034 44.7009 66.0822 44.2044 64.7132L37.8904 44.3015C37.8558 42.5861 39.6198 42.1324 40.6861 41.1317C45.6461 36.4766 43.2731 28.1059 36.604 26.8317C28.7695 25.3348 23.5047 34.6513 28.8219 40.6085C29.906 41.8232 32.1943 42.56 32.137 44.3015L25.823 64.7132C24.811 67.2282 22.7011 66.0419 20.8925 65.219C9.86893 60.2036 2.31488 48.7443 1.65161 36.6973Z" fill="white"/>
</svg>
