<svg width="70" height="68" viewBox="0 0 70 68" fill="none" xmlns="http://www.w3.org/2000/svg">
<path d="M0 36.8979V33.0561C1.60277 9.69682 24.8486 -5.9714 47.1215 2.18165C68.587 10.0392 76.8406 36.3883 63.6537 55.2689C60.2046 60.2071 53.5362 66.023 47.7308 67.8349C46.307 68.2792 45.1813 67.8358 44.6602 66.3945L38.0335 44.904C37.9972 43.0979 39.8485 42.6202 40.9676 41.5666C46.1733 36.6655 43.6827 27.8524 36.6834 26.5109C28.4609 24.9349 22.9354 34.7437 28.5159 41.0158C29.6537 42.2947 32.0553 43.0705 31.9951 44.904L25.3685 66.3945C24.3063 69.0424 22.092 67.7934 20.1938 66.927C8.62428 61.6465 0.69612 49.5816 0 36.8979Z" fill="white"/>
</svg>
