<svg width="70" height="70" viewBox="0 0 70 70" fill="none" xmlns="http://www.w3.org/2000/svg">
<path d="M29.9061 19.0909L29.697 26.7237H31.8126L32.0217 24.8517C32.1324 23.8894 32.4153 23.0589 32.8705 22.347C33.3256 21.6352 34.162 21.2792 35.3551 21.2792H39.2665V37.6653C39.2665 38.944 38.9344 39.7482 38.2702 40.0909C37.606 40.4205 36.8311 40.5919 35.9332 40.5919H34.9984V42.4242H47.6552V40.5919H46.7204C45.7979 40.5919 45.0107 40.4073 44.3588 40.0514C43.7069 39.6822 43.3871 38.8254 43.3871 37.4544V21.2924H47.3354C48.5531 21.2924 49.4018 21.6484 49.8569 22.3602C50.312 23.0721 50.6072 23.9026 50.7056 24.8649L50.9147 26.7369H53.0304L52.8213 19.1041H29.9184L29.9061 19.0909Z" fill="white"/>
<path d="M35 0C15.6739 0 0 15.6739 0 35C0 54.3261 15.6739 70 35 70C54.3261 70 70 54.3261 70 35C70 15.6739 54.3261 0 35 0ZM41.3152 50.75C37.9674 50.75 34.8225 49.9384 32.058 48.4928L20.0236 60.5272C19.25 61.3007 18.2355 61.6812 17.2337 61.6812C16.2319 61.6812 15.2047 61.3007 14.4438 60.5272C12.8967 58.9801 12.8967 56.4819 14.4438 54.9348L25.8822 43.4964C23.0036 40.0217 21.2663 35.558 21.2663 30.6884C21.2663 19.6051 30.2446 10.6268 41.3279 10.6268C52.4112 10.6268 61.3895 19.6051 61.3895 30.6884C61.3895 41.7717 52.4112 50.75 41.3279 50.75H41.3152Z" fill="white"/>
</svg>
