<?xml version="1.0" encoding="UTF-8"?>
<svg id="import" xmlns="http://www.w3.org/2000/svg" version="1.1" viewBox="0 0 640 640">
  <!-- Generator: Adobe Illustrator 29.3.1, SVG Export Plug-In . SVG Version: 2.1.0 Build 151)  -->
  <defs>
    <style>
      .st0 {
        fill: #fafafa;
      }
    </style>
  </defs>
  <path class="st0" d="M276.7,197.5l-1.7,57.9h17.2l1.7-14.2c.9-7.3,3.2-13.6,6.9-19,3.7-5.4,10.5-8.1,20.2-8.1h31.8v124.3c0,9.7-2.7,15.8-8.1,18.4-5.4,2.5-11.7,3.8-19,3.8h-7.6v13.9h102.9v-13.9h-7.6c-7.5,0-13.9-1.4-19.2-4.1-5.3-2.8-7.9-9.3-7.9-19.7v-122.6h32.1c9.9,0,16.8,2.7,20.5,8.1,3.7,5.4,6.1,11.7,6.9,19l1.7,14.2h17.2l-1.7-57.9h-186.2Z"/>
  <path class="st0" d="M320,44c-152.4,0-276,123.6-276,276s123.6,276,276,276,276-123.6,276-276S472.4,44,320,44ZM369.8,444.2c-26.4,0-51.2-6.4-73-17.8l-94.9,94.9c-6.1,6.1-14.1,9.1-22,9.1s-16-3-22-9.1c-12.2-12.2-12.2-31.9,0-44.1l90.2-90.2c-22.7-27.4-36.4-62.6-36.4-101,0-87.4,70.8-158.2,158.2-158.2s158.2,70.8,158.2,158.2-70.8,158.2-158.2,158.2Z"/>
</svg>