<svg width="70" height="70" viewBox="0 0 70 70" fill="none" xmlns="http://www.w3.org/2000/svg">
<path d="M69.7597 33.2231V2.92141C69.7597 1.30262 68.4444 0 66.8383 0H2.85818C1.27733 0 0 1.27733 0 2.85818V34.4625C0 34.6775 0 34.8799 0 35.0948C0 54.3686 15.6314 70 34.9051 70C54.1789 70 69.8103 54.3686 69.8103 35.0948C69.8103 15.8211 69.7976 33.8428 69.7597 33.2231ZM47.2231 3.21229H65.6369V16.0867H47.2231V3.21229ZM25.2936 3.21229H43.7073V16.0867H25.2936V3.21229ZM3.36405 3.21229H21.7778V16.0867H3.36405V3.21229ZM36.2457 55.3424C36.2457 56.6197 34.7028 57.2647 33.7922 56.3668L23.7127 46.4264C22.6251 45.3514 20.8799 45.3261 19.7669 46.3631L9.72538 55.6459C8.80217 56.4932 7.30985 55.8482 7.30985 54.5836V26.1662C7.30985 24.9015 8.33424 23.8898 9.58627 23.8898C9.58627 23.9024 33.9693 23.9024 33.9693 23.9024C35.234 23.9024 36.2457 24.9268 36.2457 26.1789V55.3424ZM67.5212 32.6667C66.3198 32.6667 65.6369 32.692 63.6387 32.692C63.1707 48.0072 39.2051 52.2313 39.2051 52.2313V37.1816C39.2051 37.1816 44.6052 37.4219 48.5384 37.4219C52.4715 37.4219 53.7615 34.3487 53.9892 32.7173C52.3704 32.7173 50.9413 32.7173 49.9042 32.7173C49.1707 32.7173 48.766 32.0217 49.2087 31.5538L56.9738 23.308C56.9738 23.3207 56.9864 23.3207 56.9864 23.3207C57.5935 22.6631 58.7823 22.6378 59.4399 23.2575L68.1789 31.4905C68.6721 31.9458 68.7227 32.6793 67.5212 32.6793V32.6667Z" fill="white"/>
</svg>
