<?xml version="1.0" encoding="UTF-8"?>
<svg id="import" xmlns="http://www.w3.org/2000/svg" version="1.1" viewBox="0 0 640 640">
  <!-- Generator: Adobe Illustrator 29.3.1, SVG Export Plug-In . SVG Version: 2.1.0 Build 151)  -->
  <defs>
    <style>
      .st0 {
        fill: #fafafa;
      }
    </style>
  </defs>
  <path class="st0" d="M595.8,306.4V66.8c0-12.8-10.4-23.1-23.1-23.1H66.8c-12.5,0-22.6,10.1-22.6,22.6v249.9h0c0,1.7,0,3.3,0,5,0,152.4,123.6,276,276,276s276-123.6,276-276-.1-9.9-.4-14.8ZM244.2,69.1h145.6v101.8h-145.6v-101.8ZM70.8,69.1h145.6v101.8H70.8v-101.8ZM286.7,370.3l-65.1,69.1c-3.6,3.9-9.4,4.3-9.4-5.2s-.2-23-.2-38.8c-121.1-3.7-126.2-185.1-126.2-185.1h112s-23.2,42.7-23.2,73.8,24.3,41.3,37.2,43.1c0-12.8.1-24.1.1-32.3,0-5.8,5.5-9,9.2-5.5l65.2,61.4h0c5.2,4.9,5.4,14.3.5,19.5ZM528.3,481.3c0,10.1-12.2,15.2-19.4,8.1l-79.7-78.6c-8.6-8.5-22.4-8.7-31.2-.5l-79.4,73.4c-7.3,6.7-19.1,1.6-19.1-8.4v-224.7c0-10,8.1-18,18-18h0c0,.1,192.8.1,192.8.1,10,0,18,8.1,18,18v230.6ZM563.2,170.9h-145.6v-101.8h145.6v101.8Z"/>
</svg>