<svg width="70" height="70" viewBox="0 0 70 70" fill="none" xmlns="http://www.w3.org/2000/svg">
<path d="M35 0C15.6739 0 0 15.6739 0 35C0 54.3261 15.6739 70 35 70C54.3261 70 70 54.3261 70 35C70 15.6739 54.3261 0 35 0ZM46.1217 64.5471H24.089L23.8792 48.7532C23.841 45.8726 24.9684 43.0987 27.0055 41.0616L32.9513 35.1158L27.0973 29.4016C25.0389 27.3924 23.8783 24.6376 23.8783 21.7612V5.96014H45.911L46.1208 21.7541C46.159 24.6347 45.0316 27.4085 42.9945 29.4456L37.0487 35.3915L42.9027 41.1056C44.9611 43.1149 46.1217 45.8696 46.1217 48.7461L46.1217 64.5471ZM35 52.8804L43.6232 61.5036H27.1377L35 52.8804ZM35.5072 32.971L26.8841 24.3478H43.3696L35.5072 32.971Z" fill="white"/>
</svg>
