<?xml version="1.0" encoding="UTF-8"?>
<svg id="import" xmlns="http://www.w3.org/2000/svg" version="1.1" viewBox="0 0 640 640">
  <!-- Generator: Adobe Illustrator 29.3.1, SVG Export Plug-In . SVG Version: 2.1.0 Build 151)  -->
  <defs>
    <style>
      .st0 {
        fill: #fafafa;
      }
    </style>
  </defs>
  <path class="st0" d="M320,44c-152.4,0-276,123.6-276,276s123.6,276,276,276,276-123.6,276-276S472.4,44,320,44ZM499,505.3c0,15.3-18.4,23-29.3,12.2l-120.5-118.8c-13-12.8-33.9-13.2-47.2-.8l-120,111c-11,10.1-28.9,2.4-28.9-12.7V156.5c0-15.1,12.2-27.2,27.2-27.2v.2h291.5c15.1,0,27.2,12.2,27.2,27.2v348.6Z"/>
  <path class="st0" d="M413.4,168.5l-126,138.6-48.7-53.5c-6.3-6.9-17.1-7.4-24-1.1-6.9,6.3-7.4,17.1-1.1,24l61.3,67.3c3.2,3.5,7.8,5.6,12.6,5.6h0c4.8,0,9.4-2,12.6-5.6l138.6-152.4c6.3-6.9,5.8-17.7-1.1-24-6.9-6.3-17.7-5.8-24,1.1Z"/>
</svg>