<svg width="70" height="70" viewBox="0 0 70 70" fill="none" xmlns="http://www.w3.org/2000/svg">
<path d="M35 0C15.6739 0 0 15.6739 0 35C0 54.3261 15.6739 70 35 70C54.3261 70 70 54.3261 70 35C70 15.6739 54.3261 0 35 0ZM57.6993 58.4982C57.6993 60.4384 55.3659 61.4149 53.9837 60.0453L38.7029 44.9801C37.0543 43.3569 34.404 43.3062 32.7174 44.8786L17.5 58.9547C16.1051 60.2355 13.8351 59.2591 13.8351 57.3442V14.2663C13.8351 12.3514 15.3822 10.817 17.2844 10.817V10.8424H54.25C56.1649 10.8424 57.6993 12.3895 57.6993 14.2917V58.4982Z" fill="white"/>
<path d="M46.8443 15.7881L30.866 33.3641L24.6903 26.5797C23.8914 25.7047 22.5218 25.6413 21.6468 26.4402C20.7718 27.2391 20.7084 28.6087 21.5073 29.4837L29.2808 38.0181C29.6866 38.462 30.27 38.7283 30.8787 38.7283C31.4874 38.7283 32.0707 38.4746 32.4765 38.0181L50.0526 18.692C50.8515 17.817 50.7881 16.4475 49.9131 15.6486C49.0381 14.8496 47.6685 14.9131 46.8696 15.7881H46.8443Z" fill="white"/>
</svg>
