<svg width="1440" height="494" viewBox="0 0 1440 494" fill="none" xmlns="http://www.w3.org/2000/svg">
<g clip-path="url(#clip0_172_47)">
<path d="M1636.07 -168.104H-209.053V508.546H1636.07V-168.104Z" fill="#C8C8C8"/>
<mask id="mask0_172_47" style="mask-type:luminance" maskUnits="userSpaceOnUse" x="-215" y="-160" width="1846" height="678">
<path d="M1630.87 -159.25H-214.247V517.4H1630.87V-159.25Z" fill="white"/>
</mask>
<g mask="url(#mask0_172_47)">
<path d="M620.56 962.902C966.265 962.902 1246.51 780.317 1246.51 555.086C1246.51 329.855 966.265 147.27 620.56 147.27C274.855 147.27 -5.3949 329.855 -5.3949 555.086C-5.3949 780.317 274.855 962.902 620.56 962.902Z" fill="url(#paint0_radial_172_47)"/>
<path d="M867.759 556.978C1002.79 556.978 1112.25 457.932 1112.25 335.753C1112.25 213.574 1002.79 114.529 867.759 114.529C732.732 114.529 623.271 213.574 623.271 335.753C623.271 457.932 732.732 556.978 867.759 556.978Z" fill="url(#paint1_radial_172_47)"/>
<path d="M1025.69 697.979C1160.72 697.979 1270.18 598.933 1270.18 476.754C1270.18 354.575 1160.72 255.529 1025.69 255.529C890.662 255.529 781.201 354.575 781.201 476.754C781.201 598.933 890.662 697.979 1025.69 697.979Z" fill="url(#paint2_radial_172_47)"/>
</g>
<path d="M386.114 438.209C386.114 438.209 337.515 436.906 328.403 399.979C319.29 363.052 337.741 354.186 337.741 354.186C337.741 354.186 312.498 331.773 325.874 308.748C339.251 285.723 356.174 287.027 356.174 287.027C356.174 287.027 335.254 259.466 359.165 238.057C383.077 216.648 400.01 220.668 400.01 220.668C400.01 220.668 400.465 196.911 424.315 184.624C448.165 172.336 469.306 179.4 478.454 182.21C487.602 185.019 494.16 187.541 494.16 187.541C494.16 187.541 517.008 161.941 540.157 164.532C563.306 167.123 574.571 169.622 579.875 176.44C585.178 183.258 587.887 190.148 587.887 190.148C587.887 190.148 639.958 188.161 655.145 220.651C670.332 253.141 656.013 285.723 649.504 293.978L764.927 538.129H434.279L386.114 438.209Z" fill="#FF90D6"/>
<path d="M363.147 266C362.296 266 361.433 265.803 360.626 265.386C357.92 263.99 356.851 260.671 358.239 257.959C358.439 257.567 363.257 248.271 372.466 240.691C385.157 230.245 399.901 227.992 415.105 234.172C417.93 235.32 419.29 238.544 418.143 241.373C416.996 244.201 413.775 245.563 410.951 244.415C383.795 233.374 368.69 261.797 368.06 263.012C367.077 264.909 365.146 266 363.147 266Z" fill="#FFD1F3"/>
<path d="M568.62 195.941C567.424 195.941 566.218 195.553 565.206 194.754C554.431 186.247 543.228 186.76 535.727 188.689C532.773 189.448 529.764 187.666 529.006 184.709C528.248 181.752 530.027 178.74 532.981 177.981C541.098 175.894 556.966 174.171 572.043 186.073C574.437 187.963 574.848 191.438 572.96 193.835C571.87 195.219 570.253 195.941 568.62 195.941Z" fill="#FFD1F3"/>
<path d="M345.937 346.53C344.232 346.53 342.553 345.742 341.475 344.255C341.03 343.642 330.654 329.1 336.071 315.916C339.562 307.42 348.373 301.959 362.261 299.684C399.503 293.582 407.983 283.722 411.598 273.977C412.66 271.115 415.839 269.658 418.696 270.72C421.555 271.783 423.011 274.965 421.949 277.826C415.418 295.432 398.642 304.926 364.044 310.594C357.284 311.701 348.717 314.249 346.294 320.096C343.728 326.286 348.402 334.954 350.419 337.773C352.192 340.248 351.634 343.7 349.167 345.483C348.189 346.19 347.057 346.53 345.937 346.53Z" fill="#FFD1F3"/>
<path d="M423.207 215.037C421.93 215.037 420.646 214.594 419.6 213.693C417.289 211.701 417.04 208.198 419.029 205.884C419.314 205.552 426.162 197.712 439.083 193.547C450.714 189.797 469.821 188.321 494.79 202.579C497.439 204.091 498.362 207.467 496.851 210.119C495.34 212.771 491.97 213.694 489.32 212.182C449.143 189.241 428.245 212.137 427.375 213.123C426.286 214.389 424.752 215.037 423.207 215.037Z" fill="#FFD1F3"/>
<path d="M340.422 397.173C339.909 397.173 339.388 397.101 338.871 396.95C335.944 396.094 334.265 393.025 335.119 390.095L339.94 373.567C340.735 370.843 343.461 369.164 346.249 369.682C346.374 369.706 359.79 372.085 369.239 367.65C371.999 366.354 375.287 367.544 376.581 370.309C377.876 373.073 376.686 376.364 373.926 377.66C365.371 381.675 355.178 381.65 349.226 381.168L345.719 393.193C345.015 395.606 342.811 397.173 340.422 397.173Z" fill="#FFD1F3"/>
<path d="M381.287 426.103C382.831 425.568 384.329 424.886 385.766 424.06C388.389 422.55 390.737 420.643 392.879 418.52C392.445 418.401 391.991 418.328 391.52 418.319C366.325 417.869 354.637 405.102 354.107 404.508C352.106 402.222 348.635 401.982 346.339 403.974C344.035 405.973 343.786 409.465 345.783 411.771C346.264 412.327 355.606 422.845 374.811 427.356C377.018 427.124 379.169 426.707 381.287 426.103Z" fill="#E24DB0"/>
<path d="M671.486 247.366C667.827 211.474 644.894 196.285 626.3 189.864C612.205 184.997 598.672 184.395 591.896 184.465C588.57 176.183 578.055 160.084 546.421 158.992C514.972 157.907 498.403 173.316 492.245 180.809C481.562 176.778 452.561 167.66 428.436 176.718C404.604 185.666 396.117 206.228 393.457 215.315C392.728 215.368 391.999 215.423 391.276 215.499C370.8 217.658 355.058 229.155 346.905 247.889C340.428 258.635 340.057 271.243 345.556 282.363C333.828 286.29 323.832 295.783 318.907 308.201C313.291 322.361 315.412 337.189 324.57 347.937C325.788 349.671 327.52 351.246 329.2 352.773C329.707 353.235 330.366 353.834 330.976 354.424C330.49 354.796 330.065 355.248 329.723 355.766C320.09 370.342 317.113 388.641 321.761 404.716C325.683 418.283 334.789 428.882 347.38 434.552C349.446 435.492 367.9 443.737 379.605 443.737C382.655 443.737 385.126 441.262 385.126 438.209C385.126 435.156 382.655 432.682 379.605 432.682C371.707 432.682 356.963 426.767 351.93 424.479C339.615 418.933 334.494 408.999 332.367 401.642C328.804 389.319 330.999 374.741 338.077 363.208C338.82 362.834 339.488 362.42 340.08 361.97C343.804 363.587 349.293 365.096 356.815 365.096C362.288 365.096 368.838 364.296 376.565 362.158C379.504 361.346 381.228 358.301 380.416 355.359C379.604 352.416 376.563 350.687 373.624 351.503C353.962 356.943 344.359 352.011 342.017 350.49C340.627 348.239 338.503 346.299 336.623 344.589C335.467 343.538 334.027 342.228 333.575 341.538C333.439 341.329 333.288 341.129 333.124 340.94C326.54 333.352 325.063 322.638 329.17 312.281C333.718 300.813 343.839 292.684 354.955 291.571C356.96 291.371 358.696 290.092 359.486 288.236C360.275 286.38 359.991 284.241 358.746 282.655C351.618 273.578 350.784 262.621 356.515 253.346C356.66 253.112 356.787 252.867 356.895 252.614C365.175 233.249 380.791 227.721 392.433 226.493C415.729 224.034 444.458 236.438 460.499 255.253L449.281 261.655C446.631 263.167 445.708 266.542 447.218 269.194C448.236 270.983 450.101 271.986 452.02 271.986C452.947 271.986 453.886 271.752 454.748 271.259L489.872 251.215C492.521 249.704 493.445 246.328 491.935 243.676C490.425 241.024 487.052 240.1 484.404 241.611L470.239 249.695C454.988 230.75 429.28 217.478 405.026 215.413C407.949 207.326 415.27 193.468 432.312 187.069C456.601 177.95 488.926 191.313 491.716 192.505C499.54 196.937 511.252 202.026 523.806 202.026C524.284 202.026 524.764 202.019 525.245 202.004C528.292 201.908 530.685 199.357 530.59 196.306C530.494 193.255 527.949 190.886 524.898 190.954C516.87 191.209 508.975 188.66 502.626 185.708C508.561 179.439 521.999 169.21 546.041 170.041C578.395 171.158 582.297 190.274 582.436 191.025C582.442 191.07 582.454 191.112 582.461 191.157C582.463 191.17 582.464 191.184 582.467 191.198C582.495 191.515 582.506 192.331 582.516 192.993C582.625 200.483 582.914 220.379 603.828 231.08C604.633 231.492 605.491 231.687 606.336 231.687C608.344 231.687 610.281 230.587 611.257 228.674C612.644 225.956 611.569 222.626 608.853 221.236C595.648 214.48 593.915 202.816 593.622 195.532C600.036 195.594 611.442 196.373 623.003 200.421C645.339 208.241 657.942 224.307 660.468 248.179C660.42 250.677 659.741 270.71 650.61 283.873C648.871 286.381 649.492 289.825 651.996 291.566C652.956 292.234 654.054 292.554 655.14 292.554C656.888 292.554 658.608 291.725 659.68 290.179C671.38 273.312 671.514 248.956 671.514 247.927C671.514 247.74 671.505 247.553 671.486 247.366Z" fill="black"/>
<path d="M403.315 266.323C400.525 265.089 397.265 266.355 396.035 269.149C392.709 276.695 379.094 280.684 374.123 281.585C371.123 282.122 369.125 284.99 369.659 287.994C370.135 290.673 372.462 292.555 375.088 292.555C375.409 292.555 375.734 292.527 376.061 292.468C378.479 292.038 399.862 287.852 406.137 273.611C407.368 270.818 406.104 267.555 403.315 266.323Z" fill="black"/>
<path d="M643.757 281.43C642.903 281.43 642.036 281.231 641.226 280.811C638.517 279.409 637.457 276.074 638.857 273.362C657.236 237.783 627.302 221.335 626.019 220.652C623.334 219.224 622.298 215.885 623.715 213.191C625.132 210.497 628.449 209.452 631.145 210.861C631.569 211.083 641.611 216.412 648.765 227.392C655.45 237.651 660.859 254.835 648.666 278.44C647.684 280.34 645.755 281.43 643.757 281.43Z" fill="#E24DB0"/>
<path d="M439.632 547.691L400.036 465.549L663.426 321.318L775.739 558.89L439.632 547.691Z" fill="url(#paint3_linear_172_47)"/>
<path d="M405.389 476.754C345.027 475.664 261.8 452.137 221.423 439.569C207.745 435.311 199.808 421.078 203.36 407.185C205.92 397.174 209.349 384.529 213.699 370.04C224.762 333.19 241.327 311.464 241.327 311.464L267.058 312.632C256.287 330.357 238.997 381.239 231.948 402.65C230.199 407.965 233.202 413.667 238.57 415.225C265.737 423.107 342.761 444.236 381.773 442.387L385.734 434.52" fill="#FF90D6"/>
<path d="M405.391 481.361C405.362 481.361 405.334 481.36 405.306 481.36C345.158 480.273 263.425 457.466 220.057 443.968C204.033 438.98 194.741 422.321 198.903 406.042C202.019 393.859 205.515 381.299 209.293 368.713C220.469 331.489 236.973 309.583 237.67 308.669C238.585 307.468 240.025 306.793 241.535 306.862L267.266 308.03C268.89 308.104 270.354 309.03 271.118 310.466C271.883 311.902 271.833 313.635 270.988 315.026C260.45 332.368 243.232 383.09 236.318 404.092C235.867 405.464 235.988 406.922 236.66 408.198C237.332 409.475 238.465 410.399 239.851 410.801C262.751 417.445 339.182 438.653 378.894 437.873L381.626 432.447C382.77 430.175 385.536 429.261 387.805 430.407C390.074 431.552 390.987 434.322 389.843 436.593L385.882 444.46C385.135 445.943 383.648 446.909 381.991 446.988C380.302 447.068 378.539 447.107 376.721 447.107C336.432 447.108 266.439 428.106 237.29 419.649C233.482 418.544 230.368 416.003 228.52 412.494C226.672 408.985 226.338 404.977 227.579 401.208C233.864 382.116 248.573 338.764 259.501 316.9L243.621 316.179C239.504 322.175 226.948 341.913 218.106 371.365C214.363 383.83 210.902 396.266 207.818 408.327C204.871 419.849 211.447 431.64 222.789 435.17C265.688 448.523 346.466 471.082 405.472 472.148C408.012 472.194 410.035 474.293 409.989 476.837C409.944 479.352 407.893 481.361 405.391 481.361Z" fill="black"/>
<path d="M248.85 212.987C240.464 220.931 246.496 233.755 242.361 233.613C229.508 227.461 212.354 242.131 221.305 256.686C224.052 261.152 208.616 257.196 203.314 263.832C190.243 280.189 211.415 300.381 224.662 314.539C246.602 337.987 256.353 322.528 272.482 305.071C311.544 262.792 301.886 261.105 290.513 228.182C286.89 217.693 262.616 199.948 248.85 212.987Z" fill="#FF90D6"/>
<path d="M234.762 331.699C234.762 331.699 237.102 325.735 234.762 317.854C232.422 309.973 260.718 310.818 260.292 312.632C259.867 314.446 249.442 339.58 249.442 339.58L234.762 331.699Z" fill="#FF90D6"/>
<path d="M301.047 211.177C301.047 211.177 281.622 230.501 260.596 252.037C260.719 252.754 260.781 253.481 260.795 254.179C260.847 256.702 260.412 259.229 259.922 261.696C259.38 264.43 258.777 267.103 257.055 269.37C255.374 271.583 252.993 273.118 250.383 274.007C247.81 274.884 245.065 275.412 242.354 275.585C241.014 275.671 239.487 275.694 238.091 275.366C237.48 276.01 236.871 276.651 236.269 277.287C236.479 277.479 236.679 277.686 236.858 277.92C237.355 278.568 237.574 279.362 237.797 280.135C238.02 280.911 238.33 281.641 238.619 282.394C239.165 283.817 239.634 285.274 239.979 286.76C240.625 289.542 240.853 292.427 240.336 295.249C239.198 301.453 234.165 305.817 228.473 307.936C225.529 309.032 221.876 309.66 219.018 307.98C216.733 306.638 215.219 304.277 213.836 301.989C210.72 305.744 208.864 308.35 208.768 309.328C208.076 316.368 220.519 331.222 226.221 325.439C231.924 319.656 310.725 231.419 316.082 223.288C321.439 215.156 307.016 205.215 301.047 211.177Z" fill="#84EF41"/>
<path d="M253.003 274.773C250.218 275.926 246.638 276.962 243.506 276.379L237.834 282.599C239.319 284.948 240.498 287.493 240.802 290.275L256.83 272.702C255.672 273.578 254.328 274.224 253.003 274.773Z" fill="white"/>
<path d="M305.357 214.033C303.857 212.66 301.528 212.766 300.157 214.269L260.458 257.794C260.589 258.132 260.692 258.48 260.769 258.824C261.268 261.052 261.181 263.453 260.796 265.69C260.525 267.265 259.973 268.833 259.114 270.198L305.593 219.239C306.964 217.736 306.858 215.405 305.357 214.033Z" fill="white"/>
<path d="M218.707 308.354C217.774 307.953 216.672 307.423 215.863 306.687L210.974 312.048C209.603 313.551 209.709 315.882 211.21 317.254C211.916 317.9 212.805 318.218 213.691 318.218C214.689 318.218 215.684 317.814 216.41 317.018L223.122 309.659C221.607 309.437 220.138 308.968 218.707 308.354Z" fill="white"/>
<path d="M283.946 258.051C285.304 250.202 294.503 235.33 309.783 237.468C309.783 237.468 311.515 237.693 313.655 238.626C317.679 240.379 320.09 254.573 316.532 257.144C310.541 261.472 300.431 268.944 295.62 279.352" fill="#FF90D6"/>
<path d="M267.536 210.043C278.155 211.777 281.63 217.398 283.32 221.475C283.489 221.884 283.659 222.285 283.829 222.682C284.408 222.618 284.986 222.515 285.538 222.415C285.598 222.404 285.659 222.393 285.72 222.382C287.006 220.78 288.341 219.215 289.665 217.643C285.888 209.432 278.853 204.423 268.721 202.769C266.712 202.439 264.823 203.804 264.496 205.813C264.169 207.821 265.53 209.715 267.536 210.043Z" fill="black"/>
<path d="M321.784 248.58C321.588 246.752 320.343 237.521 315.124 235.247C312.58 234.138 310.489 233.844 310.293 233.818C292.651 231.352 281.906 248.254 280.319 257.422C279.972 259.427 281.315 261.334 283.318 261.682C285.32 262.026 287.226 260.685 287.572 258.68C288.596 252.761 296.293 239.297 309.285 241.119C309.298 241.12 310.535 241.304 312.066 241.953C313.89 243.555 315.361 252.135 314.196 254.287C309.565 257.634 293.21 275.911 292.584 277.2C288.74 282.689 280.326 292.148 273.856 299.42C268.607 305.322 264.072 310.419 261.989 313.273C260.543 315.254 258.887 317.6 257.485 321.081C259.089 322.979 260.94 322.33 262.467 324.291C264.613 322.025 267.949 320.414 269.172 318.217C272.069 313.012 274.444 309.842 279.354 304.322C287.75 294.884 294.426 287.268 298.226 281.944C298.52 281.647 298.775 281.302 298.961 280.9C298.968 280.883 298.977 280.868 298.985 280.852C300 279.354 314.162 263.4 318.686 260.133C322.015 257.727 322.209 252.522 321.784 248.58Z" fill="black"/>
<path d="M221.667 333.278C217.42 333.279 213.875 330.929 210.685 328.371C204.921 323.749 201.921 318.665 201.766 313.261C201.554 305.891 206.903 300.984 207.131 300.779C208.642 299.416 210.969 299.54 212.329 301.052C213.683 302.559 213.568 304.874 212.076 306.238C211.987 306.323 208.981 309.211 209.126 313.113C209.242 316.235 211.315 319.433 215.287 322.618C217.692 324.547 219.556 325.916 221.58 325.916C221.593 325.916 221.606 325.916 221.62 325.915C224.304 325.892 227.731 323.455 231.805 318.673C242.563 306.046 278.992 265.371 279.359 264.962C280.716 263.447 283.043 263.32 284.557 264.679C286.07 266.038 286.197 268.367 284.839 269.883C284.473 270.291 248.105 310.898 237.406 323.456C231.163 330.784 226.042 333.278 221.667 333.278Z" fill="black"/>
<path d="M727.058 131.616C719.611 123.471 709.755 121.409 700.3 127.472C694.718 131.01 690.437 135.916 686.588 141.112L686.421 141.336L686.276 141.508C686.276 141.508 685.996 141.84 685.996 141.84C685.534 142.489 684.774 143.145 684.204 143.678C683.511 144.147 682.844 144.667 682.064 144.992C677.765 147.074 672.503 146.008 668.292 143.807C659.107 139.014 653.331 128.705 652.91 118.415C652.661 113.136 653.604 107.826 655.446 102.867C658.529 95.3698 660.215 87.3112 657.245 79.4095C648.929 58.1037 616.522 56.6012 603.95 74.6689C600.05 79.8793 598.594 86.0648 597.484 92.3055C595.928 99.6825 593.861 108.566 588.688 113.612C585.76 116.596 581.513 118.334 577.457 119.411C571.599 120.847 565.532 121.292 559.248 121.425C547.988 121.625 536.594 120.8 525.321 119.872C514.063 118.932 502.382 117.563 491.109 116.411C448.908 111.841 407.624 118.003 372.526 143.324C348.67 160.266 329.407 182.619 309.994 204.107C304.746 201.8 298.381 202.982 294.378 207.38L280.227 222.925C278.857 224.43 278.965 226.76 280.467 228.131C281.97 229.502 284.298 229.394 285.667 227.89L299.819 212.344C302.013 209.934 305.749 209.611 308.324 211.607L311.939 214.409C313.27 215.442 314.119 216.931 314.329 218.604C314.54 220.277 314.086 221.931 313.052 223.261L310.909 226.018C309.661 227.624 309.949 229.939 311.553 231.189C312.225 231.712 313.021 231.966 313.811 231.966C314.908 231.966 315.993 231.478 316.719 230.544L318.861 227.788C321.105 224.901 322.089 221.312 321.633 217.683C321.382 215.685 320.697 213.815 319.662 212.157C334.571 195.201 349.27 177.934 366.148 163.11C391.927 140.142 421.993 127.424 456.503 125.671C473.306 124.517 490.509 126.24 507.314 127.908C518.838 128.947 530.348 129.885 541.936 130.336C553.819 130.698 565.552 131.02 577.427 128.469C596.831 124.279 602.235 111.943 605.596 93.9427C606.833 85.9817 608.722 79.1014 615.599 74.2457C627.067 65.7229 648.741 69.8671 651.307 85.4439C652.219 90.5116 650.614 95.7504 648.791 100.498C647.507 104.076 646.613 107.967 646.229 111.783C645.657 117.221 646.147 122.828 647.765 128.067C650.592 137.135 656.837 145.175 665.375 149.513C673.784 153.891 684.578 153.689 690.767 145.645C691.194 145.121 691.736 144.409 692.127 143.846C699.971 133.117 711.41 123.006 723.055 135.422C724.102 136.529 725.857 136.578 726.962 135.523C728.066 134.47 728.109 132.721 727.058 131.616Z" fill="black"/>
<path d="M722.965 133.567C722.965 133.567 725.417 144.042 729.995 144.86C734.572 145.679 736.698 142.078 735.88 139.623C735.063 137.168 729.058 129.676 723.723 132.194" fill="black"/>
<path d="M216.691 264.904C216.466 265.025 211.157 267.963 209.655 273.976C208.606 278.179 209.646 282.688 212.748 287.378C213.279 288.182 214.157 288.617 215.052 288.617C215.576 288.617 216.105 288.468 216.573 288.158C217.845 287.315 218.193 285.6 217.351 284.327C215.155 281.005 214.363 277.99 214.999 275.366C215.875 271.757 219.24 269.81 219.334 269.757C220.664 269.026 221.156 267.356 220.433 266.018C219.707 264.676 218.031 264.176 216.691 264.904Z" fill="#FFD1F3"/>
<path d="M236.03 238.625C235.565 238.801 231.442 240.484 229.948 245.124C228.68 249.064 229.777 253.693 233.209 258.883C233.74 259.686 234.618 260.122 235.513 260.121C236.037 260.121 236.566 259.973 237.035 259.662C238.306 258.819 238.654 257.105 237.812 255.832C235.409 252.197 234.501 249.1 235.186 246.876C235.852 244.713 237.879 243.839 238.014 243.783C239.422 243.232 240.127 241.647 239.59 240.229C239.049 238.802 237.458 238.082 236.03 238.625Z" fill="#FFD1F3"/>
<path d="M261.72 228.348C259.682 227.12 258.568 225.772 258.41 224.341C258.157 222.057 260.209 219.542 261.023 218.763C262.128 217.719 262.182 215.975 261.142 214.864C260.099 213.75 258.352 213.693 257.24 214.737C256.737 215.209 252.345 219.502 252.917 224.908C253.262 228.16 255.266 230.911 258.874 233.085C259.319 233.353 259.81 233.48 260.294 233.48C261.231 233.48 262.144 233.003 262.663 232.141C263.448 230.833 263.026 229.135 261.72 228.348Z" fill="#FFD1F3"/>
<path d="M296.643 247C291.367 251.352 290.405 256.647 290.405 256.647L308.195 242.848C308.195 242.848 301.92 242.648 296.643 247Z" fill="#FFD1F3"/>
<path d="M280.877 230.999C279.169 229.894 276.891 230.383 275.787 232.093C273.556 235.549 270.182 236.813 267.744 237.265C263.37 238.078 258.371 236.916 254.704 234.236C250.01 230.806 248.513 227.025 249.538 221.188C250.095 218.013 251.887 215.271 255.018 212.804C257.86 210.566 265.25 209.202 270.889 210.727C272.851 211.258 274.872 210.095 275.402 208.13C275.932 206.166 274.771 204.143 272.808 203.612C265.285 201.576 255.47 203.07 250.466 207.013C245.912 210.601 243.16 214.941 242.287 219.912C241.833 222.498 241.764 224.903 242.068 227.146C234.989 226.504 226.819 228.718 222.072 234.883C218.696 239.266 217.247 246.014 217.942 252.115C213.833 252.549 209.344 254.138 207.987 254.87C203.787 257.137 200.393 260.814 198.431 265.225C194.864 273.242 195.657 283.052 200.501 290.827C205.193 298.358 210.548 304.598 216.416 309.375L216.895 309.769C218.564 311.15 220.64 312.868 223.778 313.004C223.921 313.01 224.062 313.012 224.204 313.012C227.373 313.012 230.428 311.514 232.484 310.364C234.954 308.981 238.521 306.749 240.974 303.346C242.86 300.731 243.53 298.28 244.122 296.118C244.341 295.319 244.547 294.565 244.812 293.785C245.165 292.746 245.025 291.662 244.523 290.778C244.462 290.593 244.39 290.407 244.292 290.218C241.808 285.447 237.641 279.816 236.465 278.071C236.182 277.652 236.03 277.303 235.956 277.002C238.699 278.345 241.756 279.016 244.796 279.015C248.715 279.015 252.602 277.907 255.739 275.711C259.116 273.347 264.461 267.667 262.328 256.178L263.058 249.518L266.334 246.174C266.334 246.174 254.862 249.326 255.094 256.178C255.013 256.611 255.006 257.066 255.091 257.525C256.128 263.11 254.893 267.31 251.521 269.671C247.966 272.16 242.33 272.286 238.464 269.999C236.842 268.884 228.479 259.438 226.697 256.215C224.171 251.647 224.757 243.467 227.902 239.383C231.516 234.691 239.192 233.501 244.524 235.06C244.778 235.134 245.034 235.178 245.288 235.197C246.6 237.007 248.285 238.669 250.364 240.189C254.541 243.241 259.745 244.893 264.879 244.893C266.294 244.893 267.704 244.768 269.085 244.512C274.542 243.5 279.117 240.51 281.969 236.094C283.073 234.385 282.584 232.104 280.877 230.999ZM234.664 276.31C234.666 276.311 234.668 276.312 234.67 276.313L234.062 276.904L231.142 276.108C231.142 276.108 238.629 285.65 237.631 292.062C237.628 292.076 237.628 292.088 237.626 292.102C237.401 292.821 237.203 293.511 237.023 294.17C236.494 296.102 236.112 297.498 235.005 299.033C233.407 301.25 230.75 302.89 228.892 303.931C226.783 305.111 225.17 305.692 224.097 305.64C223.457 305.612 222.76 305.061 221.584 304.088L221.06 303.657C215.823 299.394 211.008 293.765 206.747 286.925C203.234 281.287 202.609 273.946 205.156 268.223C206.459 265.293 208.705 262.855 211.48 261.358C212.997 260.539 217.943 259.283 220.04 259.345C220.114 259.49 220.179 259.644 220.257 259.785C222.349 263.569 231.748 274.582 234.664 276.31Z" fill="black"/>
<path d="M578.739 543.162L652.875 281.675L1131.22 171.273C1141.01 169.014 1149.97 177.386 1148.4 187.319L1088.54 565.155L578.739 543.162Z" fill="white" stroke="black" stroke-width="19.8425" stroke-miterlimit="10"/>
<path d="M572.332 537.664L643.83 285.482C645.457 279.742 650.075 275.345 655.882 274.004L1130.15 164.544C1137.38 162.873 1144.01 169.064 1142.85 176.408L1082.13 559.657L572.332 537.664Z" fill="white"/>
<path d="M568.603 540.362C591.189 457.471 616.168 367.747 639.667 284.749C641.13 279.21 644.964 274.295 650.095 271.693C652.685 270.22 656.936 269.46 659.864 268.765C735.649 251.26 878.95 217.89 954.697 200.194C977.586 194.809 1108.62 164.116 1128.84 159.348C1128.91 159.328 1129.07 159.3 1129.21 159.274L1129.63 159.198L1130.48 159.057C1131.04 158.945 1131.63 158.955 1132.2 158.923C1140.54 158.59 1148.05 165.526 1148.39 173.883C1148.6 175.604 1148.11 177.87 1147.89 179.587C1131.71 285.489 1114.04 419.133 1097.14 524.847C1097.14 524.847 1094.26 542.986 1094.26 542.986C1093.42 549.052 1092.47 555.099 1086.67 560.377C1086.67 560.378 1086.03 564.434 1086.03 564.435C935.622 558.57 721.095 547.443 568.603 540.362ZM576.062 534.967C725.65 540.082 934.971 548.905 1082.33 555.053C1082.33 555.054 1077.58 558.935 1077.58 558.935L1077.58 558.933C1073.7 552.118 1074.67 546.073 1075.75 540.046L1078.62 521.906C1095.25 416.185 1119.7 283.555 1137.07 177.87C1137.07 177.87 1137.45 175.605 1137.45 175.605C1137.47 175.362 1137.47 175.214 1137.5 175.015C1137.55 174.825 1137.49 174.648 1137.51 174.464C1137.37 171.412 1134.45 169.105 1131.44 169.755C1111.88 174.232 979.348 204.23 956.815 209.393C880.989 226.714 737.519 259.477 661.753 276.969C661.753 276.969 657.284 278.001 657.284 278.001C656.105 278.255 655.029 278.615 653.967 279.166C650.888 280.746 648.606 283.667 647.759 287.038C624.937 367.97 599.674 454.368 576.062 534.967Z" fill="#494949"/>
<path opacity="0.9" d="M641.816 321.936L1121.16 239.821L1132.79 179.051C1133.31 176.317 1130.85 173.949 1128.14 174.575L656.502 283.591C654.203 284.122 652.37 285.854 651.707 288.121L641.816 321.936Z" fill="#C8C8C8"/>
<path d="M1016.75 127.744C1006.99 122.736 987.695 131.884 976.757 138.137C954.856 150.658 1009.47 165.606 1019.71 160.704C1035.08 153.342 977.796 147.27 989.84 144.876C1001.11 142.636 1000.21 145.007 1009.41 138.137C1015.41 136.022 1020.74 129.795 1016.75 127.744Z" fill="#490000"/>
<path d="M1023.72 107.939L1001.95 206.205C1001.04 210.314 1003.09 214.506 1006.89 216.299L1028.08 226.286C1029.36 226.89 1030.79 227.121 1032.2 226.952L1098.7 218.95C1103.54 218.367 1107.47 214.743 1108.45 209.955L1129.37 107.309C1129.99 104.256 1128.99 101.097 1126.73 98.957L1114.41 87.3139C1112.16 85.1884 1108.79 84.7893 1106.11 86.3317L1055.46 115.475L1029.59 104.866C1027.1 103.847 1024.3 105.315 1023.72 107.939Z" fill="#490000"/>
<path d="M1027.77 112.485L1005.84 204.59C1005.05 207.91 1007.75 211.024 1011.15 210.704L1075.74 204.6C1080.7 204.13 1084.78 200.471 1085.79 195.58L1106.43 95.4259C1106.77 93.7598 1105 92.4628 1103.52 93.2972L1055.17 120.546L1031.44 110.617C1029.91 109.974 1028.16 110.863 1027.77 112.485Z" fill="#F94343"/>
<path d="M1041.7 149.975C1048.23 149.975 1053.53 144.675 1053.53 138.137C1053.53 131.599 1048.23 126.299 1041.7 126.299C1035.17 126.299 1029.88 131.599 1029.88 138.137C1029.88 144.675 1035.17 149.975 1041.7 149.975Z" fill="white"/>
<path d="M1063.95 147.269C1071.33 147.269 1077.3 141.285 1077.3 133.903C1077.3 126.522 1071.33 120.538 1063.95 120.538C1056.58 120.538 1050.6 126.522 1050.6 133.903C1050.6 141.285 1056.58 147.269 1063.95 147.269Z" fill="white"/>
<path d="M1036.61 137.151C1036.93 134.401 1036 132.034 1034.53 131.864C1033.06 131.694 1031.62 133.786 1031.3 136.536C1030.98 139.286 1031.91 141.653 1033.38 141.823C1034.85 141.993 1036.3 139.902 1036.61 137.151Z" fill="#490000"/>
<path d="M1058.06 133.221C1058.38 130.471 1057.44 128.104 1055.98 127.934C1054.51 127.764 1053.06 129.855 1052.74 132.606C1052.42 135.356 1053.36 137.723 1054.83 137.893C1056.29 138.063 1057.74 135.971 1058.06 133.221Z" fill="#490000"/>
<path d="M974.942 143.565C982.165 136.71 1000.47 128.93 1010.31 129.101C1010.95 129.112 1011.22 129.908 1010.74 130.323C1009.33 131.534 1006.48 132.12 1005.06 131.597C1003.96 134.39 1000.04 134.605 997.528 134.025C994.84 137.904 991.858 137.749 987.469 138.64C983.56 139.163 980.03 141.397 976.994 143.807C976.656 144.127 974.602 144.611 974.942 143.565Z" fill="#F94343"/>
<path d="M1066.93 169.987C1070.59 163.925 1065.85 156.213 1062.34 161.909C1058.82 167.604 1060.12 170.221 1060.12 170.221C1060.12 170.221 1062.48 167.557 1064.21 168.39C1065.94 169.223 1066.93 169.987 1066.93 169.987Z" fill="#490000"/>
<path d="M801.089 337.387C801.089 337.387 811.217 309.63 810.713 306.096C810.208 302.562 808.528 299.701 803.317 301.216C798.106 302.73 801.089 337.387 801.089 337.387Z" fill="#707070"/>
<path d="M944.309 283.098L936.195 321.261L928.812 321.936L933.511 286.628C934.17 281.673 929.854 277.493 924.93 278.318L831.374 293.985C826.76 294.757 823.084 298.27 822.097 302.848L815.116 335.229C815.116 335.229 802.196 336.338 801.089 337.387C800.42 338.02 804.198 319.505 807.293 304.749C807.997 301.394 805.108 298.383 801.731 298.949L736.872 309.81C732.274 310.58 728.641 314.138 727.772 318.724L722.68 345.577L712.495 346.958L718.085 318.69C718.652 315.824 716.181 313.275 713.302 313.757L649.804 324.391C644.945 325.205 641.017 328.802 639.775 333.575L632.392 361.963L1104.15 314.551L1115.97 259.539C1117.39 252.964 1111.73 247.035 1105.11 248.145L954.46 273.372C949.403 274.219 945.377 278.076 944.309 283.098Z" fill="#C8C8C8"/>
<path d="M962.575 286.717L994.963 278.2C994.963 278.2 991.389 307.49 976.65 308.161C961.91 308.832 962.575 286.717 962.575 286.717Z" fill="white"/>
<path opacity="0.9" d="M967.725 289.629C965.492 293.223 967.625 301.176 970.834 299.368C974.043 297.561 974.444 294.95 974.244 291.637C974.043 288.324 970.533 285.11 967.725 289.629Z" fill="#707070"/>
<path d="M998.815 277.479C998.815 277.479 1000.32 303.786 1015.26 301.879C1030.21 299.971 1030.81 275.973 1030.81 275.973L998.815 277.479Z" fill="white"/>
<path opacity="0.9" d="M1001.75 283.524C1000.48 287.561 1004.52 294.734 1007.18 292.185C1009.84 289.636 1009.58 287.007 1008.56 283.848C1007.55 280.688 1003.35 278.449 1001.75 283.524Z" fill="#707070"/>
<path d="M886.239 294.726C886.239 294.726 887.618 318.837 901.313 317.089C915.009 315.34 915.561 293.345 915.561 293.345L886.239 294.726Z" fill="white"/>
<path opacity="0.9" d="M888.929 300.266C887.763 303.965 891.466 310.54 893.904 308.204C896.342 305.868 896.105 303.459 895.173 300.563C894.241 297.667 890.394 295.614 888.929 300.266Z" fill="#707070"/>
<path d="M870.796 299.073L860.09 302.191C857.039 303.079 855.054 306.019 855.367 309.184L855.891 314.479L880.183 305.262C879.625 300.745 875.161 297.802 870.796 299.073Z" fill="white"/>
<path opacity="0.9" d="M857.736 313.667C857.736 313.667 855.28 306.266 859.732 304.365C864.184 302.463 865.891 310.573 865.891 310.573L857.736 313.667Z" fill="#707070"/>
<path d="M731.406 327.711L748.829 324.609C748.829 324.609 750.454 309.098 740.6 312.506C730.745 315.913 731.406 327.711 731.406 327.711Z" fill="white"/>
<path d="M772.081 318.82C772.081 325.204 767.699 331.087 762.292 331.96C756.886 332.833 752.504 328.366 752.504 321.981C752.504 315.597 756.886 309.714 762.292 308.841C767.699 307.968 772.081 312.436 772.081 318.82Z" fill="white"/>
<path d="M733.284 327.377C733.249 326.983 732.939 321.882 736.171 320.822C739.403 319.762 739.699 326.235 739.699 326.235L733.284 327.377Z" fill="#707070"/>
<path d="M670.049 343.543L688.969 342.015C688.969 342.015 692.29 325.62 681.42 328.249C670.549 330.878 670.049 343.543 670.049 343.543Z" fill="white"/>
<path d="M672.088 343.378C672.092 342.954 672.282 337.476 675.841 336.675C679.4 335.874 679.055 342.816 679.055 342.816L672.088 343.378Z" fill="#707070"/>
<path d="M756.077 316.781C752.899 319.113 752.667 326.837 757.878 326.453C759.074 326.364 759.503 325.317 760.096 324.384C760.765 323.334 761.099 322.135 761.175 320.887C761.278 319.189 760.614 317.561 759.319 316.513C758.366 315.742 757.184 315.811 756.077 316.781Z" fill="#707070"/>
<path d="M642.389 341.39L640.21 345.826L667.945 343.842L642.389 341.39Z" fill="#707070"/>
<path d="M964.21 223.429L981.114 235.359L960.885 258.11" stroke="white" stroke-width="8.5039" stroke-linecap="round" stroke-linejoin="round"/>
<path d="M981.114 235.359L951.486 241.848" stroke="white" stroke-width="8.5039" stroke-linecap="round" stroke-linejoin="round"/>
<path d="M929.063 262.093L912.159 250.163L932.065 233.082" stroke="white" stroke-width="8.5039" stroke-linecap="round" stroke-linejoin="round"/>
<path d="M912.159 250.163L941.787 243.674" stroke="white" stroke-width="8.5039" stroke-linecap="round" stroke-linejoin="round"/>
<path d="M674.527 297.264C673.792 302.652 668.638 308.079 663.015 309.387C657.392 310.695 653.43 307.388 654.165 302C654.901 296.612 660.055 291.184 665.678 289.877C671.301 288.569 675.263 291.876 674.527 297.264Z" fill="white"/>
<path d="M689.447 283.634L684.879 306.627C684.879 306.627 886.669 271.149 887.336 270.039C888.004 268.93 892.27 238.604 892.27 238.604L689.447 283.634Z" fill="white"/>
<g clip-path="url(#clip1_172_47)">
<path d="M583.542 359.27C605.228 354.346 618.821 332.753 613.902 311.041C608.983 289.329 587.415 275.72 565.729 280.645C544.043 285.569 530.45 307.162 535.369 328.874C540.288 350.586 561.855 364.195 583.542 359.27Z" fill="white"/>
<mask id="mask1_172_47" style="mask-type:luminance" maskUnits="userSpaceOnUse" x="534" y="279" width="81" height="82">
<path d="M583.542 359.27C605.228 354.346 618.821 332.753 613.902 311.041C608.983 289.329 587.415 275.72 565.729 280.645C544.043 285.569 530.45 307.162 535.369 328.874C540.288 350.586 561.855 364.195 583.542 359.27Z" fill="white"/>
</mask>
<g mask="url(#mask1_172_47)">
<path d="M619.227 316.986C616.583 303.887 606.105 294.954 595.823 297.034C585.541 299.114 579.349 311.42 581.992 324.519C584.636 337.618 595.115 346.551 605.397 344.47C615.679 342.39 621.871 330.085 619.227 316.986Z" fill="#84EF41"/>
<path d="M611.113 318.627C609.622 311.237 603.71 306.197 597.909 307.371C592.107 308.544 588.614 315.487 590.106 322.877C591.597 330.268 597.509 335.308 603.31 334.134C609.111 332.961 612.605 326.018 611.113 318.627Z" fill="black"/>
<path d="M601.379 305.878C600.795 302.985 598.481 301.013 596.211 301.472C593.941 301.931 592.573 304.648 593.157 307.541C593.741 310.433 596.055 312.406 598.325 311.947C600.596 311.487 601.963 308.77 601.379 305.878Z" fill="white"/>
<path d="M593.302 313.794C592.931 311.953 591.458 310.698 590.013 310.99C588.569 311.282 587.699 313.011 588.07 314.852C588.442 316.693 589.914 317.948 591.359 317.656C592.804 317.363 593.674 315.634 593.302 313.794Z" fill="white"/>
</g>
</g>
<path d="M535.426 338.015L624.204 292.528L589.438 252.913L530.383 299.785L535.426 338.015Z" fill="#FF90D6"/>
<path d="M624.204 292.528C624.204 292.528 601.406 294.914 580.78 304.03C560.153 313.145 535.426 338.015 535.426 338.015L624.204 292.528Z" fill="#E24DB0"/>
<path d="M501.882 393.615C466.37 401.687 450.186 379.504 446.471 353.567C442.756 327.631 527.788 317.549 532.316 345.779C536.844 374.008 522.768 388.868 501.882 393.615Z" fill="#FFD1F3"/>
<path d="M472.372 303.37C506.542 289.606 526.877 309.14 535.383 334.423C543.889 359.706 456.273 386.174 446.529 358.733C436.784 331.292 452.276 311.464 472.372 303.37Z" fill="#E24DB0"/>
<g clip-path="url(#clip2_172_47)">
<path d="M492.839 390.81C516.795 387.74 533.901 367.149 531.046 344.818C528.192 322.487 506.457 306.874 482.5 309.944C458.544 313.014 441.438 333.605 444.293 355.936C447.148 378.266 468.883 393.88 492.839 390.81Z" fill="white"/>
<mask id="mask2_172_47" style="mask-type:luminance" maskUnits="userSpaceOnUse" x="443" y="309" width="89" height="83">
<path d="M492.839 390.81C516.795 387.74 533.901 367.149 531.046 344.818C528.192 322.487 506.457 306.874 482.5 309.944C458.544 313.014 441.438 333.605 444.293 355.936C447.148 378.266 468.883 393.88 492.839 390.81Z" fill="white"/>
</mask>
<g mask="url(#mask2_172_47)">
<path d="M536.121 351.281C534.747 337.837 524.45 327.91 513.121 329.108C501.791 330.307 493.72 342.177 495.093 355.621C496.466 369.065 506.763 378.992 518.093 377.793C529.422 376.595 537.494 364.725 536.121 351.281Z" fill="#84EF41"/>
<path d="M527.181 352.226C526.406 344.641 520.596 339.04 514.204 339.717C507.812 340.393 503.258 347.09 504.033 354.675C504.807 362.26 510.617 367.861 517.009 367.185C523.401 366.509 527.955 359.812 527.181 352.226Z" fill="black"/>
<path d="M518.117 338.514C517.814 335.546 515.54 333.354 513.039 333.618C510.537 333.883 508.755 336.504 509.058 339.473C509.361 342.441 511.635 344.633 514.137 344.369C516.638 344.104 518.421 341.483 518.117 338.514Z" fill="white"/>
<path d="M508.508 345.792C508.315 343.903 506.868 342.508 505.276 342.677C503.684 342.845 502.55 344.513 502.743 346.402C502.936 348.291 504.383 349.686 505.975 349.518C507.567 349.35 508.701 347.682 508.508 345.792Z" fill="white"/>
</g>
</g>
<path d="M426.47 293.97L431.189 305.514C431.189 305.514 484.771 300.867 513.804 305.384C513.804 305.384 489.505 286.042 426.47 293.97Z" fill="#E24DB0"/>
<path opacity="0.5" d="M420.021 418.606C420.021 418.606 460.791 429.181 480.09 432.563C499.39 435.944 524.482 444.616 524.482 444.616C524.482 444.616 485.398 446.571 463.445 437.876C441.492 429.181 420.021 418.606 420.021 418.606Z" fill="#84EF41"/>
<path d="M525.519 444.746C525.519 444.746 461.859 437.121 418.633 418.606C418.633 418.606 430.934 436.207 473.643 446.315C516.352 456.422 525.519 444.746 525.519 444.746Z" fill="black"/>
<path d="M789.756 213.652C778.614 211.576 765.845 210.167 757.882 220.709C753.622 226.349 751.126 235.3 753.592 242.25C755.58 247.854 763.309 252.462 768.914 253.532C774.765 254.648 781.679 254.183 787.294 252.317C793.17 250.364 795.755 247.574 800.113 244.054C799.708 249.558 810.142 250.65 813.761 250.465C821.541 250.066 829.496 247.315 835.703 242.505C839.025 239.93 842.716 236.219 844.297 232.934C843.402 240.642 855.099 242.57 860.683 242.489C871.483 242.332 881.734 235.172 886.419 225.908C888.489 221.814 890.375 216.713 893.08 213.086C896.256 214.558 904.652 215.943 906.874 212.754C908.479 210.451 907.952 204.265 907.747 201.65C907.341 196.473 904.435 191.608 901.451 187.493C888.343 169.413 861.33 170.595 852.487 191.883C850.226 186.938 841.547 185.654 836.757 185.423C827.625 184.982 822.14 186.599 814.507 191.257C808.656 194.829 804.478 200.135 799.556 204.831C796.696 207.559 792.566 213.016 788.914 214.273C789.227 213.632 789.605 212.974 789.756 213.652Z" fill="black"/>
<path d="M848.591 201.327C845.506 201.762 840.694 198.528 837.68 197.566C833.605 196.264 829.194 195.194 824.675 195.82C816.506 196.952 808.617 203.382 803.444 209.307C803.417 209.338 803.39 209.369 803.363 209.4C797.684 215.875 789.24 219.096 780.657 218.468C779.637 218.393 778.608 218.362 777.572 218.395C770.979 218.607 763.133 223.037 761.247 229.692C759.431 236.101 763.408 243.029 769.647 245.081C778.083 247.855 783.788 244.422 790.807 240.982C800.165 236.396 800.404 228.094 804.126 220.998C802.84 226.113 796.498 241.577 806.458 244.09C816.796 246.699 829.436 235.269 836.117 229.109C840.524 225.045 843.344 219.421 846.444 214.644C846.795 219.012 844.95 225.031 846.646 229.087C848.533 233.599 855.658 233.773 859.924 233.104C865.914 232.166 872.735 227.84 876.047 222.965C879.503 217.878 881.13 211.463 885.43 206.897C886.921 205.315 889.169 203.464 891.683 203.932C893.344 204.241 894.008 205.992 895.783 205.636C896.461 194.78 890.144 185.134 878.592 184.538C870.622 184.127 862.341 187.946 857.423 194.096C854.95 197.189 853.081 202.506 848.227 201.862C848.051 201.592 848.172 201.413 848.591 201.327Z" fill="#FF90D6"/>
<path d="M849.813 214.491C849.813 214.491 843.991 232.672 853.797 228.991C863.602 225.309 870.343 216.698 870.956 210.727L849.813 214.491Z" fill="#FFD1F3"/>
<path d="M805.485 218.253C805.485 218.253 796.191 238.66 808.141 235.359C820.091 232.058 826.832 215.762 826.832 215.762L805.485 218.253Z" fill="#FFD1F3"/>
<path d="M761.247 229.692C761.247 229.692 773.823 224.31 782.709 223.429C791.595 222.548 779.874 215.548 771.978 220.105C764.082 224.661 761.247 229.692 761.247 229.692Z" fill="#FFD1F3"/>
<path d="M648.368 385.469L640.322 386.405L641.533 382.068L663.596 379.434L662.453 383.829L654.245 384.784L649.111 404L643.155 404.615L648.368 385.469Z" fill="#888888"/>
<path d="M661.807 391.024C663.622 384.018 670.937 378.17 679.185 377.183C687.492 376.188 692.494 380.631 690.818 387.793C689.12 395.047 681.533 401.068 673.078 401.938C664.685 402.8 659.969 398.118 661.807 391.024ZM684.507 388.496C685.597 383.944 682.765 381.268 678.042 381.818C673.349 382.365 669.063 385.837 667.919 390.343C666.766 394.885 669.519 397.638 674.263 397.135C679.039 396.628 683.408 393.084 684.507 388.496Z" fill="#888888"/>
<path d="M693.842 387.457C695.495 380.316 702.962 374.337 711.587 373.305C720.274 372.265 725.693 376.773 724.194 384.076C722.676 391.475 714.924 397.634 706.072 398.545C697.287 399.448 692.167 394.689 693.842 387.457ZM717.589 384.812C718.568 380.171 715.496 377.453 710.555 378.029C705.647 378.601 701.272 382.151 700.234 386.744C699.188 391.376 702.178 394.173 707.143 393.646C712.141 393.115 716.602 389.491 717.589 384.812Z" fill="#888888"/>
<path d="M763.519 392.685L767.402 377.564L756.37 390.65L753.623 390.881L749.253 379.55L745.236 394.183L739.604 394.645L746.477 370.027L751.359 369.542L756.919 383.902L770.637 367.629L775.654 367.13L769.348 392.208L763.519 392.685Z" fill="#888888"/>
<path d="M795.216 384.643L782.425 385.739L778.655 391.445L772.206 391.974L790.498 365.657L796.709 365.04L803.227 389.432L796.394 389.992L795.216 384.643ZM794.257 380.308L792.203 371.018L785.546 381.082L794.257 380.308Z" fill="#888888"/>
<path d="M837.942 360.947L832.693 387.019L827.122 387.475L816.142 372.88L812.701 388.657L806.183 389.19L811.921 363.53L817.276 362.999L828.137 377.226L831.371 361.599L837.942 360.947Z" fill="#888888"/>
<path d="M855.853 375.771L854.113 385.263L847.134 385.835L848.936 376.307L840.798 360.664L847.957 359.953L853.668 370.732L863.763 358.384L870.585 357.707L855.853 375.771Z" fill="#888888"/>
<path d="M895.241 360.21L886.866 360.834L888.208 356.026L911.18 354.238L909.911 359.119L901.359 359.755L895.656 381.103L889.453 381.471L895.241 360.21Z" fill="#888888"/>
<path d="M926.057 373.56L913.195 374.376L909.292 380.294L902.811 380.678L921.712 353.418L927.958 352.932L934.003 378.828L927.13 379.236L926.057 373.56ZM925.183 368.964L923.313 359.114L916.424 369.547L925.183 368.964Z" fill="#888888"/>
<path d="M965.262 369.477C964.248 374.275 959.604 377.309 951.898 377.766L936.977 378.651L943.258 351.741L957.091 350.664C964.272 350.105 967.4 352.609 966.507 356.804C965.93 359.514 963.98 361.719 961.354 363.051C964.399 363.802 965.996 366.011 965.262 369.477ZM958.576 369.248C959.078 366.935 957.446 365.966 953.969 366.2L946.206 366.722L944.669 373.462L952.468 372.973C955.961 372.755 958.063 371.61 958.576 369.248ZM948.683 355.859L947.245 362.168L953.831 361.705C957.085 361.476 959.1 360.267 959.563 358.145C960.025 356.031 958.482 355.128 955.241 355.369L948.683 355.859Z" fill="#888888"/>
<path d="M967.12 374.139L970.463 369.141C972.619 370.689 976.137 371.649 979.746 371.423C983.893 371.164 985.835 369.772 986.17 368.05C987.184 362.83 969.082 367.553 971.205 357.377C972.165 352.778 976.974 348.663 985.37 348.007C989.112 347.715 992.804 348.228 995.294 349.606L992.222 354.576C989.706 353.333 986.973 352.846 984.328 353.043C980.251 353.349 978.403 354.862 978.056 356.573C977.031 361.62 995.198 356.883 993.269 367.115C992.379 371.833 987.359 376.145 978.661 376.658C973.879 376.94 969.357 375.899 967.12 374.139Z" fill="#888888"/>
<path d="M1013.08 354.066C1013.42 352.119 1011.73 351.033 1008.87 351.247C1006.06 351.458 1003.71 352.721 1001.98 354.639L997.23 352.234C1000.17 348.848 1004.63 346.502 1010.53 346.042C1017.14 345.524 1021.32 347.81 1020.53 352.5C1019.45 358.918 1011.8 360.162 1011.06 364.439L1004.34 364.881C1005.35 359.262 1012.48 357.538 1013.08 354.066ZM1002.28 371.423C1002.66 369.348 1004.71 367.694 1007.2 367.534C1009.71 367.374 1011.23 368.808 1010.87 370.894C1010.51 372.945 1008.42 374.739 1005.9 374.888C1003.4 375.036 1001.91 373.463 1002.28 371.423Z" fill="#888888"/>
<mask id="mask3_172_47" style="mask-type:luminance" maskUnits="userSpaceOnUse" x="775" y="360" width="446" height="130">
<path d="M1220.41 360.511H775.52V489.243H1220.41V360.511Z" fill="white"/>
</mask>
<g mask="url(#mask3_172_47)">
<path d="M782.257 427.94C786.698 446.458 791.138 464.977 795.579 483.495C896.406 459.486 1001.11 453.315 1104 466.032C1136.42 470.039 1168.57 475.929 1200.35 483.496C1204.79 464.977 1209.23 446.458 1213.67 427.94C1179.56 419.814 1145.06 413.503 1110.26 409.237C1000.82 395.822 889.489 402.391 782.257 427.94Z" fill="#0EBE00"/>
<path d="M808.939 436.595C804.896 437.453 800.86 438.344 796.83 439.257C796.456 437.605 796.269 436.78 795.895 435.128C805.664 432.93 815.459 430.876 825.288 428.963C825.607 430.626 825.767 431.457 826.087 433.12C822.033 433.899 817.984 434.711 813.941 435.546C815.95 445.283 817.959 455.02 819.968 464.757C818.032 465.158 817.064 465.361 815.129 465.772C813.066 456.046 811.002 446.321 808.939 436.595Z" fill="white"/>
<path d="M855.886 449.477C849.726 450.487 843.577 451.551 837.435 452.67C836.677 455.693 835.93 458.719 835.196 461.748C833.176 462.129 832.166 462.322 830.148 462.715C833.189 450.524 836.41 438.383 839.808 426.287C841.828 425.932 842.839 425.757 844.86 425.414C852.131 435.662 859.245 446.014 866.204 456.477C864.136 456.791 863.102 456.951 861.035 457.277C859.329 454.67 857.613 452.07 855.886 449.477ZM853.518 445.919C850.095 440.838 846.64 435.779 843.153 430.742C841.556 436.659 839.996 442.586 838.473 448.523C843.483 447.621 848.497 446.753 853.518 445.919Z" fill="white"/>
<path d="M903.372 451.65C902.467 443.427 901.562 435.205 900.657 426.983C897.132 434.285 893.685 441.621 890.314 448.995C889.401 449.107 888.945 449.164 888.032 449.278C882.969 442.999 877.842 436.777 872.647 430.607C873.785 438.751 874.923 446.896 876.06 455.04C874.167 455.305 873.221 455.44 871.328 455.716C869.696 444.48 868.064 433.244 866.432 422.009C868.111 421.764 868.951 421.644 870.63 421.407C876.692 428.591 882.66 435.848 888.537 443.184C892.381 434.644 896.329 426.156 900.382 417.714C902.067 417.532 902.91 417.444 904.596 417.27C905.771 428.563 906.946 439.856 908.12 451.149C906.221 451.344 905.271 451.444 903.372 451.65Z" fill="white"/>
<path d="M943.433 443.996C943.537 445.687 943.589 446.532 943.693 448.222C935.292 448.757 926.9 449.397 918.515 450.143C917.491 438.835 916.467 427.528 915.443 416.22C923.913 415.467 932.388 414.817 940.874 414.27C940.98 415.96 941.032 416.805 941.138 418.495C934.402 418.929 927.672 419.426 920.946 419.986C921.24 423.461 921.535 426.936 921.83 430.411C927.754 429.918 933.68 429.473 939.611 429.076C939.718 430.727 939.772 431.552 939.879 433.203C933.975 433.598 928.077 434.041 922.18 434.532C922.49 438.184 922.8 441.837 923.11 445.489C929.88 444.926 936.653 444.428 943.433 443.996Z" fill="white"/>
<path d="M966.684 422.299C966.757 424.412 966.794 425.469 966.867 427.582C965.127 427.643 964.257 427.675 962.518 427.744C962.433 425.605 962.391 424.536 962.307 422.398C960.21 419.345 958.1 416.302 955.978 413.266C957.843 413.181 958.776 413.14 960.642 413.064C962.22 415.343 963.004 416.485 964.563 418.771C965.95 416.376 966.648 415.18 968.054 412.791C969.769 412.734 970.627 412.708 972.342 412.66C970.442 415.865 968.557 419.078 966.684 422.299Z" fill="white"/>
<path d="M972.193 420.039C972.063 415.574 976.56 412.322 980.665 412.17C984.93 412.011 989.387 415.15 989.428 419.713C989.469 424.218 985.194 427.496 980.955 427.5C976.871 427.504 972.321 424.447 972.193 420.039ZM984.997 419.765C984.961 417.217 983.089 415.579 980.73 415.623C978.371 415.668 976.563 417.376 976.623 419.924C976.683 422.471 978.552 424.091 980.889 424.046C983.227 424.002 985.033 422.313 984.997 419.765Z" fill="white"/>
<path d="M991.604 420.495C991.585 417.771 991.566 415.047 991.547 412.323C993.315 412.311 994.2 412.307 995.969 412.303C995.975 414.985 995.981 417.667 995.987 420.349C995.992 422.876 997.097 423.883 998.927 423.885C1000.74 423.887 1001.84 422.882 1001.85 420.355C1001.87 417.673 1001.88 414.991 1001.89 412.309C1003.63 412.316 1004.5 412.323 1006.24 412.338C1006.22 415.062 1006.19 417.786 1006.17 420.51C1006.23 424.645 1002.8 427.412 998.88 427.339C995.065 427.269 991.375 424.713 991.604 420.495Z" fill="white"/>
<path d="M1015.86 423.304C1014.9 423.285 1014.43 423.276 1013.47 423.26C1013.45 424.827 1013.43 425.61 1013.41 427.177C1011.66 427.147 1010.79 427.134 1009.05 427.113C1009.11 422.199 1009.18 417.284 1009.24 412.37C1012.09 412.406 1013.52 412.429 1016.38 412.487C1019.79 412.581 1023.24 414.352 1023.18 418.106C1023.14 420.25 1021.97 421.843 1020.02 422.68C1021.31 424.565 1021.95 425.509 1023.23 427.399C1021.36 427.347 1020.43 427.323 1018.57 427.28C1017.49 425.688 1016.95 424.893 1015.86 423.304ZM1016.05 415.766C1015.07 415.747 1014.58 415.738 1013.6 415.721C1013.57 417.448 1013.56 418.311 1013.53 420.038C1014.5 420.055 1014.99 420.064 1015.96 420.083C1017.78 420.119 1018.71 419.341 1018.74 417.993C1018.77 416.625 1017.87 415.802 1016.05 415.766Z" fill="white"/>
<path d="M1046.55 424.309C1046.37 427.524 1042.58 428.283 1040.01 428.029C1037.24 427.898 1034.47 427.781 1031.7 427.678C1031.89 422.767 1032.07 417.856 1032.26 412.945C1034.92 413.044 1037.59 413.156 1040.25 413.281C1042.71 413.268 1046.3 414.387 1046.16 417.434C1046.09 418.833 1045.27 419.938 1043.91 420.523C1045.63 421.2 1046.65 422.526 1046.55 424.309ZM1036.51 416.129C1036.46 417.266 1036.43 417.834 1036.38 418.97C1037.59 419.021 1038.19 419.048 1039.4 419.103C1040.86 419.17 1041.64 418.723 1041.69 417.777C1041.73 416.851 1041 416.33 1039.53 416.263C1038.32 416.207 1037.72 416.181 1036.51 416.129ZM1042.16 423.619C1042.21 422.609 1041.44 422.086 1039.93 422.016C1038.46 421.948 1037.73 421.915 1036.26 421.853C1036.21 423.048 1036.19 423.646 1036.14 424.841C1037.6 424.903 1038.33 424.936 1039.79 425.004C1041.29 425.073 1042.11 424.629 1042.16 423.619Z" fill="white"/>
<path d="M1048.21 421.067C1048.45 416.605 1053.21 413.744 1057.31 413.936C1061.58 414.137 1065.76 417.636 1065.42 422.188C1065.08 426.683 1060.54 429.589 1056.32 429.237C1052.25 428.898 1047.97 425.472 1048.21 421.067ZM1060.99 421.869C1061.17 419.326 1059.44 417.536 1057.09 417.383C1054.73 417.23 1052.79 418.78 1052.63 421.324C1052.48 423.868 1054.21 425.638 1056.54 425.79C1058.88 425.942 1060.82 424.411 1060.99 421.869Z" fill="white"/>
<path d="M1066.92 422.301C1067.26 417.844 1072.07 415.083 1076.17 415.361C1080.43 415.649 1084.55 419.234 1084.11 423.779C1083.68 428.267 1079.08 431.077 1074.86 430.638C1070.8 430.214 1066.59 426.701 1066.92 422.301ZM1079.69 423.368C1079.92 420.829 1078.23 419.004 1075.88 418.802C1073.52 418.6 1071.55 420.11 1071.34 422.65C1071.13 425.19 1072.83 426.996 1075.16 427.196C1077.49 427.396 1079.46 425.906 1079.69 423.368Z" fill="white"/>
<path d="M1092.15 426.617C1091.43 427.21 1091.07 427.507 1090.35 428.103C1090.2 429.569 1090.13 430.302 1089.98 431.769C1088.26 431.592 1087.4 431.506 1085.69 431.338C1086.17 426.447 1086.64 421.556 1087.12 416.665C1088.87 416.836 1089.74 416.923 1091.48 417.103C1091.23 419.542 1091.11 420.761 1090.86 423.2C1093.07 421.374 1095.29 419.555 1097.51 417.744C1099.45 417.957 1100.42 418.066 1102.36 418.289C1100 420.208 1097.65 422.135 1095.3 424.071C1097.22 427.027 1099.12 429.995 1101 432.974C1098.99 432.741 1097.99 432.628 1095.97 432.407C1094.46 430.088 1093.69 428.929 1092.15 426.617Z" fill="white"/>
<path d="M1115.95 434.826C1116.28 432.242 1116.6 429.658 1116.93 427.074C1115.33 428.998 1113.74 430.929 1112.16 432.867C1111.39 432.768 1111 432.72 1110.23 432.623C1108.97 429.985 1108.34 428.667 1107.05 426.033L1106.14 433.582C1104.54 433.387 1103.74 433.292 1102.14 433.105C1102.71 428.224 1103.28 423.343 1103.85 418.461C1105.3 418.63 1106.02 418.716 1107.47 418.891C1108.95 421.923 1110.41 424.963 1111.86 428.01C1113.98 425.416 1116.11 422.832 1118.26 420.26C1119.71 420.453 1120.43 420.55 1121.88 420.748C1121.22 425.619 1120.57 430.49 1119.92 435.361C1118.33 435.144 1117.54 435.037 1115.95 434.826Z" fill="white"/>
<path d="M1133.63 434.45C1131.04 434.056 1129.75 433.864 1127.16 433.489C1126.51 434.553 1126.19 435.085 1125.55 436.151C1123.79 435.898 1122.91 435.774 1121.14 435.53C1124.07 430.97 1127.03 426.427 1130.01 421.9C1131.74 422.153 1132.6 422.281 1134.33 422.542C1135.88 427.742 1137.4 432.95 1138.89 438.167C1137.09 437.882 1136.19 437.742 1134.4 437.466C1134.09 436.26 1133.94 435.656 1133.63 434.45ZM1132.82 431.218C1132.31 429.232 1132.06 428.24 1131.54 426.255C1130.47 428.004 1129.93 428.879 1128.87 430.631C1130.45 430.862 1131.24 430.979 1132.82 431.218Z" fill="white"/>
<path d="M1147.41 435.59C1146.47 435.432 1145.99 435.353 1145.05 435.197C1144.79 436.743 1144.67 437.516 1144.41 439.062C1142.69 438.777 1141.83 438.637 1140.1 438.361C1140.88 433.508 1141.66 428.656 1142.43 423.803C1145.26 424.257 1146.68 424.489 1149.51 424.965C1152.87 425.557 1156.04 427.809 1155.43 431.521C1155.09 433.637 1153.69 435.04 1151.64 435.584C1152.64 437.638 1153.14 438.666 1154.13 440.723C1152.29 440.398 1151.37 440.237 1149.52 439.922C1148.68 438.188 1148.26 437.322 1147.41 435.59ZM1148.7 428.161C1147.73 427.998 1147.25 427.918 1146.28 427.757C1146 429.461 1145.85 430.313 1145.57 432.017C1146.54 432.177 1147.02 432.257 1147.99 432.419C1149.78 432.721 1150.82 432.087 1151.04 430.759C1151.27 429.409 1150.51 428.465 1148.7 428.161Z" fill="white"/>
<path d="M1163.03 436.898C1162.26 437.432 1161.88 437.7 1161.11 438.236C1160.85 439.686 1160.71 440.411 1160.45 441.861C1158.75 441.548 1157.9 441.394 1156.19 441.089C1157.06 436.252 1157.92 431.414 1158.78 426.576C1160.51 426.886 1161.38 427.043 1163.11 427.36C1162.67 429.772 1162.45 430.977 1162 433.389C1164.36 431.745 1166.72 430.109 1169.08 428.48C1171.01 428.847 1171.97 429.033 1173.89 429.41C1171.38 431.135 1168.87 432.868 1166.37 434.611C1168.06 437.711 1169.73 440.822 1171.38 443.941C1169.38 443.549 1168.39 443.356 1166.39 442.975C1165.06 440.542 1164.39 439.327 1163.03 436.898Z" fill="white"/>
<path d="M1171.37 442.588C1172.17 441.492 1172.57 440.944 1173.38 439.849C1174.56 440.964 1176.36 441.925 1178.11 442.284C1179.89 442.647 1180.87 442.126 1180.83 441.617C1180.61 438.933 1172.39 438.826 1173.35 433.876C1173.98 430.651 1178.24 429.872 1181.1 430.555C1183.02 431.015 1185.08 431.829 1186.42 432.973C1185.63 434.072 1185.23 434.622 1184.45 435.722C1183.13 434.673 1181.76 434.002 1180.43 433.728C1178.61 433.356 1177.62 434.035 1177.69 434.525C1178 436.914 1186.23 437.361 1185.13 442.195C1184.38 445.514 1180.41 446.057 1177.45 445.458C1174.96 444.957 1172.62 443.82 1171.37 442.588Z" fill="white"/>
<path d="M969.488 444.776C966.937 444.858 965.662 444.904 963.111 445.005C962.683 446.169 962.469 446.75 962.043 447.915C960.309 447.986 959.441 448.023 957.707 448.103C959.702 443.087 961.726 438.084 963.778 433.091C965.481 433.026 966.332 432.995 968.036 432.938C970.447 437.771 972.83 442.616 975.187 447.475C973.417 447.521 972.532 447.546 970.762 447.601C970.254 446.471 970 445.905 969.488 444.776ZM968.135 441.744C967.294 439.884 966.871 438.954 966.021 437.097C965.306 439.011 964.95 439.968 964.244 441.884C965.8 441.824 966.579 441.796 968.135 441.744Z" fill="white"/>
<path d="M990.575 432.467C990.616 437.381 990.656 442.296 990.697 447.21C989.296 447.222 988.595 447.229 987.194 447.246C984.945 444.65 982.681 442.067 980.401 439.498C980.452 442.116 980.504 444.734 980.556 447.352C978.889 447.385 978.056 447.404 976.389 447.445C976.268 442.532 976.148 437.619 976.027 432.706C977.451 432.671 978.163 432.655 979.588 432.625C981.887 435.193 984.17 437.773 986.439 440.368C986.405 437.749 986.371 435.131 986.337 432.512C988.032 432.49 988.88 432.481 990.575 432.467Z" fill="white"/>
<path d="M993.632 432.447C996.524 432.433 997.97 432.432 1000.86 432.441C1005.2 432.243 1009.37 435.324 1009.31 439.881C1009.25 444.382 1005.13 447.408 1000.82 447.185C997.97 447.175 996.548 447.176 993.704 447.19C993.68 442.276 993.656 437.361 993.632 432.447ZM1000.65 443.856C1003.22 443.864 1004.96 442.384 1004.98 439.836C1005 437.287 1003.27 435.776 1000.68 435.768C999.59 435.765 999.046 435.764 997.958 435.764C997.958 438.46 997.958 441.156 997.958 443.852C999.036 443.852 999.575 443.853 1000.65 443.856Z" fill="white"/>
<path d="M1021.2 436.047C1019.33 435.998 1018.39 435.976 1016.52 435.937C1016.55 434.614 1016.56 433.953 1016.59 432.631C1021.15 432.734 1025.72 432.864 1030.28 433.021C1030.23 434.343 1030.21 435.004 1030.16 436.326C1028.3 436.259 1027.37 436.227 1025.51 436.17C1025.39 439.98 1025.27 443.79 1025.15 447.601C1023.45 447.548 1022.6 447.524 1020.9 447.479C1021 443.669 1021.1 439.858 1021.2 436.047Z" fill="white"/>
<path d="M1040.79 445.357C1038.24 445.233 1036.97 445.176 1034.42 445.07C1033.9 446.195 1033.64 446.758 1033.12 447.884C1031.38 447.814 1030.52 447.782 1028.78 447.721C1031.18 442.883 1033.6 438.059 1036.04 433.249C1037.75 433.322 1038.6 433.36 1040.3 433.441C1042.31 438.453 1044.3 443.475 1046.26 448.509C1044.49 448.411 1043.6 448.365 1041.84 448.277C1041.42 447.109 1041.21 446.525 1040.79 445.357ZM1039.69 442.226C1039 440.304 1038.65 439.343 1037.96 437.423C1037.09 439.273 1036.66 440.198 1035.8 442.05C1037.36 442.117 1038.13 442.152 1039.69 442.226Z" fill="white"/>
<path d="M1062.04 445.466C1061.81 448.641 1058.13 449.374 1055.57 449.071C1052.87 448.892 1050.16 448.727 1047.46 448.576C1047.73 443.669 1048.01 438.762 1048.29 433.855C1050.89 434.001 1053.49 434.16 1056.1 434.331C1058.55 434.364 1062 435.575 1061.8 438.585C1061.7 439.986 1060.88 441.073 1059.53 441.634C1061.2 442.342 1062.17 443.681 1062.04 445.466ZM1052.38 437.114C1052.31 438.249 1052.27 438.816 1052.21 439.952C1053.38 440.024 1053.97 440.061 1055.15 440.137C1056.58 440.229 1057.35 439.796 1057.41 438.851C1057.48 437.926 1056.77 437.392 1055.34 437.3C1054.15 437.223 1053.56 437.186 1052.38 437.114ZM1057.76 444.7C1057.83 443.692 1057.08 443.155 1055.61 443.059C1054.18 442.965 1053.46 442.92 1052.03 442.832C1051.96 444.026 1051.92 444.623 1051.85 445.817C1053.28 445.905 1053.99 445.95 1055.42 446.043C1056.88 446.139 1057.69 445.709 1057.76 444.7Z" fill="white"/>
<path d="M1063 448.261C1063.65 447.076 1063.97 446.483 1064.63 445.299C1065.9 446.261 1067.74 446.997 1069.49 447.139C1071.25 447.282 1072.14 446.653 1072.04 446.145C1071.52 443.497 1063.56 444.381 1063.92 439.374C1064.15 436.142 1068.13 434.798 1071.03 435.135C1072.94 435.357 1075.03 435.915 1076.45 436.887C1075.81 438.074 1075.49 438.667 1074.86 439.855C1073.47 438.974 1072.07 438.475 1070.74 438.366C1068.94 438.218 1068.07 439.005 1068.19 439.491C1068.77 441.846 1076.77 441.268 1076.26 446.194C1075.92 449.537 1072.2 450.607 1069.2 450.37C1066.74 450.176 1064.34 449.332 1063 448.261Z" fill="white"/>
</g>
</g>
<g clip-path="url(#clip3_172_47)">
<path d="M98.8307 79.9762V73.2057H86.6614V70.2636H93.2267V66.7775H86.6614V63.8354H98.8307V57.0649C101.095 56.3217 102.737 54.207 102.737 51.694C102.737 48.5527 100.22 46.0089 97.1052 46.0089C93.9908 46.0089 91.4734 48.5501 91.4734 51.694C91.4734 54.207 93.1154 56.3217 95.3798 57.0649V60.3492H86.6639V54.1228H83.2686V48.8949C85.533 48.1517 87.175 46.037 87.175 43.524C87.175 40.3826 84.6576 37.8389 81.5432 37.8389C78.4288 37.8389 75.9114 40.3801 75.9114 43.524C75.9114 46.037 77.5534 48.1517 79.8177 48.8949V54.1228H72.5743V44.4102C72.5743 44.3233 72.5465 44.2672 72.5187 44.1829C72.5743 43.8968 72.5743 43.6389 72.4908 43.3554C70.6794 37.7853 64.7086 34.7002 59.1628 36.5288C58.8794 36.6156 58.6239 36.7561 58.3709 36.871C58.0319 37.014 57.6929 37.157 57.3513 37.3281C57.2957 37.3562 57.2375 37.3843 57.2096 37.415C53.8979 39.1287 51.6057 42.556 51.4944 46.5274C45.0707 46.9845 39.9778 52.3554 39.9778 58.9522C39.9778 61.5521 40.7975 63.9503 42.1561 65.9807C38.895 68.6342 37 72.6336 37 76.9191C37 83.7458 41.8677 89.5176 48.4052 90.7461C49.3666 96.5461 54.376 101 60.4025 101C67.1374 101 72.5996 95.4862 72.5996 88.6876V82.5454H79.843V87.4592C77.5787 88.2024 75.9367 90.317 75.9367 92.8301C75.9367 95.9714 78.4541 98.5151 81.5685 98.5151C84.6829 98.5151 87.2003 95.974 87.2003 92.8301C87.2003 90.317 85.5583 88.2024 83.2939 87.4592V82.5454H86.6892V76.6893H95.4051V79.9736C93.1407 80.7168 91.4987 82.8315 91.4987 85.3445C91.4987 88.4859 94.0161 91.0296 97.1305 91.0296C100.245 91.0296 102.762 88.4884 102.762 85.3445C102.734 82.8315 101.092 80.7168 98.8281 79.9736L98.8307 79.9762ZM97.1052 49.4951C98.2943 49.4951 99.2557 50.4655 99.2557 51.6659C99.2557 52.8662 98.2943 53.8648 97.1052 53.8648C95.9161 53.8648 94.9547 52.8943 94.9547 51.6659C94.9269 50.4936 95.9161 49.4951 97.1052 49.4951ZM81.5407 41.3557C82.7298 41.3557 83.6912 42.3262 83.6912 43.5546C83.6912 44.7831 82.7298 45.7255 81.5407 45.7255C80.3516 45.7255 79.3902 44.755 79.3902 43.5546C79.3623 42.3262 80.3237 41.3557 81.5407 41.3557ZM81.5407 95.029C80.3516 95.029 79.3902 94.0585 79.3902 92.8582C79.3902 91.6578 80.3516 90.6873 81.5407 90.6873C82.7298 90.6873 83.6912 91.6578 83.6912 92.8582C83.6912 94.0585 82.7298 95.029 81.5407 95.029ZM60.3468 97.514C55.5373 97.514 51.6032 93.5707 51.6032 88.6876C51.6032 85.1453 53.698 81.9453 56.9516 80.5738C57.8295 80.2035 58.2545 79.1742 57.8852 78.288C57.5183 77.4018 56.4987 77.0034 55.6208 77.3456C51.5753 79.0874 48.8303 82.8315 48.2914 87.1425C43.7349 85.9421 40.4256 81.7716 40.4256 76.8885C40.4256 73.6041 41.9537 70.5752 44.5015 68.5754C45.8879 69.717 47.502 70.6033 49.3413 71.0604C49.483 71.0885 49.6247 71.1166 49.7664 71.1166C50.5304 71.1166 51.2388 70.6033 51.4362 69.8013C51.6614 68.8589 51.0972 67.9165 50.1914 67.6867C46.2016 66.6881 43.4287 63.0871 43.4287 58.9165C43.4287 53.9465 47.4464 49.8909 52.3698 49.8909H52.3976V49.919C52.5671 50.4323 52.7644 50.9482 53.02 51.4335C53.3312 52.0337 53.9257 52.3759 54.5759 52.3759C54.8314 52.3759 55.1148 52.3197 55.3678 52.1767C56.2179 51.7476 56.5569 50.6903 56.1319 49.8347C55.9624 49.5206 55.8485 49.1784 55.7347 48.8361C55.1401 47.0075 55.2818 45.0665 56.1597 43.3503C56.8959 41.8639 58.1407 40.7504 59.6131 40.066C60.3772 39.7799 61.1969 39.6088 62.047 39.6088C65.9812 39.6088 69.1487 42.837 69.1487 46.7777V62.1166C67.3372 60.3467 65.0451 59.0876 62.5277 58.6024C63.4334 57.2309 64.1115 55.6883 64.4227 54.0027C64.5922 53.0603 63.9698 52.146 63.0362 51.9749C62.1027 51.8038 61.1969 52.4321 61.0274 53.3745C60.319 57.116 57.3488 60.03 53.6145 60.6302C52.6809 60.7732 52.0307 61.6594 52.1724 62.6299C52.3141 63.488 53.0503 64.1163 53.87 64.1163C53.9561 64.1163 54.0396 64.1163 54.1256 64.0882C56.1926 63.7741 58.0597 62.9159 59.6435 61.7181C59.8408 61.805 60.0685 61.8612 60.2937 61.8893C64.3695 62.0323 67.8787 64.6884 69.1512 68.5167V75.7162C69.1512 79.5446 66.7452 82.9719 63.1804 84.2285C62.2747 84.5426 61.8218 85.5437 62.133 86.4555C62.3886 87.1706 63.0388 87.6277 63.775 87.6277C63.9723 87.6277 64.1722 87.5996 64.3417 87.5409C66.2089 86.8845 67.8508 85.771 69.1512 84.3996V88.7132C69.0956 93.5682 65.1893 97.5114 60.3494 97.5114L60.3468 97.514ZM72.5414 57.6089H83.2105V79.0619H72.5414V57.6089ZM97.1052 87.5179C95.9161 87.5179 94.9547 86.5474 94.9547 85.319C94.9547 84.0905 95.9161 83.1482 97.1052 83.1482C98.2943 83.1482 99.2557 84.1186 99.2557 85.319C99.2557 86.5193 98.2943 87.5179 97.1052 87.5179Z" fill="black"/>
<path d="M81.6824 59.0364H72.5415V77.4911H81.6824V59.0364Z" fill="#58BA00"/>
<path d="M77.5509 63.207H72.5415V59.0364H77.5509V63.207ZM77.5509 66.4071H72.5415V70.5776H77.5509V66.4071ZM77.5509 73.3205H72.5415V77.4911H77.5509V73.3205Z" fill="#A0EC5F"/>
<path d="M95.6048 51.1525C95.6048 50.4961 96.1437 49.924 96.8218 49.924C97.4998 49.924 98.0387 50.468 98.0387 51.1525C98.0387 51.8369 97.4998 52.3809 96.8218 52.3809C96.1437 52.3809 95.6048 51.8369 95.6048 51.1525ZM96.7939 86.0595C97.4441 86.0595 98.0109 85.5155 98.0109 84.8311C98.0109 84.1466 97.472 83.6027 96.7939 83.6027C96.1159 83.6027 95.577 84.1466 95.577 84.8311C95.577 85.5155 96.1437 86.0595 96.7939 86.0595ZM81.2015 93.6013C81.8518 93.6013 82.4185 93.0573 82.4185 92.3728C82.4185 91.6884 81.8796 91.1444 81.2015 91.1444C80.5235 91.1444 79.9846 91.6884 79.9846 92.3728C79.9846 93.0573 80.5235 93.6013 81.2015 93.6013ZM81.1459 44.2671C81.7961 44.2671 82.3628 43.7231 82.3628 43.0386C82.3628 42.3542 81.8239 41.8102 81.1459 41.8102C80.4678 41.8102 79.929 42.3542 79.929 43.0386C79.929 43.695 80.4678 44.2671 81.1459 44.2671Z" fill="#C9EAE8"/>
<path d="M60.3468 95.9713C56.3848 95.9713 53.1591 92.7151 53.1591 88.7156C53.1591 85.8016 54.8845 83.1736 57.5461 82.032C58.338 81.6898 58.9882 81.0615 59.2994 80.2315C59.6384 79.404 59.6106 78.5178 59.2716 77.6903C58.763 76.4619 57.5739 75.6625 56.2431 75.6625C55.8181 75.6625 55.3931 75.7493 54.9984 75.9204C51.0921 77.5779 48.1775 81.0053 47.1023 85.089C43.9904 83.6027 41.9512 80.4613 41.9512 76.919C41.9512 74.549 42.8847 72.3194 44.5545 70.6057C45.9132 71.5481 47.3856 72.2045 48.9112 72.6054C49.1946 72.6616 49.4501 72.6923 49.7031 72.6923C51.2034 72.6923 52.5038 71.663 52.8732 70.2073C53.2982 68.4374 52.2508 66.6369 50.495 66.1798C47.2414 65.3523 44.9214 62.3795 44.9214 58.9522C44.9214 55.1826 47.6943 52.0387 51.3172 51.5534C51.4033 51.7526 51.5146 51.9544 51.6006 52.1817C52.1673 53.2952 53.2704 53.9822 54.5152 53.9822C55.0237 53.9822 55.5347 53.8673 55.9876 53.64C56.7795 53.239 57.3462 52.5546 57.6296 51.7271C57.9129 50.8996 57.8269 49.9853 57.4322 49.214C57.2906 48.9561 57.2071 48.7007 57.1211 48.4427C56.6682 47.0151 56.782 45.4725 57.4322 44.1292C57.999 43.0156 58.9047 42.1294 60.0913 41.588C60.7415 41.3607 61.336 41.2458 61.9584 41.2458C65.0147 41.2458 67.532 43.7588 67.532 46.8721V59.0415C66.6541 58.4976 65.7205 58.071 64.7591 57.7263C65.2677 56.6408 65.637 55.5273 65.8622 54.3832C66.2012 52.5827 65.0121 50.869 63.2588 50.5267C63.0615 50.4987 62.8616 50.4706 62.6643 50.4706C61.0805 50.4706 59.7497 51.6122 59.4385 53.1547C58.8718 56.268 56.3823 58.6687 53.2982 59.1539C51.5146 59.44 50.2976 61.1255 50.5532 62.9235C50.8087 64.5529 52.1673 65.7226 53.7789 65.7226C53.9763 65.7226 54.1761 65.6945 54.3456 65.6664C56.271 65.3523 58.1938 64.6091 59.8914 63.4675C59.9774 63.4675 60.0887 63.4956 60.1748 63.4956C63.4865 63.6105 66.4289 65.7533 67.532 68.8384V75.78C67.532 78.952 65.551 81.7792 62.6086 82.8365C60.911 83.4366 60.0053 85.3495 60.5998 87.0632C61.0805 88.3785 62.2974 89.2622 63.6839 89.2622C64.0507 89.2622 64.4201 89.206 64.7591 89.063C65.7205 88.7207 66.6541 88.2636 67.5042 87.7196V88.7769C67.5598 92.7202 64.3341 95.9764 60.3443 95.9764L60.3468 95.9713Z" fill="#F598D4"/>
<path d="M59.016 46.867C59.016 44.8111 60.658 43.1536 62.6946 43.1536C63.3448 43.1536 63.8559 43.6669 63.8559 44.3258C63.8559 44.9847 63.3474 45.4981 62.6946 45.4981C61.9584 45.4981 61.336 46.1263 61.336 46.8695C61.336 47.5259 60.8275 48.0418 60.1747 48.0418C59.5245 48.0418 59.0135 47.5284 59.0135 46.8695L59.016 46.867ZM51.6588 54.4675C49.3666 54.4675 47.4716 56.3523 47.4716 58.6942C47.4716 59.3506 47.9801 59.8665 48.6329 59.8665C49.2856 59.8665 49.7942 59.3531 49.7942 58.6942C49.7942 57.665 50.6139 56.8094 51.6613 56.8094C52.3115 56.8094 52.8226 56.2961 52.8226 55.6372C52.8226 55.0089 52.2837 54.4649 51.6613 54.4649L51.6588 54.4675ZM62.978 67.5487C62.1279 67.0634 61.1943 66.8055 60.2329 66.8055C58.0824 66.8055 56.1014 68.0901 55.0262 70.1486C54.7428 70.7206 54.9402 71.4332 55.5069 71.7192C55.6764 71.8061 55.8459 71.8623 56.0458 71.8623C56.4708 71.8623 56.8655 71.635 57.0654 71.234C57.7156 69.9494 58.9325 69.1474 60.2076 69.1474C60.7744 69.1474 61.3107 69.2904 61.8218 69.5765C62.3885 69.8906 63.0944 69.6914 63.4056 69.1474C63.7167 68.5753 63.5194 67.8628 62.9805 67.5487H62.978ZM58.7326 89.8879C58.3076 89.5737 58.0546 89.0604 58.0546 88.4883C58.0546 88.118 58.1685 87.7732 58.3658 87.4897C58.7326 86.9458 58.591 86.2332 58.0824 85.8603C57.5435 85.49 56.8377 85.633 56.4683 86.1464C55.9876 86.8308 55.7321 87.6328 55.7321 88.4883C55.7321 89.8036 56.3544 91.0601 57.4019 91.8008C57.5992 91.9438 57.8269 92.0281 58.0799 92.0281C58.4468 92.0281 58.7883 91.857 59.0135 91.5428C59.3803 90.9707 59.269 90.2582 58.7301 89.8853L58.7326 89.8879ZM46.2243 74.0612C45.6298 73.862 44.9517 74.1761 44.7519 74.8044C44.5267 75.5195 44.4128 76.2908 44.4128 77.0314C44.4128 77.6878 44.4989 78.3748 44.6962 79.003C44.8379 79.5164 45.3186 79.8305 45.7993 79.8305C45.9131 79.8305 46.0245 79.8024 46.1383 79.7743C46.7607 79.6032 47.0997 78.9468 46.9302 78.3186C46.8163 77.8895 46.7329 77.4605 46.7329 77.0033C46.7329 76.49 46.8189 75.9741 46.9884 75.5169C47.1579 74.9448 46.8467 74.2604 46.2243 74.0612Z" fill="#FFD5F2"/>
<path d="M127 46.1723C132.76 46.1723 136.335 48.8207 136.335 53.193C136.335 56.3625 134.468 58.7274 131.447 59.4476C135.182 60.0886 137.408 62.7779 137.408 66.5475C137.408 71.3617 133.555 74.2476 127.278 74.2476H114.921V46.1723H127ZM119.609 57.8029H126.762C129.74 57.8029 131.531 56.3982 131.531 54.0333C131.531 51.6683 129.742 50.3837 126.762 50.3837H119.609V57.8029ZM119.609 70.0336H126.762C130.418 70.0336 132.604 68.5907 132.604 65.9448C132.604 63.4598 130.418 61.9734 126.762 61.9734H119.609V70.0336Z" fill="#132226"/>
<path d="M146.448 57.1618C147.88 54.2733 150.422 52.7512 153.76 52.7512V57.1618C149.509 56.9218 146.805 59.4476 146.448 63.0972V74.2476H141.879V52.9121H146.448V57.1644V57.1618Z" fill="#132226"/>
<path d="M170.941 71.6375C169.433 73.5223 167.009 74.4443 163.948 74.4443C159.379 74.4443 156.52 71.5992 156.52 67.827C156.52 64.0549 159.419 61.4499 164.504 61.409H170.9V60.768C170.9 58.0813 169.193 56.4774 165.853 56.4774C163.826 56.4774 161.724 57.2002 159.616 58.6431L157.749 55.4354C160.689 53.6706 162.835 52.7487 166.847 52.7487C172.289 52.7487 175.351 55.5554 175.391 60.247L175.429 74.2451H170.938V71.6375H170.941ZM170.903 66.7467V64.7802H165.18C162.202 64.7802 160.811 65.5821 160.811 67.6278C160.811 69.5535 162.359 70.7973 164.902 70.7973C168.16 70.7973 170.665 69.0734 170.903 66.7467Z" fill="#132226"/>
<path d="M185.951 46.8133C185.951 48.4172 184.8 49.5818 183.29 49.5818C181.779 49.5818 180.628 48.4197 180.628 46.8133C180.628 45.2069 181.782 44.0066 183.29 44.0066C184.798 44.0066 185.951 45.1686 185.951 46.8133ZM181.025 74.2476V52.9121H185.557V74.2476H181.025Z" fill="#132226"/>
<path d="M211.929 60.9723V74.2476H207.36V62.2569C207.36 59.0492 205.452 57.0827 202.275 57.0827C198.778 57.1235 196.592 59.5676 196.274 62.898V74.2476H191.704V52.9121H196.274V57.0035C197.784 54.0358 200.486 52.7538 204.061 52.7538C208.987 52.7538 211.927 55.8823 211.927 60.9749L211.929 60.9723Z" fill="#132226"/>
<path d="M227.322 50.4246V74.2476H222.634V50.4246H213.852V46.1723H236.141V50.4246H227.322Z" fill="#132226"/>
<path d="M256.131 63.5799C256.131 69.9979 251.64 74.4085 245.125 74.4085C238.611 74.4085 234.082 69.9979 234.082 63.5799C234.082 57.1618 238.57 52.7512 245.125 52.7512C251.681 52.7512 256.131 57.121 256.131 63.5799ZM238.651 63.6182C238.651 67.7479 241.313 70.5572 245.125 70.5572C248.938 70.5572 251.562 67.7504 251.562 63.6182C251.562 59.4859 248.9 56.72 245.125 56.72C241.351 56.72 238.651 59.5268 238.651 63.6182Z" fill="#132226"/>
<path d="M281.208 63.5799C281.208 69.9979 276.717 74.4085 270.203 74.4085C263.688 74.4085 259.159 69.9979 259.159 63.5799C259.159 57.1618 263.647 52.7512 270.203 52.7512C276.758 52.7512 281.208 57.121 281.208 63.5799ZM263.728 63.6182C263.728 67.7479 266.39 70.5572 270.203 70.5572C274.015 70.5572 276.639 67.7504 276.639 63.6182C276.639 59.4859 273.977 56.72 270.203 56.72C266.428 56.72 263.728 59.5268 263.728 63.6182Z" fill="#132226"/>
<path d="M285.385 74.2476V44.4867H289.957V74.2451H285.385V74.2476Z" fill="#132226"/>
<path d="M122.086 86.5601V89.5942C121.259 90.2045 119.997 90.6208 118.914 90.6208C116.543 90.6208 114.744 88.8842 114.744 86.5933C114.744 84.3024 116.576 82.5862 119.012 82.5862C120.176 82.5862 121.36 83.0382 122.155 83.738L121.158 85.0124C120.576 84.471 119.771 84.1339 119.012 84.1339C117.626 84.1339 116.556 85.2065 116.556 86.5933C116.556 87.9801 117.639 89.0655 119.025 89.0655C119.496 89.0655 120.055 88.8969 120.558 88.6364V86.5601H122.089H122.086Z" fill="#7E9898"/>
<path d="M133.029 86.5933C133.029 88.8714 131.217 90.6208 128.826 90.6208C126.436 90.6208 124.624 88.8842 124.624 86.5933C124.624 84.3024 126.436 82.5862 128.826 82.5862C131.217 82.5862 133.029 84.3024 133.029 86.5933ZM126.433 86.5933C126.433 87.9801 127.541 89.0655 128.847 89.0655C130.152 89.0655 131.217 87.9801 131.217 86.5933C131.217 85.2065 130.155 84.1466 128.847 84.1466C127.539 84.1466 126.433 85.2065 126.433 86.5933Z" fill="#7E9898"/>
<path d="M143.596 82.6449C145.317 82.6449 146.392 83.4009 146.392 84.6191C146.392 85.4772 145.879 86.1438 145.039 86.3583C146.045 86.5499 146.67 87.3161 146.67 88.3555C146.67 89.7091 145.542 90.5442 143.72 90.5442H139.999V82.6475H143.596V82.6449ZM141.765 85.8246H143.508C144.166 85.8246 144.583 85.4977 144.583 84.946C144.583 84.3944 144.168 84.1007 143.508 84.1007H141.765V85.8271V85.8246ZM141.765 89.0859H143.508C144.345 89.0859 144.849 88.736 144.849 88.1282C144.849 87.5204 144.345 87.2037 143.508 87.2037H141.765V89.0859Z" fill="#7E9898"/>
<path d="M151.275 84.1211V85.8373H155.052V87.3161H151.275V89.0655H155.589V90.5442H149.509V82.6475H155.465V84.1262H151.275V84.1211Z" fill="#7E9898"/>
<path d="M162.296 90.5417H160.53V88.0363L157.635 82.6424H159.414L161.413 86.1872L163.371 82.6424H165.147L162.298 87.9903V90.5391L162.296 90.5417Z" fill="#7E9898"/>
<path d="M175.163 86.5933C175.163 88.8714 173.352 90.6208 170.961 90.6208C168.57 90.6208 166.759 88.8842 166.759 86.5933C166.759 84.3024 168.57 82.5862 170.961 82.5862C173.352 82.5862 175.163 84.3024 175.163 86.5933ZM168.57 86.5933C168.57 87.9801 169.678 89.0655 170.984 89.0655C172.289 89.0655 173.354 87.9801 173.354 86.5933C173.354 85.2065 172.292 84.1466 170.984 84.1466C169.676 84.1466 168.57 85.2065 168.57 86.5933Z" fill="#7E9898"/>
<path d="M183.356 90.5417L179.566 85.4747V90.5417H177.881V82.6449H179.487L183.287 87.7221V82.6449H184.965V90.5417H183.356Z" fill="#7E9898"/>
<path d="M191.56 82.6449C193.984 82.6449 195.671 84.259 195.671 86.5933C195.671 88.9276 193.961 90.5417 191.489 90.5417H188.238V82.6449H191.558H191.56ZM190.007 89.04H191.606C192.914 89.04 193.875 88.049 193.875 86.6035C193.875 85.158 192.868 84.1441 191.527 84.1441H190.009V89.04H190.007Z" fill="#7E9898"/>
<path d="M206.239 82.6449C207.96 82.6449 209.035 83.4009 209.035 84.6191C209.035 85.4772 208.521 86.1438 207.681 86.3583C208.688 86.5499 209.313 87.3161 209.313 88.3555C209.313 89.7091 208.185 90.5442 206.363 90.5442H202.642V82.6475H206.239V82.6449ZM204.408 85.8246H206.151C206.809 85.8246 207.226 85.4977 207.226 84.946C207.226 84.3944 206.811 84.1007 206.151 84.1007H204.408V85.8271V85.8246ZM204.408 89.0859H206.151C206.988 89.0859 207.492 88.736 207.492 88.1282C207.492 87.5204 206.988 87.2037 206.151 87.2037H204.408V89.0859Z" fill="#7E9898"/>
<path d="M220 86.5933C220 88.8714 218.188 90.6208 215.798 90.6208C213.407 90.6208 211.595 88.8842 211.595 86.5933C211.595 84.3024 213.407 82.5862 215.798 82.5862C218.188 82.5862 220 84.3024 220 86.5933ZM213.407 86.5933C213.407 87.9801 214.512 89.0655 215.82 89.0655C217.128 89.0655 218.191 87.9801 218.191 86.5933C218.191 85.2065 217.128 84.1466 215.82 84.1466C214.512 84.1466 213.407 85.2065 213.407 86.5933Z" fill="#7E9898"/>
<path d="M230.36 86.5933C230.36 88.8714 228.549 90.6208 226.158 90.6208C223.767 90.6208 221.956 88.8842 221.956 86.5933C221.956 84.3024 223.767 82.5862 226.158 82.5862C228.549 82.5862 230.36 84.3024 230.36 86.5933ZM223.767 86.5933C223.767 87.9801 224.873 89.0655 226.181 89.0655C227.489 89.0655 228.551 87.9801 228.551 86.5933C228.551 85.2065 227.489 84.1466 226.181 84.1466C224.873 84.1466 223.767 85.2065 223.767 86.5933Z" fill="#7E9898"/>
<path d="M235.972 87.3263L234.844 88.5905V90.5417H233.078V82.6449H234.844V86.2306L238.095 82.6449H240.141L237.202 85.9395L240.341 90.5442H238.216L235.972 87.3288V87.3263Z" fill="#7E9898"/>
<path d="M249.775 90.5417V85.2142L247.698 89.7397H246.547L244.47 85.2142V90.5417H242.871V82.6449H244.85L247.127 87.4718L249.396 82.6449H251.364V90.5417H249.775Z" fill="#7E9898"/>
<path d="M256.189 89.0068L255.574 90.5417H253.753L257.15 82.6449H258.972L262.312 90.5417H260.424L259.81 89.0068H256.189ZM258.011 84.5042L256.768 87.574H259.238L258.011 84.5042Z" fill="#7E9898"/>
<path d="M268.25 88.284H266.451V90.5417H264.685V82.6449H268.083C270.127 82.6449 271.291 83.6384 271.291 85.3853C271.291 86.6061 270.777 87.4846 269.826 87.9341L271.493 90.5417H269.492L268.252 88.284H268.25ZM268.083 86.7951C269.054 86.7951 269.613 86.3456 269.613 85.4415C269.613 84.5374 269.057 84.1211 268.083 84.1211H266.451V86.7951H268.083Z" fill="#7E9898"/>
<path d="M277.226 87.3263L276.098 88.5905V90.5417H274.332V82.6449H276.098V86.2306L279.349 82.6449H281.396L278.456 85.9395L281.595 90.5442H279.47L277.226 87.3288V87.3263Z" fill="#7E9898"/>
<path d="M289.954 83.4239L289.271 84.9026C288.444 84.4046 287.46 84.0904 286.835 84.0904C286.243 84.0904 285.841 84.305 285.841 84.734C285.841 86.1898 290.01 85.3776 289.997 88.2201C289.997 89.7653 288.667 90.6004 286.936 90.6004C285.648 90.6004 284.366 90.1024 283.483 89.3464L284.186 87.8907C284.991 88.6135 286.132 89.0783 286.956 89.0783C287.682 89.0783 288.118 88.8076 288.118 88.3198C288.118 86.8308 283.951 87.6991 283.951 84.9026C283.951 83.4698 285.168 82.5683 286.979 82.5683C288.075 82.5683 289.168 82.908 289.952 83.4264L289.954 83.4239Z" fill="#7E9898"/>
<path d="M136.229 96.4285C157.258 93.8669 178.571 93.7009 199.555 96.5664L199.446 97.33C178.601 94.9804 157.286 95.6495 136.563 98.6785L136.229 96.431V96.4285Z" fill="#7E9898"/>
</g>
<defs>
<radialGradient id="paint0_radial_172_47" cx="0" cy="0" r="1" gradientUnits="userSpaceOnUse" gradientTransform="translate(620.557 555.086) scale(625.952 407.816)">
<stop offset="0.3575" stop-color="#E24DB0"/>
<stop offset="1" stop-color="#E24DB0" stop-opacity="0"/>
</radialGradient>
<radialGradient id="paint1_radial_172_47" cx="0" cy="0" r="1" gradientUnits="userSpaceOnUse" gradientTransform="translate(867.742 335.751) scale(244.483 221.24)">
<stop offset="0.3631" stop-color="#84EF41"/>
<stop offset="0.9944" stop-color="#84EF41" stop-opacity="0"/>
</radialGradient>
<radialGradient id="paint2_radial_172_47" cx="0" cy="0" r="1" gradientUnits="userSpaceOnUse" gradientTransform="translate(1025.67 476.762) scale(244.483 221.24)">
<stop offset="0.3631" stop-color="#84EF41"/>
<stop offset="0.9944" stop-color="#84EF41" stop-opacity="0"/>
</radialGradient>
<linearGradient id="paint3_linear_172_47" x1="527.083" y1="392.112" x2="661.616" y2="624.856" gradientUnits="userSpaceOnUse">
<stop stop-color="#84EF41" stop-opacity="0"/>
<stop offset="0.2402" stop-color="#84EF41"/>
<stop offset="0.4693" stop-color="#0EBE00"/>
</linearGradient>
<clipPath id="clip0_172_47">
<rect width="1440" height="494" fill="white"/>
</clipPath>
<clipPath id="clip1_172_47">
<rect width="84.4284" height="80.6328" fill="white" transform="matrix(0.975173 -0.221446 0.22095 0.975285 526.454 289.556)"/>
</clipPath>
<clipPath id="clip2_172_47">
<rect width="91.6942" height="81.539" fill="white" transform="matrix(0.991888 -0.127112 0.126817 0.991926 439.115 315.496)"/>
</clipPath>
<clipPath id="clip3_172_47">
<rect width="253" height="65" fill="white" transform="translate(37 36)"/>
</clipPath>
</defs>
</svg>
