<svg width="1440" height="493" viewBox="0 0 1440 493" fill="none" xmlns="http://www.w3.org/2000/svg">
<g clip-path="url(#clip0_6_635)">
<path d="M1636.07 -165.814H-209.053V509.466H1636.07V-165.814Z" fill="#C8C8C8"/>
<mask id="mask0_6_635" style="mask-type:luminance" maskUnits="userSpaceOnUse" x="-215" y="-159" width="1846" height="676">
<path d="M1630.87 -158.928H-214.247V516.353H1630.87V-158.928Z" fill="white"/>
</mask>
<g mask="url(#mask0_6_635)">
<path d="M620.56 960.953C966.265 960.953 1246.51 778.737 1246.51 553.962C1246.51 329.188 966.265 146.972 620.56 146.972C274.855 146.972 -5.3949 329.188 -5.3949 553.962C-5.3949 778.737 274.855 960.953 620.56 960.953Z" fill="url(#paint0_radial_6_635)"/>
<path d="M867.759 555.851C1002.79 555.851 1112.25 457.005 1112.25 335.074C1112.25 213.142 1002.79 114.297 867.759 114.297C732.732 114.297 623.271 213.142 623.271 335.074C623.271 457.005 732.732 555.851 867.759 555.851Z" fill="url(#paint1_radial_6_635)"/>
<path d="M1025.69 696.566C1160.72 696.566 1270.18 597.721 1270.18 475.789C1270.18 353.857 1160.72 255.012 1025.69 255.012C890.662 255.012 781.201 353.857 781.201 475.789C781.201 597.721 890.662 696.566 1025.69 696.566Z" fill="url(#paint2_radial_6_635)"/>
</g>
<path d="M386.114 437.322C386.114 437.322 337.515 436.022 328.403 399.17C319.29 362.318 337.741 353.469 337.741 353.469C337.741 353.469 312.498 331.102 325.874 308.123C339.251 285.145 356.174 286.446 356.174 286.446C356.174 286.446 335.254 258.941 359.165 237.575C383.077 216.21 400.01 220.221 400.01 220.221C400.01 220.221 400.465 196.512 424.315 184.25C448.165 171.987 469.306 179.037 478.454 181.841C487.602 184.645 494.16 187.162 494.16 187.162C494.16 187.162 517.008 161.614 540.157 164.199C563.306 166.785 574.571 169.279 579.875 176.083C585.178 182.887 587.887 189.763 587.887 189.763C587.887 189.763 639.958 187.78 655.145 220.204C670.332 252.628 656.013 285.145 649.504 293.382L764.927 537.04H434.279L386.114 437.322Z" fill="#FF90D6"/>
<path d="M363.147 265.462C362.296 265.462 361.433 265.265 360.626 264.849C357.92 263.455 356.851 260.143 358.239 257.437C358.439 257.046 363.257 247.768 372.466 240.203C385.157 229.779 399.901 227.531 415.105 233.698C417.93 234.844 419.29 238.061 418.143 240.884C416.996 243.707 413.775 245.066 410.951 243.92C383.795 232.902 368.69 261.267 368.06 262.48C367.077 264.373 365.146 265.462 363.147 265.462Z" fill="#FFD1F3"/>
<path d="M568.62 195.544C567.424 195.544 566.218 195.157 565.206 194.359C554.431 185.87 543.228 186.382 535.727 188.307C532.773 189.064 529.764 187.286 529.006 184.335C528.248 181.384 530.027 178.378 532.981 177.62C541.098 175.537 556.966 173.818 572.043 185.696C574.437 187.582 574.848 191.051 572.96 193.443C571.87 194.824 570.253 195.544 568.62 195.544Z" fill="#FFD1F3"/>
<path d="M345.937 345.828C344.232 345.828 342.553 345.042 341.475 343.558C341.03 342.947 330.654 328.434 336.071 315.277C339.562 306.798 348.373 301.347 362.261 299.077C399.503 292.988 407.983 283.148 411.598 273.422C412.66 270.566 415.839 269.112 418.696 270.172C421.555 271.232 423.011 274.408 421.949 277.264C415.418 294.834 398.642 304.308 364.044 309.965C357.284 311.07 348.717 313.613 346.294 319.448C343.728 325.626 348.402 334.276 350.419 337.089C352.192 339.56 351.634 343.004 349.167 344.783C348.189 345.489 347.057 345.828 345.937 345.828Z" fill="#FFD1F3"/>
<path d="M423.207 214.601C421.93 214.601 420.646 214.16 419.6 213.26C417.289 211.272 417.04 207.776 419.029 205.467C419.314 205.136 426.162 197.312 439.083 193.156C450.714 189.413 469.821 187.94 494.79 202.169C497.439 203.678 498.362 207.047 496.851 209.693C495.34 212.34 491.97 213.262 489.32 211.753C449.143 188.858 428.245 211.708 427.375 212.691C426.286 213.955 424.752 214.601 423.207 214.601Z" fill="#FFD1F3"/>
<path d="M340.422 396.369C339.909 396.369 339.388 396.297 338.871 396.147C335.944 395.293 334.265 392.23 335.119 389.305L339.94 372.811C340.735 370.092 343.461 368.417 346.249 368.934C346.374 368.957 359.79 371.332 369.239 366.906C371.999 365.613 375.287 366.8 376.581 369.559C377.876 372.318 376.686 375.602 373.926 376.896C365.371 380.902 355.178 380.878 349.226 380.397L345.719 392.398C345.015 394.805 342.811 396.369 340.422 396.369Z" fill="#FFD1F3"/>
<path d="M381.287 425.24C382.831 424.706 384.329 424.026 385.766 423.201C388.389 421.695 390.737 419.792 392.879 417.673C392.445 417.554 391.991 417.481 391.52 417.473C366.325 417.023 354.637 404.282 354.107 403.689C352.106 401.408 348.635 401.168 346.339 403.156C344.035 405.151 343.786 408.636 345.783 410.938C346.264 411.492 355.606 421.989 374.811 426.491C377.018 426.259 379.169 425.843 381.287 425.24Z" fill="#E24DB0"/>
<path d="M671.486 246.866C667.827 211.046 644.894 195.888 626.3 189.48C612.205 184.623 598.672 184.022 591.896 184.092C588.57 175.826 578.055 159.76 546.421 158.67C514.972 157.587 498.403 172.965 492.245 180.443C481.562 176.421 452.561 167.321 428.436 176.36C404.604 185.29 396.117 205.811 393.457 214.88C392.728 214.932 391.999 214.987 391.276 215.063C370.8 217.218 355.058 228.692 346.905 247.388C340.428 258.111 340.057 270.694 345.556 281.791C333.828 285.711 323.832 295.184 318.907 307.577C313.291 321.709 315.412 336.506 324.57 347.232C325.788 348.963 327.52 350.535 329.2 352.059C329.707 352.52 330.366 353.118 330.976 353.706C330.49 354.078 330.065 354.529 329.723 355.046C320.09 369.592 317.113 387.854 321.761 403.896C325.683 417.436 334.789 428.014 347.38 433.673C349.446 434.611 367.9 442.838 379.605 442.838C382.655 442.838 385.126 440.368 385.126 437.322C385.126 434.276 382.655 431.806 379.605 431.806C371.707 431.806 356.963 425.903 351.93 423.62C339.615 418.085 334.494 408.171 332.367 400.829C328.804 388.531 330.999 373.982 338.077 362.473C338.82 362.099 339.488 361.687 340.08 361.237C343.804 362.851 349.293 364.356 356.815 364.356C362.288 364.356 368.838 363.559 376.565 361.425C379.504 360.614 381.228 357.576 380.416 354.639C379.604 351.703 376.563 349.977 373.624 350.792C353.962 356.221 344.359 351.298 342.017 349.781C340.627 347.534 338.503 345.598 336.623 343.892C335.467 342.842 334.027 341.535 333.575 340.847C333.439 340.638 333.288 340.439 333.124 340.25C326.54 332.677 325.063 321.985 329.17 311.648C333.718 300.204 343.839 292.092 354.955 290.981C356.96 290.781 358.696 289.505 359.486 287.653C360.275 285.8 359.991 283.666 358.746 282.083C351.618 273.024 350.784 262.089 356.515 252.834C356.66 252.6 356.787 252.355 356.895 252.102C365.175 232.777 380.791 227.26 392.433 226.035C415.729 223.58 444.458 235.959 460.499 254.737L449.281 261.126C446.631 262.634 445.708 266.003 447.218 268.65C448.236 270.435 450.101 271.436 452.02 271.436C452.947 271.436 453.886 271.202 454.748 270.71L489.872 250.707C492.521 249.198 493.445 245.83 491.935 243.183C490.425 240.536 487.052 239.614 484.404 241.122L470.239 249.19C454.988 230.283 429.28 217.038 405.026 214.976C407.949 206.906 415.27 193.076 432.312 186.69C456.601 177.59 488.926 190.926 491.716 192.115C499.54 196.539 511.252 201.617 523.806 201.617C524.284 201.617 524.764 201.61 525.245 201.595C528.292 201.5 530.685 198.954 530.59 195.909C530.494 192.863 527.949 190.499 524.898 190.568C516.87 190.822 508.975 188.278 502.626 185.332C508.561 179.076 521.999 168.868 546.041 169.697C578.395 170.811 582.297 189.889 582.436 190.639C582.442 190.683 582.454 190.725 582.461 190.77C582.463 190.783 582.464 190.797 582.467 190.811C582.495 191.127 582.506 191.941 582.516 192.603C582.625 200.077 582.914 219.933 603.828 230.612C604.633 231.023 605.491 231.218 606.336 231.218C608.344 231.218 610.281 230.12 611.257 228.211C612.644 225.498 611.569 222.175 608.853 220.788C595.648 214.045 593.915 202.405 593.622 195.136C600.036 195.198 611.442 195.975 623.003 200.015C645.339 207.82 657.942 223.853 660.468 247.676C660.42 250.17 659.741 270.162 650.61 283.299C648.871 285.801 649.492 289.238 651.996 290.976C652.956 291.642 654.054 291.962 655.14 291.962C656.888 291.962 658.608 291.135 659.68 289.592C671.38 272.759 671.514 248.452 671.514 247.425C671.514 247.239 671.505 247.052 671.486 246.866Z" fill="black"/>
<path d="M403.315 265.784C400.525 264.552 397.265 265.816 396.035 268.604C392.709 276.135 379.094 280.116 374.123 281.015C371.123 281.55 369.125 284.413 369.659 287.411C370.135 290.084 372.462 291.963 375.088 291.963C375.409 291.963 375.734 291.935 376.061 291.876C378.479 291.447 399.862 287.269 406.137 273.057C407.368 270.27 406.104 267.013 403.315 265.784Z" fill="black"/>
<path d="M643.757 280.861C642.903 280.861 642.036 280.662 641.226 280.243C638.517 278.844 637.457 275.515 638.857 272.809C657.236 237.301 627.302 220.887 626.019 220.206C623.334 218.78 622.298 215.448 623.715 212.759C625.132 210.071 628.449 209.028 631.145 210.434C631.569 210.655 641.611 215.974 648.765 226.932C655.45 237.17 660.859 254.32 648.666 277.877C647.684 279.773 645.755 280.861 643.757 280.861Z" fill="#E24DB0"/>
<path d="M439.632 546.582L400.036 464.607L663.426 320.667L775.739 557.759L439.632 546.582Z" fill="url(#paint3_linear_6_635)"/>
<path d="M405.389 475.789C345.027 474.701 261.8 451.221 221.423 438.679C207.745 434.43 199.808 420.225 203.36 406.361C205.92 396.37 209.349 383.751 213.699 369.29C224.762 332.516 241.327 310.833 241.327 310.833L267.058 311.999C256.287 329.689 238.997 380.468 231.948 401.835C230.199 407.139 233.202 412.83 238.57 414.384C265.737 422.251 342.761 443.337 381.773 441.491L385.734 433.64" fill="#FF90D6"/>
<path d="M405.391 480.386C405.362 480.386 405.334 480.385 405.306 480.385C345.158 479.301 263.425 456.54 220.057 443.069C204.033 438.091 194.741 421.466 198.903 405.22C202.019 393.061 205.515 380.527 209.293 367.967C220.469 330.818 236.973 308.956 237.67 308.044C238.585 306.846 240.025 306.172 241.535 306.241L267.266 307.407C268.89 307.48 270.354 308.404 271.118 309.837C271.883 311.271 271.833 313 270.988 314.388C260.45 331.696 243.232 382.314 236.318 403.274C235.867 404.643 235.988 406.098 236.66 407.372C237.332 408.646 238.465 409.568 239.851 409.969C262.751 416.6 339.182 437.766 378.894 436.987L381.626 431.571C382.77 429.304 385.536 428.393 387.805 429.535C390.074 430.678 390.987 433.443 389.843 435.709L385.882 443.56C385.135 445.04 383.648 446.005 381.991 446.083C380.302 446.163 378.539 446.202 376.721 446.202C336.432 446.203 266.439 427.24 237.29 418.8C233.482 417.697 230.368 415.161 228.52 411.659C226.672 408.157 226.338 404.157 227.579 400.396C233.864 381.343 248.573 338.078 259.501 316.258L243.621 315.538C239.504 321.522 226.948 341.221 218.106 370.613C214.363 383.053 210.902 395.463 207.818 407.501C204.871 418.999 211.447 430.766 222.789 434.289C265.688 447.615 346.466 470.129 405.472 471.192C408.012 471.238 410.035 473.333 409.989 475.872C409.944 478.382 407.893 480.386 405.391 480.386Z" fill="black"/>
<path d="M248.85 212.556C240.464 220.483 246.496 233.282 242.361 233.14C229.508 227 212.354 241.641 221.305 256.166C224.052 260.624 208.616 256.675 203.314 263.298C190.243 279.622 211.415 299.773 224.662 313.902C246.602 337.303 256.353 321.875 272.482 304.454C311.544 262.26 301.886 260.577 290.513 227.72C286.89 217.253 262.616 199.543 248.85 212.556Z" fill="#FF90D6"/>
<path d="M234.762 331.027C234.762 331.027 237.102 325.075 234.762 317.21C232.422 309.345 260.718 310.188 260.292 311.999C259.867 313.809 249.442 338.893 249.442 338.893L234.762 331.027Z" fill="#FF90D6"/>
<path d="M301.047 210.749C301.047 210.749 209.459 301.676 208.768 308.702C208.076 315.728 220.519 330.552 226.221 324.78C231.924 319.008 310.725 230.951 316.082 222.835C321.439 214.72 307.016 204.799 301.047 210.749Z" fill="#84EF41"/>
<path d="M213.691 317.573C212.805 317.573 211.916 317.256 211.21 316.612C209.709 315.242 209.603 312.916 210.974 311.416L300.157 213.835C301.528 212.336 303.857 212.23 305.357 213.599C306.858 214.969 306.964 217.295 305.593 218.795L216.41 316.376C215.684 317.17 214.689 317.573 213.691 317.573Z" fill="white"/>
<path d="M222.865 256.213C221.591 253.655 211.97 256.387 209.733 257.591C206.225 259.481 203.403 262.574 201.793 266.184C198.651 273.233 199.597 281.842 203.624 288.292C207.691 294.806 212.751 301.031 218.738 305.895C220.385 307.234 221.815 308.604 223.937 308.696C226.223 308.795 228.716 307.627 230.688 306.526C233.428 304.995 236.147 303.131 237.99 300.58C240.08 297.686 240.271 295.113 241.327 292.006" fill="#FF90D6"/>
<path d="M222.865 256.213C221.591 253.655 211.97 256.387 209.733 257.591C206.225 259.481 203.403 262.574 201.793 266.184C198.651 273.233 199.597 281.842 203.624 288.292C207.691 294.806 212.751 301.031 218.738 305.895C220.385 307.234 221.815 308.604 223.937 308.696C226.223 308.795 228.716 307.627 230.688 306.526C233.428 304.995 236.147 303.131 237.99 300.58C240.08 297.686 240.271 295.113 241.327 292.006" stroke="black" stroke-width="11.3386" stroke-linecap="round" stroke-linejoin="round"/>
<path d="M245.556 231.054C238.847 229.096 229.644 230.618 224.987 236.653C220.872 241.985 220.293 251.732 223.477 257.479C225.463 261.063 234.451 271.351 236.538 272.585C245.556 277.915 261.954 273.772 258.709 256.332" fill="#FF90D6"/>
<path d="M245.556 231.054C238.847 229.096 229.644 230.618 224.987 236.653C220.872 241.985 220.293 251.732 223.477 257.479C225.463 261.063 234.451 271.351 236.538 272.585C245.556 277.915 261.954 273.772 258.709 256.332" stroke="black" stroke-width="11.3386" stroke-linecap="round" stroke-linejoin="round"/>
<path opacity="0.9" d="M271.849 206.75C265.596 205.062 256.833 206.267 252.742 209.484C249.258 212.223 246.697 215.646 245.913 220.104C244.666 227.192 246.645 232.438 252.534 236.732C260.642 242.645 273.272 242.284 278.878 233.62" stroke="black" stroke-width="11.3386" stroke-linecap="round" stroke-linejoin="round"/>
<path d="M283.946 257.528C285.304 249.695 294.503 234.853 309.783 236.987C309.783 236.987 311.515 237.212 313.655 238.143C317.679 239.892 320.09 254.058 316.532 256.623C310.541 260.943 300.431 268.4 295.62 278.787" fill="#FF90D6"/>
<path d="M267.536 209.618C278.155 211.348 281.63 216.958 283.32 221.027C283.489 221.435 283.659 221.835 283.829 222.231C284.408 222.167 284.986 222.064 285.538 221.965C285.598 221.954 285.659 221.943 285.72 221.931C287.006 220.333 288.341 218.771 289.665 217.203C285.888 209.008 278.853 204.009 268.721 202.359C266.712 202.029 264.823 203.391 264.496 205.396C264.169 207.401 265.53 209.291 267.536 209.618Z" fill="black"/>
<path d="M321.784 248.077C321.588 246.253 320.343 237.04 315.124 234.771C312.58 233.664 310.489 233.37 310.293 233.345C292.651 230.884 281.906 247.751 280.319 256.901C279.972 258.902 281.315 260.805 283.318 261.152C285.32 261.496 287.226 260.157 287.572 258.156C288.596 252.249 296.293 238.812 309.285 240.631C309.298 240.632 310.535 240.815 312.066 241.463C313.89 243.062 315.361 251.625 314.196 253.772C309.565 257.113 293.21 275.352 292.584 276.639C288.74 282.117 280.326 291.557 273.856 298.814C268.607 304.704 264.072 309.79 261.989 312.639C260.543 314.616 258.887 316.957 257.485 320.431C259.089 322.325 260.94 321.677 262.467 323.635C264.613 321.373 267.949 319.765 269.172 317.573C272.069 312.379 274.444 309.215 279.354 303.706C287.75 294.287 294.426 286.687 298.226 281.373C298.52 281.077 298.775 280.732 298.961 280.331C298.968 280.315 298.977 280.3 298.985 280.283C300 278.788 314.162 262.867 318.686 259.606C322.015 257.205 322.209 252.011 321.784 248.077Z" fill="black"/>
<path d="M221.667 332.603C217.42 332.604 213.875 330.259 210.685 327.706C204.921 323.094 201.921 318.02 201.766 312.627C201.554 305.272 206.903 300.374 207.131 300.17C208.642 298.81 210.969 298.934 212.329 300.443C213.683 301.946 213.568 304.257 212.076 305.618C211.987 305.703 208.981 308.585 209.126 312.479C209.242 315.595 211.315 318.786 215.287 321.965C217.692 323.89 219.556 325.256 221.58 325.256C221.593 325.256 221.606 325.256 221.62 325.256C224.304 325.232 227.731 322.8 231.805 318.028C242.563 305.426 278.992 264.834 279.359 264.426C280.716 262.913 283.043 262.787 284.557 264.143C286.07 265.499 286.197 267.824 284.839 269.336C284.473 269.744 248.105 310.269 237.406 322.801C231.163 330.114 226.042 332.603 221.667 332.603Z" fill="black"/>
<path d="M727.058 131.349C719.611 123.221 709.755 121.163 700.3 127.214C694.718 130.745 690.437 135.64 686.588 140.827L686.421 141.05L686.276 141.222C686.276 141.222 685.996 141.553 685.996 141.553C685.534 142.201 684.774 142.856 684.204 143.387C683.511 143.855 682.844 144.374 682.064 144.699C677.765 146.776 672.503 145.713 668.292 143.516C659.107 138.733 653.331 128.445 652.91 118.175C652.661 112.907 653.604 107.608 655.446 102.658C658.529 95.1768 660.215 87.1345 657.245 79.2487C648.929 57.9861 616.522 56.4866 603.95 74.5177C600.05 79.7176 598.594 85.8906 597.484 92.1187C595.928 99.4807 593.861 108.346 588.688 113.382C585.76 116.36 581.513 118.094 577.457 119.169C571.599 120.602 565.532 121.046 559.248 121.179C547.988 121.378 536.594 120.555 525.321 119.63C514.063 118.691 502.382 117.325 491.109 116.175C448.908 111.615 407.624 117.764 372.526 143.034C348.67 159.941 329.407 182.249 309.994 203.694C304.746 201.391 298.381 202.571 294.378 206.96L280.227 222.474C278.857 223.975 278.965 226.301 280.467 227.669C281.97 229.038 284.298 228.93 285.667 227.429L299.819 211.914C302.013 209.509 305.749 209.186 308.324 211.179L311.939 213.975C313.27 215.005 314.119 216.492 314.329 218.161C314.54 219.831 314.086 221.481 313.052 222.809L310.909 225.56C309.661 227.163 309.949 229.474 311.553 230.721C312.225 231.243 313.021 231.496 313.811 231.496C314.908 231.496 315.993 231.009 316.719 230.077L318.861 227.327C321.105 224.446 322.089 220.864 321.633 217.243C321.382 215.248 320.697 213.382 319.662 211.728C334.571 194.806 349.27 177.574 366.148 162.78C391.927 139.859 421.993 127.166 456.503 125.416C473.306 124.265 490.509 125.985 507.314 127.649C518.838 128.686 530.348 129.622 541.936 130.072C553.819 130.434 565.552 130.755 577.427 128.209C596.831 124.027 602.235 111.717 605.596 93.7525C606.833 85.8077 608.722 78.9412 615.599 74.0954C627.067 65.5898 648.741 69.7257 651.307 85.271C652.219 90.3284 650.614 95.5566 648.791 100.294C647.507 103.866 646.613 107.749 646.229 111.557C645.657 116.984 646.147 122.579 647.765 127.808C650.592 136.857 656.837 144.882 665.375 149.211C673.784 153.579 684.578 153.377 690.767 145.35C691.194 144.828 691.736 144.116 692.127 143.554C699.971 132.847 711.41 122.757 723.055 135.148C724.102 136.253 725.857 136.301 726.962 135.248C728.066 134.198 728.109 132.452 727.058 131.349Z" fill="black"/>
<path d="M722.965 133.296C722.965 133.296 725.417 143.751 729.995 144.567C734.572 145.384 736.698 141.79 735.88 139.34C735.063 136.89 729.058 129.413 723.723 131.927" fill="black"/>
<path d="M216.691 264.367C216.466 264.489 211.157 267.42 209.655 273.422C208.606 277.616 209.646 282.116 212.748 286.796C213.279 287.598 214.157 288.032 215.052 288.032C215.576 288.032 216.105 287.884 216.573 287.574C217.845 286.733 218.193 285.022 217.351 283.752C215.155 280.436 214.363 277.427 214.999 274.809C215.875 271.207 219.24 269.264 219.334 269.211C220.664 268.482 221.156 266.815 220.433 265.48C219.707 264.14 218.031 263.641 216.691 264.367Z" fill="#FFD1F3"/>
<path d="M236.03 238.142C235.565 238.318 231.442 239.997 229.948 244.628C228.68 248.56 229.777 253.179 233.209 258.359C233.74 259.161 234.618 259.595 235.513 259.595C236.037 259.595 236.566 259.446 237.035 259.137C238.306 258.295 238.654 256.584 237.812 255.314C235.409 251.686 234.501 248.596 235.186 246.376C235.852 244.218 237.879 243.345 238.014 243.289C239.422 242.74 240.127 241.158 239.59 239.743C239.049 238.319 237.458 237.601 236.03 238.142Z" fill="#FFD1F3"/>
<path d="M261.72 227.886C259.682 226.66 258.568 225.315 258.41 223.887C258.157 221.608 260.209 219.098 261.023 218.321C262.128 217.278 262.182 215.538 261.142 214.429C260.099 213.317 258.352 213.261 257.24 214.302C256.737 214.773 252.345 219.058 252.917 224.453C253.262 227.699 255.266 230.444 258.874 232.613C259.319 232.88 259.81 233.008 260.294 233.008C261.231 233.008 262.144 232.531 262.663 231.671C263.448 230.366 263.026 228.671 261.72 227.886Z" fill="#FFD1F3"/>
<path d="M296.643 246.5C291.367 250.843 290.405 256.127 290.405 256.127L308.195 242.356C308.195 242.356 301.92 242.157 296.643 246.5Z" fill="#FFD1F3"/>
<path d="M280.877 230.532C279.169 229.428 276.891 229.917 275.787 231.623C273.556 235.072 270.182 236.334 267.744 236.785C263.37 237.596 258.371 236.437 254.704 233.762C250.01 230.339 248.513 226.566 249.538 220.74C250.095 217.572 251.887 214.835 255.018 212.373C257.86 210.14 265.25 208.778 270.889 210.3C272.851 210.831 274.872 209.67 275.402 207.709C275.932 205.748 274.771 203.73 272.808 203.2C265.285 201.168 255.47 202.659 250.466 206.594C245.911 210.175 243.16 214.506 242.287 219.467C241.833 222.047 241.764 224.448 242.068 226.686C234.989 226.045 226.819 228.255 222.072 234.407C218.696 238.781 217.247 245.516 217.942 251.605C213.833 252.037 209.344 253.624 207.987 254.355C203.787 256.616 200.393 260.286 198.431 264.688C194.864 272.689 195.657 282.479 200.501 290.238C205.193 297.754 210.548 303.981 216.416 308.748L216.895 309.142C218.564 310.52 220.64 312.234 223.778 312.37C223.921 312.376 224.062 312.379 224.204 312.379C227.373 312.379 230.428 310.884 232.484 309.736C234.954 308.356 238.521 306.128 240.974 302.732C242.86 300.122 243.53 297.676 244.122 295.518C244.341 294.721 244.547 293.969 244.812 293.19C245.165 292.154 245.025 291.071 244.523 290.189C244.462 290.005 244.39 289.819 244.292 289.631C241.808 284.869 237.641 279.25 236.465 277.508C236.182 277.09 236.03 276.742 235.956 276.441C238.699 277.782 241.756 278.451 244.796 278.45C248.715 278.45 252.602 277.344 255.739 275.153C259.116 272.794 264.461 267.125 262.328 255.659L263.058 249.013L266.334 245.676C266.334 245.676 254.862 248.821 255.094 255.659C255.013 256.092 255.006 256.545 255.091 257.004C256.128 262.578 254.893 266.769 251.521 269.125C247.966 271.609 242.33 271.735 238.464 269.452C236.842 268.34 228.479 258.913 226.697 255.697C224.171 251.138 224.757 242.974 227.902 238.898C231.516 234.216 239.192 233.028 244.524 234.584C244.778 234.658 245.034 234.702 245.288 234.721C246.599 236.527 248.285 238.186 250.364 239.702C254.541 242.748 259.745 244.398 264.879 244.398C266.294 244.398 267.704 244.273 269.085 244.017C274.542 243.007 279.117 240.024 281.969 235.616C283.073 233.911 282.584 231.634 280.877 230.532ZM234.664 275.75C234.666 275.751 234.668 275.752 234.67 275.754L234.062 276.343L231.142 275.549C231.142 275.549 238.629 285.071 237.631 291.471C237.628 291.485 237.628 291.497 237.626 291.51C237.401 292.228 237.203 292.917 237.023 293.575C236.494 295.502 236.112 296.896 235.005 298.428C233.407 300.64 230.75 302.277 228.892 303.316C226.783 304.494 225.17 305.073 224.097 305.021C223.457 304.994 222.76 304.443 221.584 303.472L221.06 303.042C215.823 298.788 211.008 293.17 206.747 286.345C203.234 280.718 202.609 273.392 205.156 267.68C206.459 264.756 208.705 262.323 211.48 260.829C212.997 260.011 217.943 258.759 220.04 258.82C220.114 258.965 220.179 259.118 220.257 259.259C222.349 263.035 231.748 274.027 234.664 275.75Z" fill="black"/>
<path d="M578.739 542.063L652.875 281.105L1131.22 170.926C1141.01 168.672 1149.97 177.027 1148.4 186.939L1088.54 564.011L578.739 542.063Z" fill="white" stroke="black" stroke-width="19.8425" stroke-miterlimit="10"/>
<path d="M572.332 536.576L643.83 284.904C645.457 279.176 650.075 274.787 655.882 273.45L1130.15 164.211C1137.38 162.544 1144.01 168.722 1142.85 176.051L1082.13 558.524L572.332 536.576Z" fill="white"/>
<path d="M568.603 539.268C591.189 456.545 616.168 367.003 639.667 284.173C641.13 278.644 644.964 273.74 650.095 271.143C652.685 269.673 656.936 268.915 659.864 268.221C735.649 250.752 878.95 217.449 954.697 199.788C977.586 194.414 1108.62 163.784 1128.84 159.025C1128.91 159.005 1129.07 158.977 1129.21 158.951L1129.63 158.875L1130.48 158.735C1131.04 158.623 1131.63 158.633 1132.2 158.602C1140.54 158.269 1148.05 165.191 1148.39 173.531C1148.6 175.249 1148.11 177.51 1147.89 179.224C1131.71 284.911 1114.04 418.285 1097.14 523.785C1097.14 523.785 1094.26 541.886 1094.26 541.886C1093.42 547.94 1092.47 553.975 1086.67 559.242C1086.67 559.244 1086.03 563.291 1086.03 563.292C935.622 557.44 721.095 546.335 568.603 539.268ZM576.062 533.884C725.65 538.989 934.971 547.794 1082.33 553.93C1082.33 553.931 1077.58 557.803 1077.58 557.803L1077.58 557.802C1073.7 551.001 1074.67 544.967 1075.75 538.953L1078.62 520.849C1095.25 415.343 1119.7 282.981 1137.07 177.51C1137.07 177.51 1137.45 175.249 1137.45 175.249C1137.47 175.007 1137.47 174.859 1137.5 174.661C1137.55 174.471 1137.49 174.294 1137.51 174.11C1137.37 171.065 1134.45 168.763 1131.44 169.411C1111.88 173.879 979.348 203.817 956.815 208.969C880.989 226.255 737.519 258.951 661.753 276.409C661.753 276.409 657.284 277.438 657.284 277.438C656.105 277.692 655.029 278.051 653.967 278.601C650.888 280.178 648.606 283.093 647.759 286.457C624.937 367.225 599.674 453.448 576.062 533.884Z" fill="#494949"/>
<path opacity="0.9" d="M641.816 321.284L1121.16 239.335L1132.79 178.688C1133.31 175.96 1130.85 173.596 1128.14 174.221L656.502 283.017C654.203 283.547 652.37 285.276 651.707 287.537L641.816 321.284Z" fill="#C8C8C8"/>
<path d="M1016.75 127.486C1006.99 122.487 987.695 131.617 976.757 137.858C954.856 150.353 1009.47 165.271 1019.71 160.378C1035.08 153.032 977.796 146.972 989.84 144.583C1001.11 142.347 1000.21 144.713 1009.41 137.858C1015.41 135.747 1020.74 129.532 1016.75 127.486Z" fill="#490000"/>
<path d="M1023.72 107.721L1001.95 205.788C1001.04 209.888 1003.09 214.072 1006.89 215.861L1028.08 225.828C1029.36 226.431 1030.79 226.661 1032.2 226.492L1098.7 218.507C1103.54 217.925 1107.47 214.308 1108.45 209.53L1129.37 107.092C1129.99 104.045 1128.99 100.892 1126.73 98.7567L1114.41 87.1372C1112.16 85.016 1108.79 84.6177 1106.11 86.1569L1055.46 115.242L1029.59 104.654C1027.1 103.637 1024.3 105.101 1023.72 107.721Z" fill="#490000"/>
<path d="M1027.77 112.257L1005.84 204.175C1005.05 207.489 1007.75 210.597 1011.15 210.277L1075.74 204.185C1080.7 203.717 1084.78 200.065 1085.79 195.184L1106.43 95.2327C1106.77 93.57 1105 92.2756 1103.52 93.1084L1055.17 120.302L1031.44 110.393C1029.91 109.752 1028.16 110.639 1027.77 112.257Z" fill="#F94343"/>
<path d="M1041.7 149.672C1048.23 149.672 1053.53 144.382 1053.53 137.858C1053.53 131.333 1048.23 126.043 1041.7 126.043C1035.17 126.043 1029.88 131.333 1029.88 137.858C1029.88 144.382 1035.17 149.672 1041.7 149.672Z" fill="white"/>
<path d="M1063.95 146.971C1071.33 146.971 1077.3 140.999 1077.3 133.632C1077.3 126.266 1071.33 120.294 1063.95 120.294C1056.58 120.294 1050.6 126.266 1050.6 133.632C1050.6 140.999 1056.58 146.971 1063.95 146.971Z" fill="white"/>
<path d="M1036.61 136.874C1036.93 134.129 1036 131.767 1034.53 131.597C1033.06 131.428 1031.62 133.515 1031.3 136.26C1030.98 139.004 1031.91 141.367 1033.38 141.536C1034.85 141.706 1036.3 139.618 1036.61 136.874Z" fill="#490000"/>
<path d="M1058.06 132.951C1058.38 130.207 1057.44 127.844 1055.98 127.675C1054.51 127.505 1053.06 129.592 1052.74 132.337C1052.42 135.082 1053.36 137.444 1054.83 137.614C1056.29 137.783 1057.74 135.696 1058.06 132.951Z" fill="#490000"/>
<path d="M974.941 143.274C982.165 136.433 1000.47 128.669 1010.31 128.84C1010.95 128.851 1011.22 129.645 1010.74 130.059C1009.33 131.268 1006.48 131.852 1005.06 131.33C1003.96 134.118 1000.04 134.332 997.528 133.753C994.84 137.625 991.858 137.471 987.469 138.36C983.56 138.881 980.03 141.111 976.994 143.516C976.656 143.835 974.602 144.319 974.941 143.274Z" fill="#F94343"/>
<path d="M1066.93 169.643C1070.59 163.593 1065.85 155.897 1062.34 161.581C1058.82 167.265 1060.12 169.877 1060.12 169.877C1060.12 169.877 1062.48 167.218 1064.21 168.049C1065.94 168.881 1066.93 169.643 1066.93 169.643Z" fill="#490000"/>
<path d="M801.089 336.704C801.089 336.704 811.217 309.003 810.713 305.476C810.208 301.949 808.528 299.094 803.317 300.606C798.106 302.117 801.089 336.704 801.089 336.704Z" fill="#707070"/>
<path d="M944.309 282.525L936.195 320.611L928.812 321.284L933.511 286.047C934.17 281.103 929.854 276.931 924.93 277.754L831.374 293.39C826.76 294.161 823.084 297.666 822.097 302.235L815.116 334.55C815.116 334.55 802.196 335.657 801.089 336.704C800.42 337.336 804.198 318.858 807.293 304.132C807.997 300.784 805.108 297.779 801.731 298.343L736.872 309.183C732.274 309.952 728.641 313.502 727.772 318.079L722.68 344.878L712.495 346.256L718.085 318.045C718.652 315.185 716.181 312.641 713.302 313.122L649.804 323.734C644.945 324.546 641.017 328.136 639.775 332.9L632.392 361.23L1104.15 313.914L1115.97 259.013C1117.39 252.452 1111.73 246.535 1105.11 247.642L954.46 272.819C949.403 273.664 945.377 277.514 944.309 282.525Z" fill="#C8C8C8"/>
<path d="M962.575 286.137L994.962 277.636C994.962 277.636 991.389 306.868 976.649 307.537C961.91 308.207 962.575 286.137 962.575 286.137Z" fill="white"/>
<path opacity="0.9" d="M967.725 289.043C965.492 292.629 967.625 300.566 970.834 298.762C974.043 296.959 974.444 294.353 974.244 291.047C974.043 287.74 970.533 284.533 967.725 289.043Z" fill="#707070"/>
<path d="M998.815 276.918C998.815 276.918 1000.32 303.171 1015.26 301.268C1030.21 299.364 1030.81 275.415 1030.81 275.415L998.815 276.918Z" fill="white"/>
<path opacity="0.9" d="M1001.75 282.95C1000.48 286.978 1004.52 294.137 1007.18 291.593C1009.84 289.05 1009.58 286.426 1008.56 283.273C1007.55 280.12 1003.35 277.885 1001.75 282.95Z" fill="#707070"/>
<path d="M886.239 294.129C886.239 294.129 887.618 318.192 901.313 316.447C915.009 314.702 915.561 292.752 915.561 292.752L886.239 294.129Z" fill="white"/>
<path opacity="0.9" d="M888.929 299.658C887.763 303.35 891.466 309.911 893.904 307.58C896.342 305.249 896.105 302.844 895.173 299.954C894.241 297.064 890.394 295.016 888.929 299.658Z" fill="#707070"/>
<path d="M870.796 298.468L860.09 301.579C857.039 302.466 855.054 305.399 855.367 308.559L855.891 313.842L880.183 304.644C879.625 300.137 875.161 297.2 870.796 298.468Z" fill="white"/>
<path opacity="0.9" d="M857.736 313.032C857.736 313.032 855.28 305.646 859.732 303.748C864.184 301.85 865.891 309.944 865.891 309.944L857.736 313.032Z" fill="#707070"/>
<path d="M731.406 327.048L748.829 323.952C748.829 323.952 750.454 308.473 740.6 311.873C730.745 315.273 731.406 327.048 731.406 327.048Z" fill="white"/>
<path d="M772.081 318.175C772.081 324.546 767.699 330.417 762.292 331.288C756.886 332.16 752.504 327.701 752.504 321.329C752.504 314.958 756.886 309.087 762.292 308.216C767.699 307.345 772.081 311.803 772.081 318.175Z" fill="white"/>
<path d="M733.284 326.714C733.249 326.321 732.939 321.23 736.171 320.172C739.403 319.115 739.699 325.574 739.699 325.574L733.284 326.714Z" fill="#707070"/>
<path d="M670.049 342.848L688.969 341.323C688.969 341.323 692.29 324.961 681.42 327.585C670.549 330.208 670.049 342.848 670.049 342.848Z" fill="white"/>
<path d="M672.088 342.683C672.092 342.26 672.282 336.793 675.841 335.993C679.4 335.194 679.055 342.122 679.055 342.122L672.088 342.683Z" fill="#707070"/>
<path d="M756.077 316.14C752.899 318.467 752.667 326.176 757.878 325.792C759.074 325.704 759.503 324.659 760.096 323.728C760.765 322.679 761.099 321.483 761.175 320.237C761.278 318.543 760.614 316.918 759.319 315.872C758.366 315.103 757.184 315.172 756.077 316.14Z" fill="#707070"/>
<path d="M642.389 340.699L640.21 345.126L667.945 343.146L642.389 340.699Z" fill="#707070"/>
<path d="M964.21 222.977L981.114 234.883L960.885 257.587" stroke="white" stroke-width="8.5039" stroke-linecap="round" stroke-linejoin="round"/>
<path d="M981.114 234.883L951.486 241.358" stroke="white" stroke-width="8.5039" stroke-linecap="round" stroke-linejoin="round"/>
<path d="M929.063 261.563L912.159 249.657L932.065 232.61" stroke="white" stroke-width="8.5039" stroke-linecap="round" stroke-linejoin="round"/>
<path d="M912.159 249.657L941.787 243.181" stroke="white" stroke-width="8.5039" stroke-linecap="round" stroke-linejoin="round"/>
<path d="M674.528 296.662C673.792 302.039 668.638 307.456 663.015 308.761C657.392 310.066 653.43 306.765 654.166 301.389C654.901 296.012 660.055 290.595 665.678 289.29C671.301 287.985 675.263 291.285 674.528 296.662Z" fill="white"/>
<path d="M689.447 283.06L684.879 306.007C684.879 306.007 886.669 270.6 887.336 269.493C888.004 268.385 892.27 238.121 892.27 238.121L689.447 283.06Z" fill="white"/>
<g clip-path="url(#clip1_6_635)">
<path d="M583.541 358.543C605.228 353.629 618.82 332.079 613.902 310.411C608.983 288.743 587.415 275.162 565.729 280.076C544.042 284.991 530.45 306.541 535.368 328.209C540.287 349.877 561.855 363.458 583.541 358.543Z" fill="white"/>
<mask id="mask1_6_635" style="mask-type:luminance" maskUnits="userSpaceOnUse" x="534" y="279" width="81" height="81">
<path d="M583.541 358.543C605.228 353.629 618.82 332.079 613.902 310.411C608.983 288.743 587.415 275.162 565.729 280.076C544.042 284.991 530.45 306.541 535.368 328.209C540.287 349.877 561.855 363.458 583.541 358.543Z" fill="white"/>
</mask>
<g mask="url(#mask1_6_635)">
<path d="M619.227 316.344C616.583 303.272 606.105 294.357 595.823 296.433C585.541 298.509 579.349 310.789 581.992 323.862C584.636 336.934 595.115 345.849 605.397 343.773C615.679 341.697 621.871 329.417 619.227 316.344Z" fill="#84EF41"/>
<path d="M611.113 317.982C609.622 310.607 603.71 305.577 597.909 306.748C592.107 307.92 588.614 314.848 590.106 322.224C591.597 329.599 597.509 334.629 603.31 333.458C609.111 332.287 612.605 325.358 611.113 317.982Z" fill="black"/>
<path d="M601.379 305.258C600.795 302.372 598.481 300.403 596.211 300.862C593.941 301.32 592.573 304.032 593.157 306.918C593.741 309.805 596.055 311.773 598.325 311.315C600.596 310.857 601.963 308.145 601.379 305.258Z" fill="white"/>
<path d="M593.302 313.158C592.931 311.321 591.458 310.069 590.013 310.361C588.569 310.652 587.699 312.378 588.07 314.215C588.442 316.052 589.914 317.304 591.359 317.013C592.804 316.721 593.674 314.995 593.302 313.158Z" fill="white"/>
</g>
</g>
<path d="M535.426 337.331L624.204 291.935L589.438 252.401L530.383 299.179L535.426 337.331Z" fill="#FF90D6"/>
<path d="M624.204 291.935C624.204 291.935 601.406 294.317 580.78 303.414C560.153 312.511 535.426 337.331 535.426 337.331L624.204 291.935Z" fill="#E24DB0"/>
<path d="M501.882 392.818C466.369 400.874 450.185 378.735 446.471 352.852C442.756 326.968 527.788 316.907 532.316 345.079C536.843 373.251 522.768 388.081 501.882 392.818Z" fill="#FFD1F3"/>
<path d="M472.372 302.756C506.542 289.019 526.877 308.514 535.383 333.746C543.889 358.978 456.273 385.392 446.529 358.007C436.784 330.622 452.276 310.834 472.372 302.756Z" fill="#E24DB0"/>
<g clip-path="url(#clip2_6_635)">
<path d="M492.839 390.019C516.795 386.955 533.901 366.405 531.046 344.12C528.191 321.834 506.456 306.252 482.5 309.316C458.544 312.38 441.438 332.929 444.293 355.215C447.148 377.5 468.882 393.082 492.839 390.019Z" fill="white"/>
<mask id="mask2_6_635" style="mask-type:luminance" maskUnits="userSpaceOnUse" x="443" y="308" width="89" height="83">
<path d="M492.839 390.019C516.795 386.955 533.901 366.405 531.046 344.12C528.191 321.834 506.456 306.252 482.5 309.316C458.544 312.38 441.438 332.929 444.293 355.215C447.148 377.5 468.882 393.082 492.839 390.019Z" fill="white"/>
</mask>
<g mask="url(#mask2_6_635)">
<path d="M536.121 350.57C534.747 337.153 524.45 327.246 513.121 328.442C501.791 329.638 493.72 341.484 495.093 354.901C496.466 368.318 506.763 378.225 518.093 377.029C529.422 375.832 537.494 363.986 536.121 350.57Z" fill="#84EF41"/>
<path d="M527.181 351.513C526.406 343.944 520.596 338.354 514.204 339.029C507.812 339.704 503.258 346.388 504.033 353.957C504.807 361.527 510.617 367.117 517.009 366.442C523.401 365.767 527.955 359.083 527.181 351.513Z" fill="black"/>
<path d="M518.117 337.829C517.814 334.866 515.54 332.679 513.039 332.943C510.537 333.207 508.755 335.823 509.058 338.786C509.361 341.748 511.635 343.936 514.137 343.672C516.638 343.408 518.421 340.792 518.117 337.829Z" fill="white"/>
<path d="M508.508 345.092C508.315 343.207 506.868 341.815 505.276 341.983C503.684 342.151 502.55 343.816 502.743 345.701C502.936 347.586 504.383 348.978 505.975 348.81C507.567 348.642 508.701 346.978 508.508 345.092Z" fill="white"/>
</g>
</g>
<path d="M426.47 293.374L431.189 304.895C431.189 304.895 484.771 300.258 513.804 304.766C513.804 304.766 489.505 285.463 426.47 293.374Z" fill="#E24DB0"/>
<path opacity="0.5" d="M420.021 417.759C420.021 417.759 460.791 428.312 480.09 431.687C499.39 435.062 524.482 443.716 524.482 443.716C524.482 443.716 485.398 445.667 463.445 436.99C441.492 428.312 420.021 417.759 420.021 417.759Z" fill="#84EF41"/>
<path d="M525.519 443.845C525.519 443.845 461.859 436.236 418.633 417.759C418.633 417.759 430.934 435.325 473.643 445.411C516.352 455.498 525.519 443.845 525.519 443.845Z" fill="black"/>
<path d="M789.756 213.219C778.614 211.148 765.845 209.742 757.882 220.262C753.622 225.891 751.126 234.823 753.592 241.76C755.58 247.352 763.309 251.951 768.914 253.018C774.765 254.132 781.679 253.669 787.294 251.806C793.17 249.857 795.755 247.073 800.113 243.56C799.708 249.053 810.142 250.143 813.761 249.958C821.541 249.56 829.496 246.814 835.703 242.014C839.025 239.444 842.716 235.741 844.297 232.462C843.402 240.155 855.099 242.079 860.683 241.998C871.483 241.842 881.734 234.696 886.419 225.45C888.489 221.365 890.375 216.274 893.08 212.655C896.256 214.123 904.652 215.505 906.874 212.323C908.479 210.025 907.952 203.851 907.747 201.241C907.341 196.076 904.435 191.22 901.451 187.114C888.343 169.07 861.33 170.25 852.487 191.495C850.226 186.56 841.547 185.278 836.757 185.047C827.625 184.607 822.14 186.221 814.507 190.87C808.656 194.435 804.478 199.73 799.556 204.416C796.696 207.138 792.566 212.585 788.914 213.839C789.227 213.2 789.605 212.543 789.756 213.219Z" fill="black"/>
<path d="M848.591 200.92C845.506 201.353 840.694 198.127 837.68 197.166C833.605 195.867 829.194 194.799 824.675 195.424C816.506 196.554 808.617 202.97 803.444 208.884C803.417 208.914 803.39 208.945 803.363 208.976C797.684 215.438 789.24 218.653 780.657 218.026C779.637 217.951 778.608 217.919 777.572 217.953C770.979 218.165 763.133 222.586 761.247 229.227C759.431 235.623 763.408 242.538 769.647 244.585C778.083 247.353 783.788 243.928 790.807 240.495C800.165 235.918 800.404 227.633 804.126 220.551C802.84 225.656 796.498 241.088 806.458 243.596C816.796 246.2 829.436 234.793 836.117 228.645C840.524 224.59 843.344 218.977 846.444 214.209C846.795 218.569 844.95 224.575 846.646 228.624C848.533 233.126 855.658 233.3 859.924 232.633C865.914 231.696 872.735 227.379 876.047 222.514C879.503 217.437 881.13 211.035 885.43 206.479C886.921 204.899 889.169 203.052 891.683 203.519C893.344 203.827 894.008 205.575 895.783 205.22C896.461 194.385 890.144 184.76 878.592 184.165C870.622 183.755 862.341 187.566 857.423 193.704C854.95 196.789 853.081 202.096 848.227 201.454C848.051 201.184 848.172 201.006 848.591 200.92Z" fill="#FF90D6"/>
<path d="M849.813 214.057C849.813 214.057 843.991 232.201 853.797 228.527C863.602 224.853 870.343 216.259 870.956 210.3L849.813 214.057Z" fill="#FFD1F3"/>
<path d="M805.485 217.812C805.485 217.812 796.191 238.177 808.141 234.883C820.091 231.589 826.832 215.325 826.832 215.325L805.485 217.812Z" fill="#FFD1F3"/>
<path d="M761.247 229.227C761.247 229.227 773.823 223.856 782.709 222.977C791.595 222.098 779.874 215.112 771.978 219.659C764.082 224.206 761.247 229.227 761.247 229.227Z" fill="#FFD1F3"/>
<mask id="mask3_6_635" style="mask-type:luminance" maskUnits="userSpaceOnUse" x="758" y="324" width="575" height="185">
<path d="M758.417 344.538L764.095 508.773L1332.83 489.105L1327.15 324.87L758.417 344.538Z" fill="white"/>
</mask>
<g mask="url(#mask3_6_635)">
<path d="M1235.9 411.244L848.604 405.002L848.621 351.317C848.623 344.735 853.965 339.4 860.553 339.402L1224 339.492C1230.58 339.494 1235.92 344.831 1235.92 351.413L1235.9 411.244Z" fill="#757575"/>
<path d="M876.259 357.773L867.9 357.771L867.902 352.55L890.666 352.555L890.664 357.776L882.305 357.774L882.298 380.24L876.252 380.239L876.259 357.773Z" fill="white"/>
<path d="M891.933 366.4C891.936 358.173 897.983 352.082 906.23 352.085C914.44 352.086 920.521 358.14 920.518 366.407C920.516 374.673 914.431 380.723 906.221 380.721C897.974 380.719 891.931 374.627 891.933 366.4ZM914.398 366.405C914.4 361.144 910.893 357.544 906.229 357.543C901.564 357.542 898.054 361.14 898.053 366.401C898.051 371.661 901.558 375.262 906.223 375.263C910.888 375.264 914.397 371.666 914.398 366.405Z" fill="white"/>
<path d="M923.431 366.408C923.434 358.181 929.481 352.09 937.728 352.093C945.938 352.094 952.019 358.148 952.016 366.415C952.014 374.681 945.929 380.731 937.719 380.729C929.472 380.727 923.428 374.635 923.431 366.408ZM945.896 366.413C945.898 361.153 942.391 357.552 937.726 357.551C933.062 357.55 929.552 361.148 929.551 366.409C929.549 371.669 933.056 375.27 937.721 375.271C942.386 375.272 945.895 371.674 945.896 366.413Z" fill="white"/>
<path d="M990.9 380.267L990.868 363.655L983.177 377.339L980.453 377.338L972.807 364.006L972.801 380.263L967.129 380.261L967.138 352.574L972.139 352.576L981.91 369.783L991.543 352.581L996.507 352.582L996.573 380.269L990.9 380.267Z" fill="white"/>
<path d="M1019.98 374.342L1007.85 374.339L1005.53 380.271L999.337 380.27L1010.99 352.586L1016.96 352.587L1028.63 380.277L1022.29 380.275L1019.98 374.342ZM1018.07 369.477L1013.93 358.875L1009.79 369.475L1018.07 369.477Z" fill="white"/>
<path d="M1055.32 352.597L1055.32 380.284L1050.35 380.282L1037.33 363.47L1037.33 380.279L1031.36 380.278L1031.37 352.591L1036.37 352.592L1049.35 369.405L1049.35 352.595L1055.32 352.597Z" fill="white"/>
<path d="M1074.06 370.48L1074.05 380.288L1068.01 380.287L1068.01 370.399L1057.9 352.598L1064.32 352.599L1071.3 364.902L1078.28 352.602L1084.21 352.604L1074.06 370.48Z" fill="white"/>
<path d="M1102.72 357.83L1094.36 357.828L1094.36 352.607L1117.13 352.612L1117.13 357.833L1108.77 357.831L1108.76 380.297L1102.72 380.296L1102.72 357.83Z" fill="white"/>
<path d="M1136.3 374.371L1124.18 374.368L1121.86 380.3L1115.67 380.299L1127.32 352.615L1133.29 352.616L1144.96 380.306L1138.62 380.305L1136.3 374.371ZM1134.4 369.506L1130.26 358.904L1126.12 369.504L1134.4 369.506Z" fill="white"/>
<path d="M1171.65 372.759C1171.65 377.544 1168.06 380.312 1161.2 380.31L1147.69 380.307L1147.7 352.62L1160.46 352.623C1166.99 352.625 1170.35 355.513 1170.35 359.824C1170.34 362.593 1169 364.729 1166.87 365.915C1169.78 366.904 1171.65 369.278 1171.65 372.759ZM1165.57 372.084C1165.57 369.751 1163.89 368.643 1160.75 368.642L1153.7 368.641L1153.7 375.484L1160.75 375.485C1163.88 375.486 1165.56 374.458 1165.57 372.084ZM1153.7 357.447L1153.7 363.973L1159.71 363.974C1162.66 363.975 1164.26 362.868 1164.26 360.693C1164.26 358.518 1162.66 357.45 1159.71 357.449L1153.7 357.447Z" fill="white"/>
<path d="M1174.19 377.585L1176.24 372.759C1178.44 374.461 1181.73 375.648 1184.86 375.649C1188.44 375.65 1189.9 374.384 1189.9 372.684C1189.9 367.502 1174.71 371.058 1174.71 360.774C1174.72 356.068 1178.3 352.153 1185.73 352.154C1189.01 352.156 1192.37 352.987 1194.79 354.609L1192.92 359.474C1190.5 358.009 1188 357.297 1185.69 357.297C1182.1 357.296 1180.72 358.719 1180.72 360.46C1180.72 365.562 1195.91 362.046 1195.91 372.211C1195.91 376.839 1192.28 380.793 1184.82 380.791C1180.68 380.79 1176.5 379.484 1174.19 377.585Z" fill="white"/>
<path d="M1210.88 360.507C1210.88 358.568 1209.27 357.343 1206.85 357.342C1204.46 357.341 1202.63 358.448 1201.43 360.267L1196.92 357.458C1198.94 354.215 1202.44 352.159 1207.48 352.16C1213.08 352.161 1216.96 354.813 1216.96 359.48C1216.96 365.808 1210.69 366.519 1210.69 370.712L1205.05 370.71C1205.05 365.172 1210.88 363.948 1210.88 360.507ZM1204.3 377.039C1204.3 375.021 1205.8 373.518 1207.89 373.519C1209.98 373.52 1211.47 375.022 1211.47 377.04C1211.47 379.018 1209.97 380.639 1207.88 380.639C1205.79 380.638 1204.3 379.016 1204.3 377.039Z" fill="white"/>
<mask id="mask4_6_635" style="mask-type:luminance" maskUnits="userSpaceOnUse" x="761" y="334" width="570" height="166">
<path d="M761.11 334.577L761.063 498.91L1330.14 499.066L1330.18 334.733L761.11 334.577Z" fill="white"/>
</mask>
<g mask="url(#mask4_6_635)">
<path d="M769.705 420.656C775.378 444.297 781.051 467.939 786.724 491.58C915.705 460.962 1049.64 453.118 1181.24 469.385C1222.71 474.511 1263.83 482.039 1304.48 491.709C1310.17 468.071 1315.85 444.432 1321.54 420.793C1277.92 410.41 1233.78 402.342 1189.27 396.886C1049.29 379.726 906.88 388.076 769.705 420.656Z" fill="#0EBE00"/>
<path d="M803.831 431.714C798.66 432.808 793.497 433.943 788.341 435.108C787.864 432.999 787.625 431.945 787.147 429.837C799.644 427.034 812.174 424.414 824.747 421.976C825.155 424.099 825.359 425.16 825.767 427.283C820.581 428.277 815.403 429.312 810.231 430.376C812.797 442.807 815.362 455.237 817.928 467.668C815.451 468.178 814.213 468.437 811.739 468.962C809.103 456.546 806.467 444.13 803.831 431.714Z" fill="white"/>
<path d="M863.879 448.173C855.998 449.46 848.132 450.817 840.276 452.243C839.305 456.102 838.349 459.965 837.408 463.831C834.824 464.317 833.532 464.563 830.951 465.064C834.846 449.502 838.97 434.005 843.322 418.565C845.906 418.112 847.199 417.89 849.784 417.451C859.08 430.536 868.176 443.754 877.075 457.112C874.429 457.512 873.106 457.716 870.462 458.131C868.281 454.803 866.086 451.484 863.879 448.173ZM860.852 443.631C856.475 437.143 852.058 430.684 847.598 424.253C845.553 431.806 843.556 439.371 841.606 446.949C848.014 445.8 854.429 444.694 860.852 443.631Z" fill="white"/>
<path d="M924.619 450.962C923.465 440.465 922.31 429.969 921.155 419.472C916.644 428.792 912.232 438.156 907.918 447.569C906.749 447.711 906.165 447.784 904.998 447.93C898.525 439.913 891.968 431.968 885.326 424.09C886.778 434.487 888.23 444.884 889.682 455.281C887.26 455.619 886.05 455.791 883.629 456.142C881.545 441.798 879.462 427.455 877.379 413.112C879.527 412.8 880.601 412.647 882.75 412.345C890.5 421.518 898.132 430.784 905.647 440.15C910.567 429.25 915.62 418.415 920.808 407.639C922.964 407.409 924.041 407.296 926.198 407.075C927.697 421.491 929.196 435.908 930.693 450.324C928.263 450.572 927.048 450.7 924.619 450.962Z" fill="white"/>
<path d="M975.865 441.205C975.998 443.362 976.064 444.441 976.197 446.599C965.45 447.279 954.716 448.094 943.989 449.043C942.684 434.608 941.379 420.173 940.074 405.738C950.908 404.779 961.75 403.952 972.604 403.256C972.739 405.414 972.806 406.492 972.94 408.65C964.324 409.202 955.716 409.835 947.111 410.548C947.487 414.983 947.862 419.419 948.238 423.855C955.816 423.227 963.396 422.661 970.983 422.156C971.119 424.264 971.188 425.318 971.324 427.425C963.772 427.928 956.227 428.491 948.684 429.116C949.079 433.778 949.474 438.441 949.869 443.104C958.53 442.387 967.193 441.754 975.865 441.205Z" fill="white"/>
<path d="M1005.62 413.514C1005.71 416.212 1005.75 417.561 1005.85 420.259C1003.62 420.335 1002.51 420.376 1000.28 420.463C1000.18 417.733 1000.12 416.369 1000.02 413.639C997.335 409.742 994.638 405.856 991.924 401.98C994.311 401.871 995.504 401.82 997.892 401.723C999.909 404.633 1000.91 406.091 1002.9 409.01C1004.68 405.953 1005.57 404.427 1007.37 401.377C1009.57 401.305 1010.66 401.273 1012.86 401.211C1010.43 405.303 1008.01 409.403 1005.62 413.514Z" fill="white"/>
<path d="M1012.66 410.631C1012.5 404.93 1018.25 400.781 1023.5 400.588C1028.96 400.387 1034.66 404.396 1034.71 410.22C1034.76 415.971 1029.29 420.154 1023.87 420.158C1018.64 420.161 1012.83 416.258 1012.66 410.631ZM1029.04 410.285C1029 407.032 1026.6 404.94 1023.59 404.997C1020.57 405.053 1018.25 407.233 1018.33 410.485C1018.41 413.737 1020.8 415.805 1023.79 415.749C1026.78 415.693 1029.09 413.538 1029.04 410.285Z" fill="white"/>
<path d="M1037.49 411.219C1037.47 407.742 1037.45 404.265 1037.42 400.787C1039.69 400.772 1040.82 400.767 1043.08 400.763C1043.09 404.186 1043.09 407.61 1043.1 411.034C1043.11 414.26 1044.52 415.546 1046.86 415.549C1049.17 415.552 1050.59 414.27 1050.6 411.043C1050.62 407.62 1050.64 404.196 1050.65 400.773C1052.88 400.783 1053.99 400.791 1056.22 400.811C1056.19 404.288 1056.16 407.766 1056.12 411.243C1056.19 416.521 1051.82 420.052 1046.8 419.959C1041.92 419.868 1037.2 416.604 1037.49 411.219Z" fill="white"/>
<path d="M1068.51 414.813C1067.29 414.788 1066.68 414.777 1065.46 414.756C1065.43 416.756 1065.41 417.756 1065.38 419.756C1063.15 419.717 1062.04 419.7 1059.81 419.673C1059.89 413.399 1059.97 407.126 1060.05 400.853C1063.71 400.899 1065.53 400.929 1069.19 401.004C1073.55 401.126 1077.96 403.388 1077.88 408.18C1077.84 410.916 1076.33 412.949 1073.84 414.017C1075.49 416.425 1076.31 417.63 1077.94 420.043C1075.56 419.975 1074.37 419.945 1071.98 419.89C1070.6 417.857 1069.91 416.841 1068.51 414.813ZM1068.76 405.19C1067.51 405.165 1066.89 405.154 1065.63 405.132C1065.59 407.336 1065.58 408.438 1065.54 410.643C1066.78 410.664 1067.41 410.676 1068.65 410.701C1070.98 410.748 1072.16 409.755 1072.2 408.034C1072.24 406.287 1071.1 405.237 1068.76 405.19Z" fill="white"/>
<path d="M1107.8 416.105C1107.56 420.209 1102.72 421.178 1099.43 420.851C1095.89 420.683 1092.35 420.533 1088.81 420.401C1089.05 414.132 1089.28 407.863 1089.52 401.594C1092.93 401.721 1096.34 401.865 1099.74 402.025C1102.89 402.01 1107.48 403.439 1107.3 407.328C1107.22 409.115 1106.16 410.525 1104.42 411.271C1106.62 412.136 1107.92 413.829 1107.8 416.105ZM1094.95 405.66C1094.89 407.111 1094.86 407.836 1094.8 409.287C1096.34 409.352 1097.11 409.387 1098.66 409.457C1100.53 409.543 1101.52 408.973 1101.58 407.765C1101.64 406.583 1100.7 405.918 1098.82 405.832C1097.28 405.76 1096.5 405.726 1094.95 405.66ZM1102.18 415.223C1102.25 413.934 1101.26 413.266 1099.34 413.176C1097.46 413.088 1096.52 413.047 1094.64 412.967C1094.58 414.492 1094.54 415.256 1094.48 416.781C1096.35 416.861 1097.29 416.903 1099.16 416.99C1101.07 417.079 1102.12 416.513 1102.18 415.223Z" fill="white"/>
<path d="M1109.9 411.968C1110.21 406.272 1116.3 402.621 1121.54 402.868C1127 403.124 1132.35 407.593 1131.91 413.404C1131.48 419.141 1125.67 422.85 1120.27 422.399C1115.06 421.966 1109.59 417.59 1109.9 411.968ZM1126.25 412.995C1126.48 409.749 1124.27 407.464 1121.26 407.267C1118.24 407.071 1115.75 409.05 1115.56 412.297C1115.36 415.544 1117.57 417.804 1120.55 417.999C1123.54 418.194 1126.03 416.24 1126.25 412.995Z" fill="white"/>
<path d="M1133.83 413.549C1134.26 407.86 1140.43 404.336 1145.67 404.692C1151.12 405.061 1156.38 409.639 1155.82 415.441C1155.27 421.17 1149.38 424.755 1143.99 424.193C1138.79 423.652 1133.41 419.166 1133.83 413.549ZM1150.17 414.914C1150.46 411.674 1148.3 409.344 1145.29 409.085C1142.28 408.826 1139.75 410.753 1139.49 413.996C1139.22 417.238 1141.39 419.543 1144.37 419.8C1147.35 420.057 1149.88 418.154 1150.17 414.914Z" fill="white"/>
<path d="M1166.11 419.066C1165.19 419.823 1164.73 420.203 1163.81 420.962C1163.61 422.834 1163.52 423.77 1163.32 425.642C1161.13 425.416 1160.03 425.306 1157.83 425.09C1158.45 418.847 1159.06 412.603 1159.68 406.36C1161.91 406.579 1163.02 406.691 1165.26 406.921C1164.93 410.034 1164.77 411.591 1164.45 414.704C1167.28 412.373 1170.12 410.053 1172.97 407.741C1175.45 408.013 1176.69 408.152 1179.16 408.438C1176.15 410.888 1173.14 413.347 1170.13 415.817C1172.59 419.592 1175.02 423.38 1177.43 427.183C1174.85 426.886 1173.57 426.741 1170.99 426.458C1169.05 423.498 1168.08 422.019 1166.11 419.066Z" fill="white"/>
<path d="M1196.54 429.553C1196.96 426.254 1197.38 422.956 1197.8 419.657C1195.75 422.113 1193.72 424.578 1191.69 427.051C1190.71 426.925 1190.22 426.862 1189.23 426.739C1187.62 423.371 1186.81 421.688 1185.17 418.326L1184 427.961C1181.95 427.713 1180.93 427.591 1178.88 427.352C1179.61 421.121 1180.34 414.89 1181.07 408.659C1182.92 408.875 1183.85 408.985 1185.7 409.209C1187.59 413.08 1189.47 416.96 1191.32 420.85C1194.03 417.539 1196.76 414.243 1199.5 410.96C1201.35 411.206 1202.28 411.33 1204.13 411.584C1203.29 417.802 1202.46 424.02 1201.62 430.238C1199.59 429.959 1198.58 429.822 1196.54 429.553Z" fill="white"/>
<path d="M1219.16 429.079C1215.85 428.575 1214.19 428.33 1210.88 427.85C1210.06 429.208 1209.64 429.887 1208.82 431.247C1206.57 430.924 1205.44 430.765 1203.19 430.453C1206.94 424.633 1210.72 418.834 1214.53 413.057C1216.74 413.38 1217.85 413.544 1220.06 413.878C1222.04 420.516 1223.98 427.165 1225.88 433.825C1223.59 433.461 1222.44 433.281 1220.14 432.928C1219.75 431.389 1219.55 430.619 1219.16 429.079ZM1218.13 424.952C1217.48 422.417 1217.15 421.15 1216.49 418.617C1215.12 420.849 1214.43 421.966 1213.07 424.202C1215.09 424.498 1216.1 424.647 1218.13 424.952Z" fill="white"/>
<path d="M1236.78 430.538C1235.58 430.336 1234.97 430.235 1233.77 430.036C1233.44 432.009 1233.28 432.996 1232.95 434.97C1230.75 434.606 1229.64 434.426 1227.44 434.073C1228.43 427.879 1229.43 421.684 1230.42 415.49C1234.04 416.07 1235.85 416.367 1239.47 416.976C1243.77 417.732 1247.83 420.608 1247.05 425.347C1246.61 428.047 1244.81 429.839 1242.19 430.531C1243.47 433.154 1244.11 434.466 1245.38 437.093C1243.02 436.677 1241.84 436.472 1239.49 436.069C1238.41 433.856 1237.87 432.749 1236.78 430.538ZM1238.44 421.055C1237.2 420.847 1236.58 420.744 1235.34 420.539C1234.98 422.714 1234.8 423.802 1234.44 425.977C1235.67 426.181 1236.29 426.284 1237.52 426.491C1239.82 426.877 1241.14 426.068 1241.43 424.372C1241.73 422.65 1240.75 421.443 1238.44 421.055Z" fill="white"/>
<path d="M1256.78 432.213C1255.8 432.895 1255.31 433.237 1254.33 433.921C1253.99 435.772 1253.82 436.697 1253.48 438.548C1251.3 438.148 1250.22 437.951 1248.04 437.561C1249.14 431.386 1250.25 425.21 1251.36 419.035C1253.57 419.431 1254.68 419.631 1256.89 420.038C1256.32 423.116 1256.04 424.655 1255.47 427.733C1258.49 425.635 1261.5 423.547 1264.53 421.469C1266.99 421.937 1268.22 422.175 1270.67 422.657C1267.46 424.859 1264.26 427.071 1261.06 429.295C1263.22 433.253 1265.35 437.224 1267.46 441.207C1264.91 440.706 1263.63 440.458 1261.08 439.972C1259.38 436.865 1258.52 435.314 1256.78 432.213Z" fill="white"/>
<path d="M1267.43 439.479C1268.46 438.08 1268.97 437.381 1270 435.984C1271.51 437.407 1273.81 438.635 1276.06 439.093C1278.33 439.558 1279.59 438.893 1279.53 438.243C1279.25 434.817 1268.74 434.677 1269.97 428.359C1270.77 424.241 1276.23 423.248 1279.88 424.121C1282.34 424.71 1284.97 425.75 1286.68 427.21C1285.67 428.613 1285.17 429.314 1284.16 430.719C1282.48 429.378 1280.73 428.522 1279.02 428.172C1276.69 427.696 1275.43 428.563 1275.51 429.189C1275.92 432.237 1286.44 432.811 1285.04 438.982C1284.07 443.219 1279 443.91 1275.2 443.145C1272.02 442.504 1269.03 441.052 1267.43 439.479Z" fill="white"/>
<path d="M1009.19 442.208C1005.93 442.312 1004.3 442.37 1001.04 442.498C1000.49 443.984 1000.21 444.726 999.67 446.212C997.451 446.303 996.341 446.35 994.122 446.451C996.677 440.049 999.268 433.663 1001.89 427.29C1004.07 427.207 1005.16 427.168 1007.34 427.096C1010.42 433.266 1013.47 439.452 1016.48 445.656C1014.22 445.714 1013.09 445.746 1010.82 445.815C1010.17 444.371 1009.85 443.65 1009.19 442.208ZM1007.46 438.337C1006.39 435.962 1005.85 434.776 1004.76 432.404C1003.85 434.847 1003.39 436.069 1002.49 438.514C1004.48 438.439 1005.47 438.403 1007.46 438.337Z" fill="white"/>
<path d="M1036.17 426.502C1036.22 432.775 1036.27 439.048 1036.32 445.322C1034.53 445.336 1033.63 445.345 1031.84 445.367C1028.97 442.052 1026.07 438.754 1023.15 435.474C1023.22 438.816 1023.28 442.158 1023.35 445.5C1021.22 445.542 1020.15 445.566 1018.02 445.617C1017.87 439.346 1017.72 433.074 1017.56 426.802C1019.38 426.758 1020.3 426.737 1022.12 426.701C1025.06 429.978 1027.98 433.273 1030.88 436.586C1030.84 433.244 1030.79 429.901 1030.75 426.558C1032.92 426.53 1034 426.519 1036.17 426.502Z" fill="white"/>
<path d="M1040.08 426.477C1043.78 426.46 1045.63 426.459 1049.33 426.472C1054.88 426.221 1060.21 430.155 1060.13 435.972C1060.06 441.718 1054.78 445.579 1049.26 445.293C1045.63 445.28 1043.81 445.281 1040.17 445.298C1040.14 439.024 1040.11 432.751 1040.08 426.477ZM1049.06 441.044C1052.34 441.055 1054.56 439.166 1054.59 435.913C1054.62 432.66 1052.41 430.73 1049.09 430.719C1047.7 430.715 1047.01 430.714 1045.61 430.713C1045.61 434.155 1045.61 437.596 1045.61 441.038C1046.99 441.038 1047.68 441.039 1049.06 441.044Z" fill="white"/>
<path d="M1075.34 431.081C1072.95 431.018 1071.75 430.99 1069.36 430.939C1069.39 429.251 1069.41 428.407 1069.45 426.719C1075.29 426.852 1081.12 427.019 1086.96 427.222C1086.9 428.91 1086.87 429.753 1086.81 431.441C1084.43 431.354 1083.23 431.314 1080.85 431.24C1080.7 436.104 1080.55 440.968 1080.4 445.832C1078.22 445.764 1077.13 445.733 1074.96 445.676C1075.08 440.811 1075.21 435.946 1075.34 431.081Z" fill="white"/>
<path d="M1100.4 442.972C1097.14 442.814 1095.51 442.74 1092.25 442.604C1091.58 444.04 1091.25 444.758 1090.59 446.196C1088.37 446.107 1087.26 446.064 1085.04 445.986C1088.1 439.811 1091.2 433.654 1094.33 427.514C1096.51 427.608 1097.6 427.657 1099.78 427.76C1102.35 434.159 1104.89 440.571 1107.39 446.997C1105.13 446.872 1104 446.813 1101.74 446.7C1101.2 445.209 1100.94 444.463 1100.4 442.972ZM1098.99 438.975C1098.11 436.521 1097.67 435.295 1096.78 432.843C1095.67 435.204 1095.12 436.386 1094.02 438.75C1096.01 438.835 1097 438.881 1098.99 438.975Z" fill="white"/>
<path d="M1127.58 443.118C1127.28 447.172 1122.58 448.106 1119.3 447.719C1115.84 447.489 1112.39 447.278 1108.93 447.084C1109.28 440.82 1109.64 434.556 1109.99 428.293C1113.32 428.48 1116.65 428.683 1119.98 428.902C1123.12 428.945 1127.53 430.493 1127.27 434.334C1127.15 436.123 1126.09 437.511 1124.37 438.226C1126.51 439.13 1127.75 440.84 1127.58 443.118ZM1115.23 432.453C1115.14 433.902 1115.09 434.627 1115 436.076C1116.51 436.169 1117.26 436.216 1118.77 436.314C1120.6 436.432 1121.59 435.879 1121.67 434.672C1121.75 433.492 1120.84 432.81 1119.01 432.692C1117.5 432.594 1116.74 432.546 1115.23 432.453ZM1122.11 442.14C1122.19 440.852 1121.24 440.166 1119.36 440.043C1117.53 439.923 1116.61 439.865 1114.78 439.752C1114.68 441.277 1114.64 442.039 1114.54 443.563C1116.37 443.676 1117.28 443.734 1119.11 443.853C1120.99 443.976 1122.02 443.427 1122.11 442.14Z" fill="white"/>
<path d="M1128.81 446.686C1129.64 445.173 1130.05 444.418 1130.89 442.906C1132.51 444.135 1134.88 445.074 1137.1 445.256C1139.36 445.44 1140.5 444.637 1140.37 443.989C1139.7 440.608 1129.52 441.734 1129.99 435.343C1130.29 431.217 1135.37 429.502 1139.09 429.933C1141.53 430.218 1144.2 430.93 1146.02 432.171C1145.2 433.686 1144.79 434.444 1143.98 435.96C1142.21 434.834 1140.41 434.197 1138.72 434.058C1136.41 433.868 1135.29 434.872 1135.44 435.493C1136.19 438.499 1146.43 437.764 1145.77 444.053C1145.33 448.32 1140.58 449.684 1136.74 449.381C1133.59 449.132 1130.53 448.054 1128.81 446.686Z" fill="white"/>
</g>
</g>
</g>
<g clip-path="url(#clip3_6_635)">
<path d="M98.8307 81.9762V75.2057H86.6614V72.2636H93.2267V68.7775H86.6614V65.8354H98.8307V59.0649C101.095 58.3217 102.737 56.207 102.737 53.694C102.737 50.5527 100.22 48.0089 97.1052 48.0089C93.9908 48.0089 91.4734 50.5501 91.4734 53.694C91.4734 56.207 93.1154 58.3217 95.3798 59.0649V62.3492H86.6639V56.1228H83.2686V50.8949C85.533 50.1517 87.175 48.037 87.175 45.524C87.175 42.3826 84.6576 39.8389 81.5432 39.8389C78.4288 39.8389 75.9114 42.3801 75.9114 45.524C75.9114 48.037 77.5534 50.1517 79.8177 50.8949V56.1228H72.5743V46.4102C72.5743 46.3233 72.5465 46.2672 72.5187 46.1829C72.5743 45.8968 72.5743 45.6389 72.4908 45.3554C70.6794 39.7853 64.7086 36.7002 59.1628 38.5288C58.8794 38.6156 58.6239 38.7561 58.3709 38.871C58.0319 39.014 57.6929 39.157 57.3513 39.3281C57.2957 39.3562 57.2375 39.3843 57.2096 39.415C53.8979 41.1287 51.6057 44.556 51.4944 48.5274C45.0707 48.9845 39.9778 54.3554 39.9778 60.9522C39.9778 63.5521 40.7975 65.9503 42.1561 67.9807C38.895 70.6342 37 74.6336 37 78.9191C37 85.7458 41.8677 91.5176 48.4052 92.7461C49.3666 98.5461 54.376 103 60.4025 103C67.1374 103 72.5996 97.4862 72.5996 90.6876V84.5454H79.843V89.4592C77.5787 90.2024 75.9367 92.317 75.9367 94.8301C75.9367 97.9714 78.4541 100.515 81.5685 100.515C84.6829 100.515 87.2003 97.974 87.2003 94.8301C87.2003 92.317 85.5583 90.2024 83.2939 89.4592V84.5454H86.6892V78.6893H95.4051V81.9736C93.1407 82.7168 91.4987 84.8315 91.4987 87.3445C91.4987 90.4859 94.0161 93.0296 97.1305 93.0296C100.245 93.0296 102.762 90.4884 102.762 87.3445C102.734 84.8315 101.092 82.7168 98.8281 81.9736L98.8307 81.9762ZM97.1052 51.4951C98.2943 51.4951 99.2557 52.4655 99.2557 53.6659C99.2557 54.8662 98.2943 55.8648 97.1052 55.8648C95.9161 55.8648 94.9547 54.8943 94.9547 53.6659C94.9269 52.4936 95.9161 51.4951 97.1052 51.4951ZM81.5407 43.3557C82.7298 43.3557 83.6912 44.3262 83.6912 45.5546C83.6912 46.7831 82.7298 47.7255 81.5407 47.7255C80.3516 47.7255 79.3902 46.755 79.3902 45.5546C79.3623 44.3262 80.3237 43.3557 81.5407 43.3557ZM81.5407 97.029C80.3516 97.029 79.3902 96.0585 79.3902 94.8582C79.3902 93.6578 80.3516 92.6873 81.5407 92.6873C82.7298 92.6873 83.6912 93.6578 83.6912 94.8582C83.6912 96.0585 82.7298 97.029 81.5407 97.029ZM60.3468 99.514C55.5373 99.514 51.6032 95.5707 51.6032 90.6876C51.6032 87.1453 53.698 83.9453 56.9516 82.5738C57.8295 82.2035 58.2545 81.1742 57.8852 80.288C57.5183 79.4018 56.4987 79.0034 55.6208 79.3456C51.5753 81.0874 48.8303 84.8315 48.2914 89.1425C43.7349 87.9421 40.4256 83.7716 40.4256 78.8885C40.4256 75.6041 41.9537 72.5752 44.5015 70.5754C45.8879 71.717 47.502 72.6033 49.3413 73.0604C49.483 73.0885 49.6247 73.1166 49.7664 73.1166C50.5304 73.1166 51.2388 72.6033 51.4362 71.8013C51.6614 70.8589 51.0972 69.9165 50.1914 69.6867C46.2016 68.6881 43.4287 65.0871 43.4287 60.9165C43.4287 55.9465 47.4464 51.8909 52.3698 51.8909H52.3976V51.919C52.5671 52.4323 52.7644 52.9482 53.02 53.4335C53.3312 54.0337 53.9257 54.3759 54.5759 54.3759C54.8314 54.3759 55.1148 54.3197 55.3678 54.1767C56.2179 53.7476 56.5569 52.6903 56.1319 51.8347C55.9624 51.5206 55.8485 51.1784 55.7347 50.8361C55.1401 49.0075 55.2818 47.0665 56.1597 45.3503C56.8959 43.8639 58.1407 42.7504 59.6131 42.066C60.3772 41.7799 61.1969 41.6088 62.047 41.6088C65.9812 41.6088 69.1487 44.837 69.1487 48.7777V64.1166C67.3372 62.3467 65.0451 61.0876 62.5277 60.6024C63.4334 59.2309 64.1115 57.6883 64.4227 56.0027C64.5922 55.0603 63.9698 54.146 63.0362 53.9749C62.1027 53.8038 61.1969 54.4321 61.0274 55.3745C60.319 59.116 57.3488 62.03 53.6145 62.6302C52.6809 62.7732 52.0307 63.6594 52.1724 64.6299C52.3141 65.488 53.0503 66.1163 53.87 66.1163C53.9561 66.1163 54.0396 66.1163 54.1256 66.0882C56.1926 65.7741 58.0597 64.9159 59.6435 63.7181C59.8408 63.805 60.0685 63.8612 60.2937 63.8893C64.3695 64.0323 67.8787 66.6884 69.1512 70.5167V77.7162C69.1512 81.5446 66.7452 84.9719 63.1804 86.2285C62.2747 86.5426 61.8218 87.5437 62.133 88.4555C62.3886 89.1706 63.0388 89.6277 63.775 89.6277C63.9723 89.6277 64.1722 89.5996 64.3417 89.5409C66.2089 88.8845 67.8508 87.771 69.1512 86.3996V90.7132C69.0956 95.5682 65.1893 99.5114 60.3494 99.5114L60.3468 99.514ZM72.5414 59.6089H83.2105V81.0619H72.5414V59.6089ZM97.1052 89.5179C95.9161 89.5179 94.9547 88.5474 94.9547 87.319C94.9547 86.0905 95.9161 85.1482 97.1052 85.1482C98.2943 85.1482 99.2557 86.1186 99.2557 87.319C99.2557 88.5193 98.2943 89.5179 97.1052 89.5179Z" fill="black"/>
<path d="M81.6824 61.0364H72.5415V79.4911H81.6824V61.0364Z" fill="#58BA00"/>
<path d="M77.5509 65.207H72.5415V61.0364H77.5509V65.207ZM77.5509 68.4071H72.5415V72.5776H77.5509V68.4071ZM77.5509 75.3205H72.5415V79.4911H77.5509V75.3205Z" fill="#A0EC5F"/>
<path d="M95.6048 53.1525C95.6048 52.4961 96.1437 51.924 96.8218 51.924C97.4998 51.924 98.0387 52.468 98.0387 53.1525C98.0387 53.8369 97.4998 54.3809 96.8218 54.3809C96.1437 54.3809 95.6048 53.8369 95.6048 53.1525ZM96.7939 88.0595C97.4441 88.0595 98.0109 87.5155 98.0109 86.8311C98.0109 86.1466 97.472 85.6027 96.7939 85.6027C96.1159 85.6027 95.577 86.1466 95.577 86.8311C95.577 87.5155 96.1437 88.0595 96.7939 88.0595ZM81.2015 95.6013C81.8518 95.6013 82.4185 95.0573 82.4185 94.3728C82.4185 93.6884 81.8796 93.1444 81.2015 93.1444C80.5235 93.1444 79.9846 93.6884 79.9846 94.3728C79.9846 95.0573 80.5235 95.6013 81.2015 95.6013ZM81.1459 46.2671C81.7961 46.2671 82.3628 45.7231 82.3628 45.0386C82.3628 44.3542 81.8239 43.8102 81.1459 43.8102C80.4678 43.8102 79.929 44.3542 79.929 45.0386C79.929 45.695 80.4678 46.2671 81.1459 46.2671Z" fill="#C9EAE8"/>
<path d="M60.3468 97.9713C56.3848 97.9713 53.1591 94.7151 53.1591 90.7156C53.1591 87.8016 54.8845 85.1736 57.5461 84.032C58.338 83.6898 58.9882 83.0615 59.2994 82.2315C59.6384 81.404 59.6106 80.5178 59.2716 79.6903C58.763 78.4619 57.5739 77.6625 56.2431 77.6625C55.8181 77.6625 55.3931 77.7493 54.9984 77.9204C51.0921 79.5779 48.1775 83.0053 47.1023 87.089C43.9904 85.6027 41.9512 82.4613 41.9512 78.919C41.9512 76.549 42.8847 74.3194 44.5545 72.6057C45.9132 73.5481 47.3856 74.2045 48.9112 74.6054C49.1946 74.6616 49.4501 74.6923 49.7031 74.6923C51.2034 74.6923 52.5038 73.663 52.8732 72.2073C53.2982 70.4374 52.2508 68.6369 50.495 68.1798C47.2414 67.3523 44.9214 64.3795 44.9214 60.9522C44.9214 57.1826 47.6943 54.0387 51.3172 53.5534C51.4033 53.7526 51.5146 53.9544 51.6006 54.1817C52.1673 55.2952 53.2704 55.9822 54.5152 55.9822C55.0237 55.9822 55.5347 55.8673 55.9876 55.64C56.7795 55.239 57.3462 54.5546 57.6296 53.7271C57.9129 52.8996 57.8269 51.9853 57.4322 51.214C57.2906 50.9561 57.2071 50.7007 57.1211 50.4427C56.6682 49.0151 56.782 47.4725 57.4322 46.1292C57.999 45.0156 58.9047 44.1294 60.0913 43.588C60.7415 43.3607 61.336 43.2458 61.9584 43.2458C65.0147 43.2458 67.532 45.7588 67.532 48.8721V61.0415C66.6541 60.4976 65.7205 60.071 64.7591 59.7263C65.2677 58.6408 65.637 57.5273 65.8622 56.3832C66.2012 54.5827 65.0121 52.869 63.2588 52.5267C63.0615 52.4987 62.8616 52.4706 62.6643 52.4706C61.0805 52.4706 59.7497 53.6122 59.4385 55.1547C58.8718 58.268 56.3823 60.6687 53.2982 61.1539C51.5146 61.44 50.2976 63.1255 50.5532 64.9235C50.8087 66.5529 52.1673 67.7226 53.7789 67.7226C53.9763 67.7226 54.1761 67.6945 54.3456 67.6664C56.271 67.3523 58.1938 66.6091 59.8914 65.4675C59.9774 65.4675 60.0887 65.4956 60.1748 65.4956C63.4865 65.6105 66.4289 67.7533 67.532 70.8384V77.78C67.532 80.952 65.551 83.7792 62.6086 84.8365C60.911 85.4366 60.0053 87.3495 60.5998 89.0632C61.0805 90.3785 62.2974 91.2622 63.6839 91.2622C64.0507 91.2622 64.4201 91.206 64.7591 91.063C65.7205 90.7207 66.6541 90.2636 67.5042 89.7196V90.7769C67.5598 94.7202 64.3341 97.9764 60.3443 97.9764L60.3468 97.9713Z" fill="#F598D4"/>
<path d="M59.016 48.867C59.016 46.8111 60.658 45.1536 62.6946 45.1536C63.3448 45.1536 63.8559 45.6669 63.8559 46.3258C63.8559 46.9847 63.3474 47.4981 62.6946 47.4981C61.9584 47.4981 61.336 48.1263 61.336 48.8695C61.336 49.5259 60.8275 50.0418 60.1747 50.0418C59.5245 50.0418 59.0135 49.5284 59.0135 48.8695L59.016 48.867ZM51.6588 56.4675C49.3666 56.4675 47.4716 58.3523 47.4716 60.6942C47.4716 61.3506 47.9801 61.8665 48.6329 61.8665C49.2856 61.8665 49.7942 61.3531 49.7942 60.6942C49.7942 59.665 50.6139 58.8094 51.6613 58.8094C52.3115 58.8094 52.8226 58.2961 52.8226 57.6372C52.8226 57.0089 52.2837 56.4649 51.6613 56.4649L51.6588 56.4675ZM62.978 69.5487C62.1279 69.0634 61.1943 68.8055 60.2329 68.8055C58.0824 68.8055 56.1014 70.0901 55.0262 72.1486C54.7428 72.7206 54.9402 73.4332 55.5069 73.7192C55.6764 73.8061 55.8459 73.8623 56.0458 73.8623C56.4708 73.8623 56.8655 73.635 57.0654 73.234C57.7156 71.9494 58.9325 71.1474 60.2076 71.1474C60.7744 71.1474 61.3107 71.2904 61.8218 71.5765C62.3885 71.8906 63.0944 71.6914 63.4056 71.1474C63.7167 70.5753 63.5194 69.8628 62.9805 69.5487H62.978ZM58.7326 91.8879C58.3076 91.5737 58.0546 91.0604 58.0546 90.4883C58.0546 90.118 58.1685 89.7732 58.3658 89.4897C58.7326 88.9458 58.591 88.2332 58.0824 87.8603C57.5435 87.49 56.8377 87.633 56.4683 88.1464C55.9876 88.8308 55.7321 89.6328 55.7321 90.4883C55.7321 91.8036 56.3544 93.0601 57.4019 93.8008C57.5992 93.9438 57.8269 94.0281 58.0799 94.0281C58.4468 94.0281 58.7883 93.857 59.0135 93.5428C59.3803 92.9707 59.269 92.2582 58.7301 91.8853L58.7326 91.8879ZM46.2243 76.0612C45.6298 75.862 44.9517 76.1761 44.7519 76.8044C44.5267 77.5195 44.4128 78.2908 44.4128 79.0314C44.4128 79.6878 44.4989 80.3748 44.6962 81.003C44.8379 81.5164 45.3186 81.8305 45.7993 81.8305C45.9131 81.8305 46.0245 81.8024 46.1383 81.7743C46.7607 81.6032 47.0997 80.9468 46.9302 80.3186C46.8163 79.8895 46.7329 79.4605 46.7329 79.0033C46.7329 78.49 46.8189 77.9741 46.9884 77.5169C47.1579 76.9448 46.8467 76.2604 46.2243 76.0612Z" fill="#FFD5F2"/>
<path d="M127 48.1723C132.76 48.1723 136.335 50.8207 136.335 55.193C136.335 58.3625 134.468 60.7274 131.447 61.4476C135.182 62.0886 137.408 64.7779 137.408 68.5475C137.408 73.3617 133.555 76.2476 127.278 76.2476H114.921V48.1723H127ZM119.609 59.8029H126.762C129.74 59.8029 131.531 58.3982 131.531 56.0333C131.531 53.6683 129.742 52.3837 126.762 52.3837H119.609V59.8029ZM119.609 72.0336H126.762C130.418 72.0336 132.604 70.5907 132.604 67.9448C132.604 65.4598 130.418 63.9734 126.762 63.9734H119.609V72.0336Z" fill="#132226"/>
<path d="M146.448 59.1618C147.88 56.2733 150.422 54.7512 153.76 54.7512V59.1618C149.509 58.9218 146.805 61.4476 146.448 65.0972V76.2476H141.879V54.9121H146.448V59.1644V59.1618Z" fill="#132226"/>
<path d="M170.941 73.6375C169.433 75.5223 167.009 76.4443 163.948 76.4443C159.379 76.4443 156.52 73.5992 156.52 69.827C156.52 66.0549 159.419 63.4499 164.504 63.409H170.9V62.768C170.9 60.0813 169.193 58.4774 165.853 58.4774C163.826 58.4774 161.724 59.2002 159.616 60.6431L157.749 57.4354C160.689 55.6706 162.835 54.7487 166.847 54.7487C172.289 54.7487 175.351 57.5554 175.391 62.247L175.429 76.2451H170.938V73.6375H170.941ZM170.903 68.7467V66.7802H165.18C162.202 66.7802 160.811 67.5821 160.811 69.6278C160.811 71.5535 162.359 72.7973 164.902 72.7973C168.16 72.7973 170.665 71.0734 170.903 68.7467Z" fill="#132226"/>
<path d="M185.951 48.8133C185.951 50.4172 184.8 51.5818 183.29 51.5818C181.779 51.5818 180.628 50.4197 180.628 48.8133C180.628 47.2069 181.782 46.0066 183.29 46.0066C184.798 46.0066 185.951 47.1686 185.951 48.8133ZM181.025 76.2476V54.9121H185.557V76.2476H181.025Z" fill="#132226"/>
<path d="M211.929 62.9723V76.2476H207.36V64.2569C207.36 61.0492 205.452 59.0827 202.275 59.0827C198.778 59.1235 196.592 61.5676 196.274 64.898V76.2476H191.704V54.9121H196.274V59.0035C197.784 56.0358 200.486 54.7538 204.061 54.7538C208.987 54.7538 211.927 57.8823 211.927 62.9749L211.929 62.9723Z" fill="#132226"/>
<path d="M227.322 52.4246V76.2476H222.634V52.4246H213.852V48.1723H236.141V52.4246H227.322Z" fill="#132226"/>
<path d="M256.131 65.5799C256.131 71.9979 251.64 76.4085 245.125 76.4085C238.611 76.4085 234.082 71.9979 234.082 65.5799C234.082 59.1618 238.57 54.7512 245.125 54.7512C251.681 54.7512 256.131 59.121 256.131 65.5799ZM238.651 65.6182C238.651 69.7479 241.313 72.5572 245.125 72.5572C248.938 72.5572 251.562 69.7504 251.562 65.6182C251.562 61.4859 248.9 58.72 245.125 58.72C241.351 58.72 238.651 61.5268 238.651 65.6182Z" fill="#132226"/>
<path d="M281.208 65.5799C281.208 71.9979 276.717 76.4085 270.203 76.4085C263.688 76.4085 259.159 71.9979 259.159 65.5799C259.159 59.1618 263.647 54.7512 270.203 54.7512C276.758 54.7512 281.208 59.121 281.208 65.5799ZM263.728 65.6182C263.728 69.7479 266.39 72.5572 270.203 72.5572C274.015 72.5572 276.639 69.7504 276.639 65.6182C276.639 61.4859 273.977 58.72 270.203 58.72C266.428 58.72 263.728 61.5268 263.728 65.6182Z" fill="#132226"/>
<path d="M285.385 76.2476V46.4867H289.957V76.2451H285.385V76.2476Z" fill="#132226"/>
<path d="M122.086 88.5601V91.5942C121.259 92.2045 119.997 92.6208 118.914 92.6208C116.543 92.6208 114.744 90.8842 114.744 88.5933C114.744 86.3024 116.576 84.5862 119.012 84.5862C120.176 84.5862 121.36 85.0382 122.155 85.738L121.158 87.0124C120.576 86.471 119.771 86.1339 119.012 86.1339C117.626 86.1339 116.556 87.2065 116.556 88.5933C116.556 89.9801 117.639 91.0655 119.025 91.0655C119.496 91.0655 120.055 90.8969 120.558 90.6364V88.5601H122.089H122.086Z" fill="#7E9898"/>
<path d="M133.029 88.5933C133.029 90.8714 131.217 92.6208 128.826 92.6208C126.436 92.6208 124.624 90.8842 124.624 88.5933C124.624 86.3024 126.436 84.5862 128.826 84.5862C131.217 84.5862 133.029 86.3024 133.029 88.5933ZM126.433 88.5933C126.433 89.9801 127.541 91.0655 128.847 91.0655C130.152 91.0655 131.217 89.9801 131.217 88.5933C131.217 87.2065 130.155 86.1466 128.847 86.1466C127.539 86.1466 126.433 87.2065 126.433 88.5933Z" fill="#7E9898"/>
<path d="M143.596 84.6449C145.317 84.6449 146.392 85.4009 146.392 86.6191C146.392 87.4772 145.879 88.1438 145.039 88.3583C146.045 88.5499 146.67 89.3161 146.67 90.3555C146.67 91.7091 145.542 92.5442 143.72 92.5442H139.999V84.6475H143.596V84.6449ZM141.765 87.8246H143.508C144.166 87.8246 144.583 87.4977 144.583 86.946C144.583 86.3944 144.168 86.1007 143.508 86.1007H141.765V87.8271V87.8246ZM141.765 91.0859H143.508C144.345 91.0859 144.849 90.736 144.849 90.1282C144.849 89.5204 144.345 89.2037 143.508 89.2037H141.765V91.0859Z" fill="#7E9898"/>
<path d="M151.275 86.1211V87.8373H155.052V89.3161H151.275V91.0655H155.589V92.5442H149.509V84.6475H155.465V86.1262H151.275V86.1211Z" fill="#7E9898"/>
<path d="M162.296 92.5417H160.53V90.0363L157.635 84.6424H159.414L161.413 88.1872L163.371 84.6424H165.147L162.298 89.9903V92.5391L162.296 92.5417Z" fill="#7E9898"/>
<path d="M175.163 88.5933C175.163 90.8714 173.352 92.6208 170.961 92.6208C168.57 92.6208 166.759 90.8842 166.759 88.5933C166.759 86.3024 168.57 84.5862 170.961 84.5862C173.352 84.5862 175.163 86.3024 175.163 88.5933ZM168.57 88.5933C168.57 89.9801 169.678 91.0655 170.984 91.0655C172.289 91.0655 173.354 89.9801 173.354 88.5933C173.354 87.2065 172.292 86.1466 170.984 86.1466C169.676 86.1466 168.57 87.2065 168.57 88.5933Z" fill="#7E9898"/>
<path d="M183.356 92.5417L179.566 87.4747V92.5417H177.881V84.6449H179.487L183.287 89.7221V84.6449H184.965V92.5417H183.356Z" fill="#7E9898"/>
<path d="M191.56 84.6449C193.984 84.6449 195.671 86.259 195.671 88.5933C195.671 90.9276 193.961 92.5417 191.489 92.5417H188.238V84.6449H191.558H191.56ZM190.007 91.04H191.606C192.914 91.04 193.875 90.049 193.875 88.6035C193.875 87.158 192.868 86.1441 191.527 86.1441H190.009V91.04H190.007Z" fill="#7E9898"/>
<path d="M206.239 84.6449C207.96 84.6449 209.035 85.4009 209.035 86.6191C209.035 87.4772 208.521 88.1438 207.681 88.3583C208.688 88.5499 209.313 89.3161 209.313 90.3555C209.313 91.7091 208.185 92.5442 206.363 92.5442H202.642V84.6475H206.239V84.6449ZM204.408 87.8246H206.151C206.809 87.8246 207.226 87.4977 207.226 86.946C207.226 86.3944 206.811 86.1007 206.151 86.1007H204.408V87.8271V87.8246ZM204.408 91.0859H206.151C206.988 91.0859 207.492 90.736 207.492 90.1282C207.492 89.5204 206.988 89.2037 206.151 89.2037H204.408V91.0859Z" fill="#7E9898"/>
<path d="M220 88.5933C220 90.8714 218.188 92.6208 215.798 92.6208C213.407 92.6208 211.595 90.8842 211.595 88.5933C211.595 86.3024 213.407 84.5862 215.798 84.5862C218.188 84.5862 220 86.3024 220 88.5933ZM213.407 88.5933C213.407 89.9801 214.512 91.0655 215.82 91.0655C217.128 91.0655 218.191 89.9801 218.191 88.5933C218.191 87.2065 217.128 86.1466 215.82 86.1466C214.512 86.1466 213.407 87.2065 213.407 88.5933Z" fill="#7E9898"/>
<path d="M230.36 88.5933C230.36 90.8714 228.549 92.6208 226.158 92.6208C223.767 92.6208 221.956 90.8842 221.956 88.5933C221.956 86.3024 223.767 84.5862 226.158 84.5862C228.549 84.5862 230.36 86.3024 230.36 88.5933ZM223.767 88.5933C223.767 89.9801 224.873 91.0655 226.181 91.0655C227.489 91.0655 228.551 89.9801 228.551 88.5933C228.551 87.2065 227.489 86.1466 226.181 86.1466C224.873 86.1466 223.767 87.2065 223.767 88.5933Z" fill="#7E9898"/>
<path d="M235.972 89.3263L234.844 90.5905V92.5417H233.078V84.6449H234.844V88.2306L238.095 84.6449H240.141L237.202 87.9395L240.341 92.5442H238.216L235.972 89.3288V89.3263Z" fill="#7E9898"/>
<path d="M249.775 92.5417V87.2142L247.698 91.7397H246.547L244.47 87.2142V92.5417H242.871V84.6449H244.85L247.127 89.4718L249.396 84.6449H251.364V92.5417H249.775Z" fill="#7E9898"/>
<path d="M256.189 91.0068L255.574 92.5417H253.753L257.15 84.6449H258.972L262.312 92.5417H260.424L259.81 91.0068H256.189ZM258.011 86.5042L256.768 89.574H259.238L258.011 86.5042Z" fill="#7E9898"/>
<path d="M268.25 90.284H266.451V92.5417H264.685V84.6449H268.083C270.127 84.6449 271.291 85.6384 271.291 87.3853C271.291 88.6061 270.777 89.4846 269.826 89.9341L271.493 92.5417H269.492L268.252 90.284H268.25ZM268.083 88.7951C269.054 88.7951 269.613 88.3456 269.613 87.4415C269.613 86.5374 269.057 86.1211 268.083 86.1211H266.451V88.7951H268.083Z" fill="#7E9898"/>
<path d="M277.226 89.3263L276.098 90.5905V92.5417H274.332V84.6449H276.098V88.2306L279.349 84.6449H281.396L278.456 87.9395L281.595 92.5442H279.47L277.226 89.3288V89.3263Z" fill="#7E9898"/>
<path d="M289.954 85.4239L289.271 86.9026C288.444 86.4046 287.46 86.0904 286.835 86.0904C286.243 86.0904 285.841 86.305 285.841 86.734C285.841 88.1898 290.01 87.3776 289.997 90.2201C289.997 91.7653 288.667 92.6004 286.936 92.6004C285.648 92.6004 284.366 92.1024 283.483 91.3464L284.186 89.8907C284.991 90.6135 286.132 91.0783 286.956 91.0783C287.682 91.0783 288.118 90.8076 288.118 90.3198C288.118 88.8308 283.951 89.6991 283.951 86.9026C283.951 85.4698 285.168 84.5683 286.979 84.5683C288.075 84.5683 289.168 84.908 289.952 85.4264L289.954 85.4239Z" fill="#7E9898"/>
<path d="M136.229 98.4285C157.258 95.8669 178.571 95.7009 199.555 98.5664L199.446 99.33C178.601 96.9804 157.286 97.6495 136.563 100.678L136.229 98.431V98.4285Z" fill="#7E9898"/>
</g>
<defs>
<radialGradient id="paint0_radial_6_635" cx="0" cy="0" r="1" gradientUnits="userSpaceOnUse" gradientTransform="translate(620.557 553.962) scale(625.952 406.991)">
<stop offset="0.3575" stop-color="#E24DB0"/>
<stop offset="1" stop-color="#E24DB0" stop-opacity="0"/>
</radialGradient>
<radialGradient id="paint1_radial_6_635" cx="0" cy="0" r="1" gradientUnits="userSpaceOnUse" gradientTransform="translate(867.742 335.072) scale(244.483 220.792)">
<stop offset="0.3631" stop-color="#84EF41"/>
<stop offset="0.9944" stop-color="#84EF41" stop-opacity="0"/>
</radialGradient>
<radialGradient id="paint2_radial_6_635" cx="0" cy="0" r="1" gradientUnits="userSpaceOnUse" gradientTransform="translate(1025.67 475.797) scale(244.483 220.792)">
<stop offset="0.3631" stop-color="#84EF41"/>
<stop offset="0.9944" stop-color="#84EF41" stop-opacity="0"/>
</radialGradient>
<linearGradient id="paint3_linear_6_635" x1="527.083" y1="391.319" x2="661.208" y2="623.827" gradientUnits="userSpaceOnUse">
<stop stop-color="#84EF41" stop-opacity="0"/>
<stop offset="0.2402" stop-color="#84EF41"/>
<stop offset="0.4693" stop-color="#0EBE00"/>
</linearGradient>
<clipPath id="clip0_6_635">
<rect width="1440" height="493" fill="white"/>
</clipPath>
<clipPath id="clip1_6_635">
<rect width="84.4201" height="80.4775" fill="white" transform="matrix(0.975269 -0.22102 0.221376 0.975189 526.454 288.97)"/>
</clipPath>
<clipPath id="clip2_6_635">
<rect width="91.6912" height="81.3766" fill="white" transform="matrix(0.991921 -0.126859 0.12707 0.991894 439.115 314.857)"/>
</clipPath>
<clipPath id="clip3_6_635">
<rect width="253" height="65" fill="white" transform="translate(37 38)"/>
</clipPath>
</defs>
</svg>
