<svg width="250" height="50" viewBox="0 0 250 50" fill="none" xmlns="http://www.w3.org/2000/svg">
<rect width="250" height="50" rx="25" fill="#585858"/>
<path d="M36.4141 17.5273L31.5508 32H28.1406L34.5156 14.9375H36.6953L36.4141 17.5273ZM40.4805 32L35.5938 17.5273L35.3008 14.9375H37.4922L43.9023 32H40.4805ZM40.2578 25.6602V28.2031H31.1055V25.6602H40.2578ZM53.0312 29.3047V14H56.1484V32H53.3359L53.0312 29.3047ZM44.8867 25.8125V25.5664C44.8867 24.5977 44.9961 23.7188 45.2148 22.9297C45.4414 22.1328 45.7695 21.4492 46.1992 20.8789C46.6289 20.3086 47.1484 19.8672 47.7578 19.5547C48.375 19.2422 49.0742 19.0859 49.8555 19.0859C50.6133 19.0859 51.2734 19.2383 51.8359 19.543C52.4062 19.8477 52.8906 20.2812 53.2891 20.8438C53.6953 21.4062 54.0195 22.0742 54.2617 22.8477C54.5039 23.6133 54.6797 24.457 54.7891 25.3789V26.0469C54.6797 26.9453 54.5039 27.7695 54.2617 28.5195C54.0195 29.2695 53.6953 29.9258 53.2891 30.4883C52.8906 31.043 52.4062 31.4727 51.8359 31.7773C51.2656 32.082 50.5977 32.2344 49.832 32.2344C49.0586 32.2344 48.3633 32.0742 47.7461 31.7539C47.1367 31.4336 46.6172 30.9844 46.1875 30.4062C45.7656 29.8281 45.4414 29.1484 45.2148 28.3672C44.9961 27.5859 44.8867 26.7344 44.8867 25.8125ZM47.9922 25.5664V25.8125C47.9922 26.3594 48.0391 26.8711 48.1328 27.3477C48.2266 27.8242 48.3789 28.2461 48.5898 28.6133C48.8008 28.9727 49.0703 29.2539 49.3984 29.457C49.7344 29.6602 50.1406 29.7617 50.6172 29.7617C51.2266 29.7617 51.7266 29.6289 52.1172 29.3633C52.5156 29.0898 52.8242 28.7188 53.043 28.25C53.2617 27.7734 53.4023 27.2383 53.4648 26.6445V24.8047C53.4336 24.3359 53.3516 23.9023 53.2188 23.5039C53.0938 23.1055 52.9141 22.7617 52.6797 22.4727C52.4531 22.1836 52.1719 21.957 51.8359 21.793C51.5 21.6289 51.1016 21.5469 50.6406 21.5469C50.1641 21.5469 49.7578 21.6523 49.4219 21.8633C49.0859 22.0664 48.8125 22.3516 48.6016 22.7188C48.3906 23.0859 48.2344 23.5117 48.1328 23.9961C48.0391 24.4805 47.9922 25.0039 47.9922 25.5664ZM66.5547 29.3047V14H69.6719V32H66.8594L66.5547 29.3047ZM58.4102 25.8125V25.5664C58.4102 24.5977 58.5195 23.7188 58.7383 22.9297C58.9648 22.1328 59.293 21.4492 59.7227 20.8789C60.1523 20.3086 60.6719 19.8672 61.2812 19.5547C61.8984 19.2422 62.5977 19.0859 63.3789 19.0859C64.1367 19.0859 64.7969 19.2383 65.3594 19.543C65.9297 19.8477 66.4141 20.2812 66.8125 20.8438C67.2188 21.4062 67.543 22.0742 67.7852 22.8477C68.0273 23.6133 68.2031 24.457 68.3125 25.3789V26.0469C68.2031 26.9453 68.0273 27.7695 67.7852 28.5195C67.543 29.2695 67.2188 29.9258 66.8125 30.4883C66.4141 31.043 65.9297 31.4727 65.3594 31.7773C64.7891 32.082 64.1211 32.2344 63.3555 32.2344C62.582 32.2344 61.8867 32.0742 61.2695 31.7539C60.6602 31.4336 60.1406 30.9844 59.7109 30.4062C59.2891 29.8281 58.9648 29.1484 58.7383 28.3672C58.5195 27.5859 58.4102 26.7344 58.4102 25.8125ZM61.5156 25.5664V25.8125C61.5156 26.3594 61.5625 26.8711 61.6562 27.3477C61.75 27.8242 61.9023 28.2461 62.1133 28.6133C62.3242 28.9727 62.5938 29.2539 62.9219 29.457C63.2578 29.6602 63.6641 29.7617 64.1406 29.7617C64.75 29.7617 65.25 29.6289 65.6406 29.3633C66.0391 29.0898 66.3477 28.7188 66.5664 28.25C66.7852 27.7734 66.9258 27.2383 66.9883 26.6445V24.8047C66.957 24.3359 66.875 23.9023 66.7422 23.5039C66.6172 23.1055 66.4375 22.7617 66.2031 22.4727C65.9766 22.1836 65.6953 21.957 65.3594 21.793C65.0234 21.6289 64.625 21.5469 64.1641 21.5469C63.6875 21.5469 63.2812 21.6523 62.9453 21.8633C62.6094 22.0664 62.3359 22.3516 62.125 22.7188C61.9141 23.0859 61.7578 23.5117 61.6562 23.9961C61.5625 24.4805 61.5156 25.0039 61.5156 25.5664ZM84.4492 19.3203V21.5469H77.1836V19.3203H84.4492ZM79.1289 16.2031H82.2344V28.3438C82.2344 28.7188 82.2852 29.0078 82.3867 29.2109C82.4883 29.4141 82.6406 29.5508 82.8438 29.6211C83.0469 29.6914 83.2891 29.7266 83.5703 29.7266C83.7734 29.7266 83.9609 29.7148 84.1328 29.6914C84.3047 29.668 84.4492 29.6445 84.5664 29.6211L84.5781 31.9414C84.3203 32.0273 84.0273 32.0977 83.6992 32.1523C83.3789 32.207 83.0156 32.2344 82.6094 32.2344C81.9141 32.2344 81.3047 32.1172 80.7812 31.8828C80.2578 31.6406 79.8516 31.2539 79.5625 30.7227C79.2734 30.1836 79.1289 29.4727 79.1289 28.5898V16.2031ZM85.6562 25.7891V25.543C85.6562 24.6133 85.7891 23.7578 86.0547 22.9766C86.3203 22.1875 86.707 21.5039 87.2148 20.9258C87.7227 20.3477 88.3438 19.8984 89.0781 19.5781C89.8125 19.25 90.6484 19.0859 91.5859 19.0859C92.5391 19.0859 93.3828 19.25 94.1172 19.5781C94.8594 19.8984 95.4844 20.3477 95.9922 20.9258C96.5 21.5039 96.8867 22.1875 97.1523 22.9766C97.418 23.7578 97.5508 24.6133 97.5508 25.543V25.7891C97.5508 26.7109 97.418 27.5664 97.1523 28.3555C96.8867 29.1367 96.5 29.8203 95.9922 30.4062C95.4844 30.9844 94.8633 31.4336 94.1289 31.7539C93.3945 32.0742 92.5547 32.2344 91.6094 32.2344C90.6719 32.2344 89.832 32.0742 89.0898 31.7539C88.3477 31.4336 87.7227 30.9844 87.2148 30.4062C86.707 29.8203 86.3203 29.1367 86.0547 28.3555C85.7891 27.5664 85.6562 26.7109 85.6562 25.7891ZM88.75 25.543V25.7891C88.75 26.3438 88.8047 26.8633 88.9141 27.3477C89.0234 27.832 89.1914 28.2578 89.418 28.625C89.6445 28.9922 89.9375 29.2812 90.2969 29.4922C90.6641 29.6953 91.1016 29.7969 91.6094 29.7969C92.1094 29.7969 92.5391 29.6953 92.8984 29.4922C93.2578 29.2812 93.5508 28.9922 93.7773 28.625C94.0117 28.2578 94.1836 27.832 94.293 27.3477C94.4023 26.8633 94.457 26.3438 94.457 25.7891V25.543C94.457 24.9961 94.4023 24.4844 94.293 24.0078C94.1836 23.5234 94.0117 23.0977 93.7773 22.7305C93.5508 22.3555 93.2539 22.0625 92.8867 21.8516C92.5273 21.6328 92.0938 21.5234 91.5859 21.5234C91.0859 21.5234 90.6562 21.6328 90.2969 21.8516C89.9375 22.0625 89.6445 22.3555 89.418 22.7305C89.1914 23.0977 89.0234 23.5234 88.9141 24.0078C88.8047 24.4844 88.75 24.9961 88.75 25.543ZM115.996 26.3867H119.219C119.133 27.5273 118.816 28.5391 118.27 29.4219C117.723 30.2969 116.961 30.9844 115.984 31.4844C115.008 31.9844 113.824 32.2344 112.434 32.2344C111.363 32.2344 110.398 32.0469 109.539 31.6719C108.688 31.2891 107.957 30.7461 107.348 30.043C106.746 29.332 106.285 28.4805 105.965 27.4883C105.645 26.4883 105.484 25.3672 105.484 24.125V22.8242C105.484 21.582 105.648 20.4609 105.977 19.4609C106.305 18.4609 106.773 17.6094 107.383 16.9062C108 16.1953 108.738 15.6484 109.598 15.2656C110.465 14.8828 111.434 14.6914 112.504 14.6914C113.895 14.6914 115.07 14.9492 116.031 15.4648C116.992 15.9727 117.738 16.6719 118.27 17.5625C118.801 18.4531 119.121 19.4766 119.23 20.6328H116.008C115.945 19.9141 115.789 19.3047 115.539 18.8047C115.297 18.3047 114.93 17.9258 114.438 17.668C113.953 17.4023 113.309 17.2695 112.504 17.2695C111.879 17.2695 111.328 17.3867 110.852 17.6211C110.383 17.8555 109.992 18.207 109.68 18.6758C109.367 19.1367 109.133 19.7148 108.977 20.4102C108.82 21.0977 108.742 21.8945 108.742 22.8008V24.125C108.742 24.9922 108.812 25.7695 108.953 26.457C109.094 27.1445 109.312 27.7266 109.609 28.2031C109.906 28.6797 110.289 29.043 110.758 29.293C111.227 29.543 111.785 29.668 112.434 29.668C113.223 29.668 113.863 29.543 114.355 29.293C114.855 29.043 115.234 28.6758 115.492 28.1914C115.758 27.707 115.926 27.1055 115.996 26.3867ZM124.516 14V32H121.41V14H124.516ZM124.023 25.2031H123.109C123.109 24.3203 123.227 23.5078 123.461 22.7656C123.695 22.0234 124.027 21.3789 124.457 20.832C124.887 20.2773 125.398 19.8477 125.992 19.543C126.594 19.2383 127.258 19.0859 127.984 19.0859C128.609 19.0859 129.176 19.1758 129.684 19.3555C130.199 19.5273 130.641 19.8047 131.008 20.1875C131.375 20.5703 131.656 21.0703 131.852 21.6875C132.055 22.2969 132.156 23.0391 132.156 23.9141V32H129.039V23.8906C129.039 23.3047 128.953 22.8438 128.781 22.5078C128.609 22.1641 128.363 21.918 128.043 21.7695C127.73 21.6211 127.344 21.5469 126.883 21.5469C126.383 21.5469 125.953 21.6445 125.594 21.8398C125.234 22.0273 124.938 22.2891 124.703 22.625C124.477 22.9609 124.305 23.3477 124.188 23.7852C124.078 24.2227 124.023 24.6953 124.023 25.2031ZM137.98 21.9102V32H134.887V19.3203H137.816L137.98 21.9102ZM141.836 19.2383L141.789 22.1211C141.617 22.0898 141.422 22.0664 141.203 22.0508C140.992 22.0352 140.793 22.0273 140.605 22.0273C140.129 22.0273 139.711 22.0938 139.352 22.2266C138.992 22.3516 138.691 22.5352 138.449 22.7773C138.215 23.0195 138.035 23.3164 137.91 23.668C137.785 24.0117 137.715 24.4023 137.699 24.8398L137.031 24.7578C137.031 23.9531 137.113 23.207 137.277 22.5195C137.441 21.832 137.68 21.2305 137.992 20.7148C138.305 20.1992 138.695 19.8008 139.164 19.5195C139.641 19.2305 140.188 19.0859 140.805 19.0859C140.977 19.0859 141.16 19.1016 141.355 19.1328C141.559 19.1562 141.719 19.1914 141.836 19.2383ZM142.656 25.7891V25.543C142.656 24.6133 142.789 23.7578 143.055 22.9766C143.32 22.1875 143.707 21.5039 144.215 20.9258C144.723 20.3477 145.344 19.8984 146.078 19.5781C146.812 19.25 147.648 19.0859 148.586 19.0859C149.539 19.0859 150.383 19.25 151.117 19.5781C151.859 19.8984 152.484 20.3477 152.992 20.9258C153.5 21.5039 153.887 22.1875 154.152 22.9766C154.418 23.7578 154.551 24.6133 154.551 25.543V25.7891C154.551 26.7109 154.418 27.5664 154.152 28.3555C153.887 29.1367 153.5 29.8203 152.992 30.4062C152.484 30.9844 151.863 31.4336 151.129 31.7539C150.395 32.0742 149.555 32.2344 148.609 32.2344C147.672 32.2344 146.832 32.0742 146.09 31.7539C145.348 31.4336 144.723 30.9844 144.215 30.4062C143.707 29.8203 143.32 29.1367 143.055 28.3555C142.789 27.5664 142.656 26.7109 142.656 25.7891ZM145.75 25.543V25.7891C145.75 26.3438 145.805 26.8633 145.914 27.3477C146.023 27.832 146.191 28.2578 146.418 28.625C146.645 28.9922 146.938 29.2812 147.297 29.4922C147.664 29.6953 148.102 29.7969 148.609 29.7969C149.109 29.7969 149.539 29.6953 149.898 29.4922C150.258 29.2812 150.551 28.9922 150.777 28.625C151.012 28.2578 151.184 27.832 151.293 27.3477C151.402 26.8633 151.457 26.3438 151.457 25.7891V25.543C151.457 24.9961 151.402 24.4844 151.293 24.0078C151.184 23.5234 151.012 23.0977 150.777 22.7305C150.551 22.3555 150.254 22.0625 149.887 21.8516C149.527 21.6328 149.094 21.5234 148.586 21.5234C148.086 21.5234 147.656 21.6328 147.297 21.8516C146.938 22.0625 146.645 22.3555 146.418 22.7305C146.191 23.0977 146.023 23.5234 145.914 24.0078C145.805 24.4844 145.75 24.9961 145.75 25.543ZM159.883 21.9219V32H156.789V19.3203H159.707L159.883 21.9219ZM159.426 25.2031H158.477C158.477 24.3203 158.582 23.5078 158.793 22.7656C159.012 22.0234 159.332 21.3789 159.754 20.832C160.176 20.2773 160.695 19.8477 161.312 19.543C161.938 19.2383 162.66 19.0859 163.48 19.0859C164.051 19.0859 164.574 19.1719 165.051 19.3438C165.527 19.5078 165.938 19.7695 166.281 20.1289C166.633 20.4805 166.902 20.9414 167.09 21.5117C167.277 22.0742 167.371 22.75 167.371 23.5391V32H164.277V23.8555C164.277 23.2617 164.191 22.7969 164.02 22.4609C163.855 22.125 163.617 21.8906 163.305 21.7578C162.992 21.6172 162.617 21.5469 162.18 21.5469C161.695 21.5469 161.277 21.6445 160.926 21.8398C160.582 22.0273 160.297 22.2891 160.07 22.625C159.852 22.9609 159.688 23.3477 159.578 23.7852C159.477 24.2227 159.426 24.6953 159.426 25.2031ZM167.137 24.6289L165.859 24.8633C165.867 24.0664 165.977 23.3203 166.188 22.625C166.398 21.9219 166.707 21.3086 167.113 20.7852C167.527 20.2539 168.039 19.8398 168.648 19.543C169.266 19.2383 169.977 19.0859 170.781 19.0859C171.406 19.0859 171.969 19.1758 172.469 19.3555C172.977 19.5273 173.41 19.8047 173.77 20.1875C174.129 20.5625 174.402 21.0508 174.59 21.6523C174.785 22.2539 174.883 22.9883 174.883 23.8555V32H171.766V23.8438C171.766 23.2266 171.68 22.7539 171.508 22.4258C171.344 22.0977 171.105 21.8711 170.793 21.7461C170.48 21.6133 170.113 21.5469 169.691 21.5469C169.262 21.5469 168.887 21.6289 168.566 21.793C168.254 21.9492 167.988 22.168 167.77 22.4492C167.559 22.7305 167.398 23.0586 167.289 23.4336C167.188 23.8008 167.137 24.1992 167.137 24.6289ZM183.355 32.2344C182.395 32.2344 181.531 32.0781 180.766 31.7656C180 31.4531 179.348 31.0195 178.809 30.4648C178.277 29.9023 177.867 29.25 177.578 28.5078C177.297 27.7578 177.156 26.9531 177.156 26.0938V25.625C177.156 24.6484 177.297 23.7617 177.578 22.9648C177.859 22.1602 178.258 21.4688 178.773 20.8906C179.289 20.3125 179.906 19.8672 180.625 19.5547C181.344 19.2422 182.137 19.0859 183.004 19.0859C183.902 19.0859 184.695 19.2383 185.383 19.543C186.07 19.8398 186.645 20.2617 187.105 20.8086C187.566 21.3555 187.914 22.0117 188.148 22.7773C188.383 23.5352 188.5 24.375 188.5 25.2969V26.5977H178.562V24.4648H185.453V24.2305C185.438 23.7383 185.344 23.2891 185.172 22.8828C185 22.4688 184.734 22.1406 184.375 21.8984C184.016 21.6484 183.551 21.5234 182.98 21.5234C182.52 21.5234 182.117 21.625 181.773 21.8281C181.438 22.0234 181.156 22.3047 180.93 22.6719C180.711 23.0312 180.547 23.4609 180.438 23.9609C180.328 24.4609 180.273 25.0156 180.273 25.625V26.0938C180.273 26.625 180.344 27.1172 180.484 27.5703C180.633 28.0234 180.848 28.418 181.129 28.7539C181.418 29.082 181.762 29.3398 182.16 29.5273C182.566 29.707 183.027 29.7969 183.543 29.7969C184.191 29.7969 184.777 29.6719 185.301 29.4219C185.832 29.1641 186.293 28.7852 186.684 28.2852L188.242 29.9023C187.977 30.293 187.617 30.668 187.164 31.0273C186.719 31.3867 186.18 31.6797 185.547 31.9062C184.914 32.125 184.184 32.2344 183.355 32.2344Z" fill="white"/>
<g clip-path="url(#clip0_7_22)">
<path d="M221 31.996C225.971 31.996 230 27.9666 230 22.996C230 18.0255 225.971 13.996 221 13.996C216.029 13.996 212 18.0255 212 22.996C212 27.9666 216.029 31.996 221 31.996Z" fill="white"/>
<path d="M221 14H236.586C235.007 11.2636 232.735 8.99116 229.999 7.41129C227.262 5.83142 224.158 4.99978 220.999 5C217.839 5.00022 214.736 5.83229 212 7.41254C209.264 8.99279 206.992 11.2655 205.413 14.0022L213.206 27.5L213.213 27.4982C212.42 26.1312 212.002 24.5793 212 22.999C211.998 21.4188 212.413 19.8659 213.203 18.4971C213.993 17.1283 215.129 15.9918 216.498 15.2023C217.867 14.4128 219.42 13.9981 221 14Z" fill="url(#paint0_linear_7_22)"/>
<path d="M221 30.125C224.935 30.125 228.125 26.935 228.125 23C228.125 19.065 224.935 15.875 221 15.875C217.065 15.875 213.875 19.065 213.875 23C213.875 26.935 217.065 30.125 221 30.125Z" fill="#1A73E8"/>
<path d="M228.793 27.5022L221.001 41C224.16 41.0004 227.264 40.169 230 38.5893C232.737 37.0097 235.009 34.7374 236.588 32.0011C238.168 29.2648 238.999 26.1608 238.999 23.0013C238.998 19.8418 238.166 16.7381 236.585 14.0023H220.999L220.997 14.0093C222.578 14.0062 224.131 14.4199 225.5 15.2085C226.87 15.997 228.007 17.1327 228.798 18.501C229.588 19.8693 230.004 21.4219 230.003 23.0022C230.003 24.5824 229.585 26.1346 228.793 27.5022Z" fill="url(#paint1_linear_7_22)"/>
<path d="M213.206 27.5023L205.413 14.0045C203.833 16.7405 203.001 19.8443 203.001 23.0038C203.001 26.1634 203.833 29.2672 205.413 32.0034C206.993 34.7395 209.265 37.0114 212.002 38.5907C214.738 40.1699 217.842 41.0009 221.002 41L228.795 27.5022L228.79 27.4971C228.002 28.8672 226.867 30.0054 225.5 30.7971C224.132 31.5888 222.58 32.0059 221 32.0064C219.419 32.0069 217.867 31.5909 216.499 30.8001C215.13 30.0094 213.995 28.8719 213.206 27.5023Z" fill="url(#paint2_linear_7_22)"/>
</g>
<defs>
<linearGradient id="paint0_linear_7_22" x1="205.413" y1="16.25" x2="236.586" y2="16.25" gradientUnits="userSpaceOnUse">
<stop stop-color="#D93025"/>
<stop offset="1" stop-color="#EA4335"/>
</linearGradient>
<linearGradient id="paint1_linear_7_22" x1="218.541" y1="40.7593" x2="234.128" y2="13.7628" gradientUnits="userSpaceOnUse">
<stop stop-color="#FCC934"/>
<stop offset="1" stop-color="#FBBC04"/>
</linearGradient>
<linearGradient id="paint2_linear_7_22" x1="222.949" y1="39.8761" x2="207.362" y2="12.8795" gradientUnits="userSpaceOnUse">
<stop stop-color="#1E8E3E"/>
<stop offset="1" stop-color="#34A853"/>
</linearGradient>
<clipPath id="clip0_7_22">
<rect width="36" height="36" fill="white" transform="translate(203 5)"/>
</clipPath>
</defs>
</svg>
