<svg width="250" height="50" viewBox="0 0 250 50" fill="none" xmlns="http://www.w3.org/2000/svg">
<rect width="250" height="50" rx="25" fill="#585858"/>
<path d="M50.4141 17.5273L45.5508 32H42.1406L48.5156 14.9375H50.6953L50.4141 17.5273ZM54.4805 32L49.5938 17.5273L49.3008 14.9375H51.4922L57.9023 32H54.4805ZM54.2578 25.6602V28.2031H45.1055V25.6602H54.2578ZM67.0312 29.3047V14H70.1484V32H67.3359L67.0312 29.3047ZM58.8867 25.8125V25.5664C58.8867 24.5977 58.9961 23.7188 59.2148 22.9297C59.4414 22.1328 59.7695 21.4492 60.1992 20.8789C60.6289 20.3086 61.1484 19.8672 61.7578 19.5547C62.375 19.2422 63.0742 19.0859 63.8555 19.0859C64.6133 19.0859 65.2734 19.2383 65.8359 19.543C66.4062 19.8477 66.8906 20.2812 67.2891 20.8438C67.6953 21.4062 68.0195 22.0742 68.2617 22.8477C68.5039 23.6133 68.6797 24.457 68.7891 25.3789V26.0469C68.6797 26.9453 68.5039 27.7695 68.2617 28.5195C68.0195 29.2695 67.6953 29.9258 67.2891 30.4883C66.8906 31.043 66.4062 31.4727 65.8359 31.7773C65.2656 32.082 64.5977 32.2344 63.832 32.2344C63.0586 32.2344 62.3633 32.0742 61.7461 31.7539C61.1367 31.4336 60.6172 30.9844 60.1875 30.4062C59.7656 29.8281 59.4414 29.1484 59.2148 28.3672C58.9961 27.5859 58.8867 26.7344 58.8867 25.8125ZM61.9922 25.5664V25.8125C61.9922 26.3594 62.0391 26.8711 62.1328 27.3477C62.2266 27.8242 62.3789 28.2461 62.5898 28.6133C62.8008 28.9727 63.0703 29.2539 63.3984 29.457C63.7344 29.6602 64.1406 29.7617 64.6172 29.7617C65.2266 29.7617 65.7266 29.6289 66.1172 29.3633C66.5156 29.0898 66.8242 28.7188 67.043 28.25C67.2617 27.7734 67.4023 27.2383 67.4648 26.6445V24.8047C67.4336 24.3359 67.3516 23.9023 67.2188 23.5039C67.0938 23.1055 66.9141 22.7617 66.6797 22.4727C66.4531 22.1836 66.1719 21.957 65.8359 21.793C65.5 21.6289 65.1016 21.5469 64.6406 21.5469C64.1641 21.5469 63.7578 21.6523 63.4219 21.8633C63.0859 22.0664 62.8125 22.3516 62.6016 22.7188C62.3906 23.0859 62.2344 23.5117 62.1328 23.9961C62.0391 24.4805 61.9922 25.0039 61.9922 25.5664ZM80.5547 29.3047V14H83.6719V32H80.8594L80.5547 29.3047ZM72.4102 25.8125V25.5664C72.4102 24.5977 72.5195 23.7188 72.7383 22.9297C72.9648 22.1328 73.293 21.4492 73.7227 20.8789C74.1523 20.3086 74.6719 19.8672 75.2812 19.5547C75.8984 19.2422 76.5977 19.0859 77.3789 19.0859C78.1367 19.0859 78.7969 19.2383 79.3594 19.543C79.9297 19.8477 80.4141 20.2812 80.8125 20.8438C81.2188 21.4062 81.543 22.0742 81.7852 22.8477C82.0273 23.6133 82.2031 24.457 82.3125 25.3789V26.0469C82.2031 26.9453 82.0273 27.7695 81.7852 28.5195C81.543 29.2695 81.2188 29.9258 80.8125 30.4883C80.4141 31.043 79.9297 31.4727 79.3594 31.7773C78.7891 32.082 78.1211 32.2344 77.3555 32.2344C76.582 32.2344 75.8867 32.0742 75.2695 31.7539C74.6602 31.4336 74.1406 30.9844 73.7109 30.4062C73.2891 29.8281 72.9648 29.1484 72.7383 28.3672C72.5195 27.5859 72.4102 26.7344 72.4102 25.8125ZM75.5156 25.5664V25.8125C75.5156 26.3594 75.5625 26.8711 75.6562 27.3477C75.75 27.8242 75.9023 28.2461 76.1133 28.6133C76.3242 28.9727 76.5938 29.2539 76.9219 29.457C77.2578 29.6602 77.6641 29.7617 78.1406 29.7617C78.75 29.7617 79.25 29.6289 79.6406 29.3633C80.0391 29.0898 80.3477 28.7188 80.5664 28.25C80.7852 27.7734 80.9258 27.2383 80.9883 26.6445V24.8047C80.957 24.3359 80.875 23.9023 80.7422 23.5039C80.6172 23.1055 80.4375 22.7617 80.2031 22.4727C79.9766 22.1836 79.6953 21.957 79.3594 21.793C79.0234 21.6289 78.625 21.5469 78.1641 21.5469C77.6875 21.5469 77.2812 21.6523 76.9453 21.8633C76.6094 22.0664 76.3359 22.3516 76.125 22.7188C75.9141 23.0859 75.7578 23.5117 75.6562 23.9961C75.5625 24.4805 75.5156 25.0039 75.5156 25.5664ZM98.4492 19.3203V21.5469H91.1836V19.3203H98.4492ZM93.1289 16.2031H96.2344V28.3438C96.2344 28.7188 96.2852 29.0078 96.3867 29.2109C96.4883 29.4141 96.6406 29.5508 96.8438 29.6211C97.0469 29.6914 97.2891 29.7266 97.5703 29.7266C97.7734 29.7266 97.9609 29.7148 98.1328 29.6914C98.3047 29.668 98.4492 29.6445 98.5664 29.6211L98.5781 31.9414C98.3203 32.0273 98.0273 32.0977 97.6992 32.1523C97.3789 32.207 97.0156 32.2344 96.6094 32.2344C95.9141 32.2344 95.3047 32.1172 94.7812 31.8828C94.2578 31.6406 93.8516 31.2539 93.5625 30.7227C93.2734 30.1836 93.1289 29.4727 93.1289 28.5898V16.2031ZM99.6562 25.7891V25.543C99.6562 24.6133 99.7891 23.7578 100.055 22.9766C100.32 22.1875 100.707 21.5039 101.215 20.9258C101.723 20.3477 102.344 19.8984 103.078 19.5781C103.812 19.25 104.648 19.0859 105.586 19.0859C106.539 19.0859 107.383 19.25 108.117 19.5781C108.859 19.8984 109.484 20.3477 109.992 20.9258C110.5 21.5039 110.887 22.1875 111.152 22.9766C111.418 23.7578 111.551 24.6133 111.551 25.543V25.7891C111.551 26.7109 111.418 27.5664 111.152 28.3555C110.887 29.1367 110.5 29.8203 109.992 30.4062C109.484 30.9844 108.863 31.4336 108.129 31.7539C107.395 32.0742 106.555 32.2344 105.609 32.2344C104.672 32.2344 103.832 32.0742 103.09 31.7539C102.348 31.4336 101.723 30.9844 101.215 30.4062C100.707 29.8203 100.32 29.1367 100.055 28.3555C99.7891 27.5664 99.6562 26.7109 99.6562 25.7891ZM102.75 25.543V25.7891C102.75 26.3438 102.805 26.8633 102.914 27.3477C103.023 27.832 103.191 28.2578 103.418 28.625C103.645 28.9922 103.938 29.2812 104.297 29.4922C104.664 29.6953 105.102 29.7969 105.609 29.7969C106.109 29.7969 106.539 29.6953 106.898 29.4922C107.258 29.2812 107.551 28.9922 107.777 28.625C108.012 28.2578 108.184 27.832 108.293 27.3477C108.402 26.8633 108.457 26.3438 108.457 25.7891V25.543C108.457 24.9961 108.402 24.4844 108.293 24.0078C108.184 23.5234 108.012 23.0977 107.777 22.7305C107.551 22.3555 107.254 22.0625 106.887 21.8516C106.527 21.6328 106.094 21.5234 105.586 21.5234C105.086 21.5234 104.656 21.6328 104.297 21.8516C103.938 22.0625 103.645 22.3555 103.418 22.7305C103.191 23.0977 103.023 23.5234 102.914 24.0078C102.805 24.4844 102.75 24.9961 102.75 25.543ZM131.32 29.4688V32H122.25V29.4688H131.32ZM123.234 14.9375V32H120.012V14.9375H123.234ZM130.137 21.9805V24.4531H122.25V21.9805H130.137ZM131.285 14.9375V17.4805H122.25V14.9375H131.285ZM140.695 29.3047V14H143.812V32H141L140.695 29.3047ZM132.551 25.8125V25.5664C132.551 24.5977 132.66 23.7188 132.879 22.9297C133.105 22.1328 133.434 21.4492 133.863 20.8789C134.293 20.3086 134.812 19.8672 135.422 19.5547C136.039 19.2422 136.738 19.0859 137.52 19.0859C138.277 19.0859 138.938 19.2383 139.5 19.543C140.07 19.8477 140.555 20.2812 140.953 20.8438C141.359 21.4062 141.684 22.0742 141.926 22.8477C142.168 23.6133 142.344 24.457 142.453 25.3789V26.0469C142.344 26.9453 142.168 27.7695 141.926 28.5195C141.684 29.2695 141.359 29.9258 140.953 30.4883C140.555 31.043 140.07 31.4727 139.5 31.7773C138.93 32.082 138.262 32.2344 137.496 32.2344C136.723 32.2344 136.027 32.0742 135.41 31.7539C134.801 31.4336 134.281 30.9844 133.852 30.4062C133.43 29.8281 133.105 29.1484 132.879 28.3672C132.66 27.5859 132.551 26.7344 132.551 25.8125ZM135.656 25.5664V25.8125C135.656 26.3594 135.703 26.8711 135.797 27.3477C135.891 27.8242 136.043 28.2461 136.254 28.6133C136.465 28.9727 136.734 29.2539 137.062 29.457C137.398 29.6602 137.805 29.7617 138.281 29.7617C138.891 29.7617 139.391 29.6289 139.781 29.3633C140.18 29.0898 140.488 28.7188 140.707 28.25C140.926 27.7734 141.066 27.2383 141.129 26.6445V24.8047C141.098 24.3359 141.016 23.9023 140.883 23.5039C140.758 23.1055 140.578 22.7617 140.344 22.4727C140.117 22.1836 139.836 21.957 139.5 21.793C139.164 21.6289 138.766 21.5469 138.305 21.5469C137.828 21.5469 137.422 21.6523 137.086 21.8633C136.75 22.0664 136.477 22.3516 136.266 22.7188C136.055 23.0859 135.898 23.5117 135.797 23.9961C135.703 24.4805 135.656 25.0039 135.656 25.5664ZM154.676 19.3203H157.488V31.6133C157.488 32.7617 157.238 33.7344 156.738 34.5312C156.246 35.3359 155.555 35.9453 154.664 36.3594C153.773 36.7812 152.738 36.9922 151.559 36.9922C151.051 36.9922 150.5 36.9219 149.906 36.7812C149.32 36.6406 148.754 36.418 148.207 36.1133C147.668 35.8164 147.219 35.4297 146.859 34.9531L148.254 33.125C148.676 33.6172 149.152 33.9883 149.684 34.2383C150.215 34.4961 150.789 34.625 151.406 34.625C152.031 34.625 152.562 34.5078 153 34.2734C153.445 34.0469 153.785 33.7109 154.02 33.2656C154.262 32.8281 154.383 32.2891 154.383 31.6484V22.2148L154.676 19.3203ZM146.109 25.8125V25.5664C146.109 24.5977 146.227 23.7188 146.461 22.9297C146.695 22.1328 147.031 21.4492 147.469 20.8789C147.914 20.3086 148.449 19.8672 149.074 19.5547C149.707 19.2422 150.418 19.0859 151.207 19.0859C152.043 19.0859 152.746 19.2383 153.316 19.543C153.895 19.8477 154.371 20.2812 154.746 20.8438C155.129 21.4062 155.426 22.0742 155.637 22.8477C155.855 23.6133 156.023 24.457 156.141 25.3789V26.0469C156.031 26.9453 155.855 27.7695 155.613 28.5195C155.379 29.2695 155.066 29.9258 154.676 30.4883C154.285 31.043 153.801 31.4727 153.223 31.7773C152.645 32.082 151.965 32.2344 151.184 32.2344C150.402 32.2344 149.699 32.0742 149.074 31.7539C148.449 31.4336 147.914 30.9844 147.469 30.4062C147.031 29.8281 146.695 29.1484 146.461 28.3672C146.227 27.5859 146.109 26.7344 146.109 25.8125ZM149.203 25.5664V25.8125C149.203 26.3594 149.258 26.8711 149.367 27.3477C149.477 27.8242 149.645 28.2461 149.871 28.6133C150.098 28.9727 150.383 29.2539 150.727 29.457C151.07 29.6602 151.48 29.7617 151.957 29.7617C152.598 29.7617 153.121 29.6289 153.527 29.3633C153.941 29.0898 154.254 28.7188 154.465 28.25C154.684 27.7734 154.824 27.2383 154.887 26.6445V24.8047C154.848 24.3359 154.762 23.9023 154.629 23.5039C154.504 23.1055 154.328 22.7617 154.102 22.4727C153.875 22.1836 153.586 21.957 153.234 21.793C152.883 21.6289 152.465 21.5469 151.98 21.5469C151.512 21.5469 151.102 21.6523 150.75 21.8633C150.398 22.0664 150.109 22.3516 149.883 22.7188C149.656 23.0859 149.484 23.5117 149.367 23.9961C149.258 24.4805 149.203 25.0039 149.203 25.5664ZM165.973 32.2344C165.012 32.2344 164.148 32.0781 163.383 31.7656C162.617 31.4531 161.965 31.0195 161.426 30.4648C160.895 29.9023 160.484 29.25 160.195 28.5078C159.914 27.7578 159.773 26.9531 159.773 26.0938V25.625C159.773 24.6484 159.914 23.7617 160.195 22.9648C160.477 22.1602 160.875 21.4688 161.391 20.8906C161.906 20.3125 162.523 19.8672 163.242 19.5547C163.961 19.2422 164.754 19.0859 165.621 19.0859C166.52 19.0859 167.312 19.2383 168 19.543C168.688 19.8398 169.262 20.2617 169.723 20.8086C170.184 21.3555 170.531 22.0117 170.766 22.7773C171 23.5352 171.117 24.375 171.117 25.2969V26.5977H161.18V24.4648H168.07V24.2305C168.055 23.7383 167.961 23.2891 167.789 22.8828C167.617 22.4688 167.352 22.1406 166.992 21.8984C166.633 21.6484 166.168 21.5234 165.598 21.5234C165.137 21.5234 164.734 21.625 164.391 21.8281C164.055 22.0234 163.773 22.3047 163.547 22.6719C163.328 23.0312 163.164 23.4609 163.055 23.9609C162.945 24.4609 162.891 25.0156 162.891 25.625V26.0938C162.891 26.625 162.961 27.1172 163.102 27.5703C163.25 28.0234 163.465 28.418 163.746 28.7539C164.035 29.082 164.379 29.3398 164.777 29.5273C165.184 29.707 165.645 29.7969 166.16 29.7969C166.809 29.7969 167.395 29.6719 167.918 29.4219C168.449 29.1641 168.91 28.7852 169.301 28.2852L170.859 29.9023C170.594 30.293 170.234 30.668 169.781 31.0273C169.336 31.3867 168.797 31.6797 168.164 31.9062C167.531 32.125 166.801 32.2344 165.973 32.2344Z" fill="white"/>
<g clip-path="url(#clip0_192_131)">
<path d="M235.401 32.5332C234.905 32.791 234.393 33.0179 233.869 33.2125C232.209 33.8303 230.451 34.1437 228.68 34.1375C221.844 34.1375 215.889 29.4402 215.889 23.3988C215.898 22.5899 216.123 21.7979 216.539 21.1044C216.956 20.4109 217.55 19.8409 218.26 19.4531C212.074 19.7133 210.484 26.1594 210.484 29.9316C210.484 40.627 220.326 41.6965 222.451 41.6965C223.593 41.6965 225.313 41.3641 226.353 41.0316L226.541 40.9738C230.524 39.5976 233.919 36.9061 236.167 33.3426C236.232 33.2343 236.26 33.1076 236.247 32.9819C236.233 32.8561 236.179 32.7383 236.092 32.6465C236.005 32.5546 235.89 32.4938 235.766 32.4733C235.641 32.4529 235.513 32.4739 235.401 32.5332Z" fill="url(#paint0_linear_192_131)"/>
<path opacity="0.35" d="M235.401 32.5332C234.905 32.791 234.393 33.0179 233.869 33.2125C232.209 33.8303 230.451 34.1437 228.68 34.1375C221.844 34.1375 215.889 29.4402 215.889 23.3988C215.898 22.5899 216.123 21.7979 216.539 21.1044C216.956 20.4109 217.55 19.8409 218.26 19.4531C212.074 19.7133 210.484 26.1594 210.484 29.9316C210.484 40.627 220.326 41.6965 222.451 41.6965C223.593 41.6965 225.313 41.3641 226.353 41.0316L226.541 40.9738C230.524 39.5976 233.919 36.9061 236.167 33.3426C236.232 33.2343 236.26 33.1076 236.247 32.9819C236.233 32.8561 236.179 32.7383 236.092 32.6465C236.005 32.5546 235.89 32.4938 235.766 32.4733C235.641 32.4529 235.513 32.4739 235.401 32.5332Z" fill="url(#paint1_radial_192_131)"/>
<path d="M217.277 39.8753C215.99 39.0763 214.875 38.0299 213.996 36.7968C212.992 35.4226 212.301 33.8453 211.971 32.1757C211.642 30.506 211.681 28.7844 212.088 27.1317C212.494 25.479 213.257 23.9352 214.323 22.6087C215.389 21.2822 216.733 20.2052 218.26 19.4531C218.722 19.2363 219.488 18.8605 220.514 18.875C221.237 18.8805 221.948 19.053 222.592 19.379C223.236 19.7049 223.797 20.1755 224.229 20.7539C224.81 21.5359 225.129 22.4821 225.139 23.4566C225.139 23.4277 228.68 11.9519 213.577 11.9519C207.232 11.9519 202.014 17.9644 202.014 23.2542C201.989 26.0485 202.587 28.8134 203.763 31.348C205.69 35.4513 209.057 38.7042 213.224 40.4893C217.391 42.2744 222.068 42.4674 226.368 41.0316C224.862 41.5074 223.27 41.6504 221.703 41.4508C220.136 41.2511 218.63 40.7136 217.291 39.8753H217.277Z" fill="url(#paint2_linear_192_131)"/>
<path opacity="0.41" d="M217.277 39.8753C215.99 39.0763 214.875 38.0299 213.996 36.7968C212.992 35.4226 212.301 33.8453 211.971 32.1757C211.642 30.506 211.681 28.7844 212.088 27.1317C212.494 25.479 213.257 23.9352 214.323 22.6087C215.389 21.2822 216.733 20.2052 218.26 19.4531C218.722 19.2363 219.488 18.8605 220.514 18.875C221.237 18.8805 221.948 19.053 222.592 19.379C223.236 19.7049 223.797 20.1755 224.229 20.7539C224.81 21.5359 225.129 22.4821 225.139 23.4566C225.139 23.4277 228.68 11.9519 213.577 11.9519C207.232 11.9519 202.014 17.9644 202.014 23.2542C201.989 26.0485 202.587 28.8134 203.763 31.348C205.69 35.4513 209.057 38.7042 213.224 40.4893C217.391 42.2744 222.068 42.4674 226.368 41.0316C224.862 41.5074 223.27 41.6504 221.703 41.4508C220.136 41.2511 218.63 40.7136 217.291 39.8753H217.277Z" fill="url(#paint3_radial_192_131)"/>
<path d="M224.027 26.5063C223.896 26.6508 223.535 26.8676 223.535 27.3156C223.535 27.6914 223.781 28.0672 224.229 28.3707C226.296 29.816 230.212 29.6137 230.227 29.6137C231.768 29.6127 233.28 29.1984 234.606 28.4141C235.941 27.6331 237.049 26.5167 237.82 25.1756C238.591 23.8345 238.997 22.3152 239 20.7684C239.043 17.5309 237.844 15.3773 237.367 14.4234C234.288 8.43984 227.683 5 220.5 5C215.638 4.99952 210.972 6.91287 207.51 10.3262C204.048 13.7396 202.068 18.3786 202 23.2398C202.072 17.9645 207.319 13.7008 213.562 13.7008C214.068 13.7008 216.959 13.7441 219.633 15.1461C221.511 16.0796 223.067 17.5546 224.099 19.3809C224.98 20.9129 225.139 22.8641 225.139 23.6445C225.139 24.425 224.749 25.5668 224.012 26.5207L224.027 26.5063Z" fill="url(#paint4_radial_192_131)"/>
<path d="M224.027 26.5063C223.896 26.6508 223.535 26.8676 223.535 27.3156C223.535 27.6914 223.781 28.0672 224.229 28.3707C226.296 29.816 230.212 29.6137 230.227 29.6137C231.768 29.6127 233.28 29.1984 234.606 28.4141C235.941 27.6331 237.049 26.5167 237.82 25.1756C238.591 23.8345 238.997 22.3152 239 20.7684C239.043 17.5309 237.844 15.3773 237.367 14.4234C234.288 8.43984 227.683 5 220.5 5C215.638 4.99952 210.972 6.91287 207.51 10.3262C204.048 13.7396 202.068 18.3786 202 23.2398C202.072 17.9645 207.319 13.7008 213.562 13.7008C214.068 13.7008 216.959 13.7441 219.633 15.1461C221.511 16.0796 223.067 17.5546 224.099 19.3809C224.98 20.9129 225.139 22.8641 225.139 23.6445C225.139 24.425 224.749 25.5668 224.012 26.5207L224.027 26.5063Z" fill="url(#paint5_radial_192_131)"/>
</g>
<defs>
<linearGradient id="paint0_linear_192_131" x1="210.484" y1="30.582" x2="236.268" y2="30.582" gradientUnits="userSpaceOnUse">
<stop stop-color="#0C59A4"/>
<stop offset="1" stop-color="#114A8B"/>
</linearGradient>
<radialGradient id="paint1_radial_192_131" cx="0" cy="0" r="1" gradientUnits="userSpaceOnUse" gradientTransform="translate(224.72 30.7764) scale(13.7883 13.0989)">
<stop offset="0.7" stop-opacity="0"/>
<stop offset="0.9" stop-opacity="0.5"/>
<stop offset="1"/>
</radialGradient>
<linearGradient id="paint2_linear_192_131" x1="224.07" y1="19.3953" x2="207.984" y2="36.9269" gradientUnits="userSpaceOnUse">
<stop stop-color="#1B9DE2"/>
<stop offset="0.2" stop-color="#1595DF"/>
<stop offset="0.7" stop-color="#0680D7"/>
<stop offset="1" stop-color="#0078D4"/>
</linearGradient>
<radialGradient id="paint3_radial_192_131" cx="0" cy="0" r="1" gradientUnits="userSpaceOnUse" gradientTransform="translate(212.197 33.7526) rotate(-81.3844) scale(20.7238 16.7427)">
<stop offset="0.8" stop-opacity="0"/>
<stop offset="0.9" stop-opacity="0.5"/>
<stop offset="1"/>
</radialGradient>
<radialGradient id="paint4_radial_192_131" cx="0" cy="0" r="1" gradientUnits="userSpaceOnUse" gradientTransform="translate(205.742 11.8386) rotate(92.2906) scale(29.2765 62.3529)">
<stop stop-color="#35C1F1"/>
<stop offset="0.1" stop-color="#34C1ED"/>
<stop offset="0.2" stop-color="#2FC2DF"/>
<stop offset="0.3" stop-color="#2BC3D2"/>
<stop offset="0.7" stop-color="#36C752"/>
</radialGradient>
<radialGradient id="paint5_radial_192_131" cx="0" cy="0" r="1" gradientUnits="userSpaceOnUse" gradientTransform="translate(236.696 16.1723) rotate(73.7398) scale(14.0629 11.4359)">
<stop stop-color="#66EB6E"/>
<stop offset="1" stop-color="#66EB6E" stop-opacity="0"/>
</radialGradient>
<clipPath id="clip0_192_131">
<rect width="37" height="37" fill="white" transform="translate(202 5)"/>
</clipPath>
</defs>
</svg>
