<svg width="26" height="28" viewBox="0 0 26 28" fill="none" xmlns="http://www.w3.org/2000/svg">
<rect width="26" height="28" fill="white" fill-opacity="0.8"/>
<path d="M9.00001 18.6667C9.00001 19.0203 9.14049 19.3594 9.39053 19.6095C9.64058 19.8595 9.97972 20 10.3333 20H15.6667C16.0203 20 16.3594 19.8595 16.6095 19.6095C16.8595 19.3594 17 19.0203 17 18.6667V10.6667H9.00001V18.6667ZM10.64 13.92L11.58 12.98L13 14.3933L14.4133 12.98L15.3533 13.92L13.94 15.3333L15.3533 16.7467L14.4133 17.6867L13 16.2733L11.5867 17.6867L10.6467 16.7467L12.06 15.3333L10.64 13.92ZM15.3333 8.66667L14.6667 8H11.3333L10.6667 8.66667H8.33334V10H17.6667V8.66667H15.3333Z" fill="#FF5555"/>
</svg>
