<svg width="26" height="28" viewBox="0 0 26 28" fill="none" xmlns="http://www.w3.org/2000/svg">
<rect width="26" height="28" fill="white" fill-opacity="0.8"/>
<path d="M17.6667 18.6666H8.33333V9.33328H13V7.99995H8.33333C7.97971 7.99995 7.64057 8.14043 7.39052 8.39047C7.14048 8.64052 7 8.97966 7 9.33328V18.6666C7 19.0202 7.14048 19.3594 7.39052 19.6094C7.64057 19.8595 7.97971 19.9999 8.33333 19.9999H17.6667C18.0203 19.9999 18.3594 19.8595 18.6095 19.6094C18.8595 19.3594 19 19.0202 19 18.6666V13.9999H17.6667V18.6666ZM15.9733 6.40662V7.73995H18.3667L15.8867 10.1266L16.8267 11.0666L19.3067 8.66662V11.0733H20.64V6.40662H15.9733Z" fill="#58BA00"/>
<path d="M15.1067 13.0466H13.58V17.1933H12.3333V13.0466H10.8533V12.1H15.1067V13.0466Z" fill="#58BA00"/>
</svg>
