<svg width="26" height="28" viewBox="0 0 26 28" fill="none" xmlns="http://www.w3.org/2000/svg">
<rect width="26" height="28" fill="white" fill-opacity="0.8"/>
<path d="M12.3333 18C12.3333 18.2637 12.2551 18.5215 12.1086 18.7407C11.9621 18.96 11.7539 19.1309 11.5103 19.2318C11.2666 19.3327 10.9985 19.3591 10.7399 19.3077C10.4812 19.2562 10.2437 19.1292 10.0572 18.9428C9.87073 18.7563 9.74374 18.5187 9.69229 18.2601C9.64085 18.0014 9.66725 17.7334 9.76817 17.4897C9.86908 17.2461 10.04 17.0378 10.2592 16.8913C10.4785 16.7448 10.7363 16.6666 11 16.6666C11.3536 16.6666 11.6928 16.8071 11.9428 17.0572C12.1929 17.3072 12.3333 17.6463 12.3333 18ZM11 12.6666C10.7363 12.6666 10.4785 12.7448 10.2592 12.8913C10.04 13.0378 9.86908 13.2461 9.76817 13.4897C9.66725 13.7334 9.64085 14.0014 9.69229 14.2601C9.74374 14.5187 9.87073 14.7563 10.0572 14.9428C10.2437 15.1292 10.4812 15.2562 10.7399 15.3077C10.9985 15.3591 11.2666 15.3327 11.5103 15.2318C11.7539 15.1309 11.9621 14.96 12.1086 14.7407C12.2551 14.5215 12.3333 14.2637 12.3333 14C12.3333 13.6463 12.1929 13.3072 11.9428 13.0572C11.6928 12.8071 11.3536 12.6666 11 12.6666ZM11 8.66663C10.7363 8.66663 10.4785 8.74483 10.2592 8.89133C10.04 9.03784 9.86908 9.24608 9.76817 9.48972C9.66725 9.73335 9.64085 10.0014 9.69229 10.2601C9.74374 10.5187 9.87073 10.7563 10.0572 10.9428C10.2437 11.1292 10.4812 11.2562 10.7399 11.3077C10.9985 11.3591 11.2666 11.3327 11.5103 11.2318C11.7539 11.1309 11.9621 10.96 12.1086 10.7407C12.2551 10.5215 12.3333 10.2637 12.3333 9.99996C12.3333 9.64634 12.1929 9.3072 11.9428 9.05715C11.6928 8.8071 11.3536 8.66663 11 8.66663ZM15 11.3333C15.2637 11.3333 15.5215 11.2551 15.7408 11.1086C15.96 10.9621 16.1309 10.7538 16.2318 10.5102C16.3328 10.2666 16.3592 9.99848 16.3077 9.73984C16.2563 9.4812 16.1293 9.24362 15.9428 9.05715C15.7563 8.87068 15.5188 8.74369 15.2601 8.69225C15.0015 8.6408 14.7334 8.6672 14.4898 8.76812C14.2461 8.86904 14.0379 9.03993 13.8914 9.2592C13.7449 9.47847 13.6667 9.73625 13.6667 9.99996C13.6667 10.3536 13.8071 10.6927 14.0572 10.9428C14.3072 11.1928 14.6464 11.3333 15 11.3333ZM15 12.6666C14.7363 12.6666 14.4785 12.7448 14.2592 12.8913C14.04 13.0378 13.8691 13.2461 13.7682 13.4897C13.6672 13.7334 13.6408 14.0014 13.6923 14.2601C13.7437 14.5187 13.8707 14.7563 14.0572 14.9428C14.2437 15.1292 14.4812 15.2562 14.7399 15.3077C14.9985 15.3591 15.2666 15.3327 15.5103 15.2318C15.7539 15.1309 15.9621 14.96 16.1086 14.7407C16.2551 14.5215 16.3333 14.2637 16.3333 14C16.3333 13.6463 16.1929 13.3072 15.9428 13.0572C15.6928 12.8071 15.3536 12.6666 15 12.6666ZM15 16.6666C14.7363 16.6666 14.4785 16.7448 14.2592 16.8913C14.04 17.0378 13.8691 17.2461 13.7682 17.4897C13.6672 17.7334 13.6408 18.0014 13.6923 18.2601C13.7437 18.5187 13.8707 18.7563 14.0572 18.9428C14.2437 19.1292 14.4812 19.2562 14.7399 19.3077C14.9985 19.3591 15.2666 19.3327 15.5103 19.2318C15.7539 19.1309 15.9621 18.96 16.1086 18.7407C16.2551 18.5215 16.3333 18.2637 16.3333 18C16.3333 17.6463 16.1929 17.3072 15.9428 17.0572C15.6928 16.8071 15.3536 16.6666 15 16.6666Z" fill="#58BA00"/>
</svg>
