<svg width="100" height="100" viewBox="0 0 100 100" fill="none" xmlns="http://www.w3.org/2000/svg">
<path d="M94.08 67.6322V57.2097H75.5801V52.7019H85.58V47.3206H75.5801V42.8195H94.08V32.397C96.0177 31.7711 97.6684 30.4736 98.7346 28.7384C99.8009 27.0032 100.213 24.9442 99.8959 22.9322C99.5792 20.9202 98.5546 19.0875 97.0068 17.764C95.459 16.4405 93.4896 15.7133 91.4533 15.7133C89.4171 15.7133 87.4477 16.4405 85.8999 17.764C84.3521 19.0875 83.3275 20.9202 83.0108 22.9322C82.694 24.9442 83.1058 27.0032 84.1721 28.7384C85.2383 30.4736 86.889 31.7711 88.8267 32.397V37.4516H75.5801V27.8759H70.4001V19.874C72.3378 19.248 73.9885 17.9506 75.0547 16.2154C76.121 14.4802 76.5328 12.4212 76.216 10.4092C75.8993 8.39719 74.8747 6.56444 73.3269 5.24097C71.7791 3.9175 69.8097 3.19029 67.7735 3.19029C65.7372 3.19029 63.7678 3.9175 62.22 5.24097C60.6722 6.56444 59.6476 8.39719 59.3309 10.4092C59.0141 12.4212 59.4259 14.4802 60.4922 16.2154C61.5585 17.9506 63.2091 19.248 65.1468 19.874V27.8759H54.1202V12.9257C54.105 12.8066 54.0828 12.6886 54.0535 12.5722C54.1389 12.1541 54.1206 11.7214 54.0002 11.3119C53.3771 9.27965 52.3556 7.39188 50.9951 5.75883C49.6347 4.12578 47.9626 2.78019 46.0765 1.80061C44.1905 0.821028 42.1282 0.22709 40.0101 0.0534714C37.8921 -0.120147 35.7606 0.130032 33.7403 0.789403C33.3069 0.929437 32.927 1.16283 32.5136 1.3362C31.9857 1.52852 31.4693 1.75117 30.967 2.00303L30.7403 2.12973C28.1866 3.48864 26.039 5.50075 24.5165 7.96081C22.994 10.4209 22.151 13.2409 22.0737 16.1331C17.2652 16.5176 12.7811 18.7108 9.52508 22.2708C6.26904 25.8308 4.48307 30.4929 4.52708 35.3177C4.54379 39.1735 5.70385 42.9377 7.8604 46.1337C5.40029 48.1868 3.42117 50.7555 2.06297 53.6581C0.704776 56.5607 0.00066806 59.7263 0.00043624 62.9311C-0.0314097 67.9396 1.68123 72.803 4.84422 76.6859C8.00722 80.5688 12.4232 83.229 17.3337 84.2095C18.8337 93.1517 26.4136 100 35.5869 100C45.8069 100 54.1202 91.5113 54.1202 81.0754V71.6065H65.1468V79.1616C63.2091 79.7876 61.5585 81.085 60.4922 82.8203C59.4259 84.5555 59.0141 86.6145 59.3309 88.6265C59.6476 90.6385 60.6722 92.4712 62.22 93.7947C63.7678 95.1181 65.7372 95.8454 67.7735 95.8454C69.8097 95.8454 71.7791 95.1181 73.3269 93.7947C74.8747 92.4712 75.8993 90.6385 76.216 88.6265C76.5328 86.6145 76.121 84.5555 75.0547 82.8203C73.9885 81.085 72.3378 79.7876 70.4001 79.1616V71.6065H75.5801V62.5776H88.8267V67.6322C86.889 68.2582 85.2383 69.5556 84.1721 71.2908C83.1058 73.026 82.694 75.085 83.0108 77.097C83.3275 79.109 84.3521 80.9418 85.8999 82.2652C87.4477 83.5887 89.4171 84.3159 91.4533 84.3159C93.4896 84.3159 95.459 83.5887 97.0068 82.2652C98.5546 80.9418 99.5792 79.109 99.8959 77.097C100.213 75.085 99.8009 73.026 98.7346 71.2908C97.6684 69.5556 96.0177 68.2582 94.08 67.6322ZM91.4533 20.7676C92.1143 20.7596 92.7626 20.9484 93.316 21.3099C93.8694 21.6714 94.3029 22.1893 94.5613 22.7978C94.8197 23.4063 94.8915 24.0779 94.7674 24.7273C94.6433 25.3766 94.3291 25.9745 93.8645 26.4448C93.4 26.9151 92.8062 27.2366 92.1585 27.3685C91.5108 27.5005 90.8386 27.4368 90.2271 27.1857C89.6157 26.9345 89.0928 26.5073 88.7247 25.9581C88.3566 25.409 88.1601 24.7628 88.16 24.1017C88.16 23.2243 88.5057 22.3823 89.1222 21.7581C89.7386 21.134 90.5762 20.7781 91.4533 20.7676ZM67.7735 8.22453C68.4344 8.2166 69.0827 8.40538 69.6361 8.76688C70.1895 9.12838 70.623 9.64629 70.8814 10.2548C71.1398 10.8633 71.2116 11.5349 71.0875 12.1843C70.9635 12.8336 70.6492 13.4314 70.1847 13.9017C69.7201 14.372 69.1263 14.6936 68.4786 14.8255C67.8309 14.9574 67.1587 14.8938 66.5473 14.6427C65.9358 14.3915 65.4129 13.9642 65.0448 13.4151C64.6767 12.866 64.4802 12.2198 64.4801 11.5587C64.4801 10.6813 64.8258 9.83924 65.4423 9.21511C66.0588 8.59098 66.8964 8.23506 67.7735 8.22453ZM67.7735 90.7911C67.1123 90.8004 66.4633 90.6127 65.909 90.252C65.3548 89.8914 64.9203 89.3739 64.6608 88.7656C64.4013 88.1572 64.3286 87.4854 64.4519 86.8356C64.5752 86.1858 64.889 85.5874 65.3532 85.1164C65.8175 84.6454 66.4113 84.3232 67.0591 84.1907C67.707 84.0583 68.3796 84.1215 68.9914 84.3724C69.6032 84.6233 70.1266 85.0506 70.4949 85.5999C70.8633 86.1491 71.06 86.7956 71.0601 87.457C71.0602 88.3332 70.7154 89.1743 70.1004 89.7982C69.4853 90.4222 68.6494 90.7788 67.7735 90.7911ZM35.5869 94.6654C32.4959 94.5903 29.5226 93.4645 27.1567 91.4733C24.7908 89.4821 23.1735 86.7443 22.5712 83.7108C21.9688 80.6774 22.4173 77.5291 23.8428 74.7847C25.2684 72.0403 27.5859 69.8633 30.4136 68.6124C31.0611 68.3253 31.5707 67.7963 31.8336 67.1384C32.0964 66.4806 32.0916 65.746 31.8203 65.0916C31.6888 64.7706 31.4952 64.4788 31.2504 64.2331C31.0056 63.9873 30.7146 63.7925 30.3942 63.6598C30.0738 63.5272 29.7302 63.4593 29.3834 63.4601C29.0366 63.4609 28.6934 63.5304 28.3736 63.6646C25.3587 64.9844 22.7423 67.0716 20.7854 69.7182C18.8284 72.3648 17.5992 75.4783 17.2204 78.7482C14.3157 77.9374 11.6917 76.3393 9.63803 74.1306C7.58437 71.9218 6.18102 69.1882 5.58298 66.2318C4.98494 63.2753 5.21549 60.2111 6.24915 57.3775C7.28281 54.5438 9.07936 52.0511 11.4404 50.1746C13.5659 51.9889 16.0722 53.3017 18.7737 54.0156C19.1158 54.1065 19.4729 54.1269 19.8232 54.0756C20.1735 54.0243 20.5097 53.9024 20.8114 53.7172C21.1132 53.532 21.3742 53.2874 21.5785 52.9982C21.7829 52.7091 21.9264 52.3814 22.0003 52.0351C22.1737 51.3492 22.0711 50.6226 21.7146 50.0116C21.358 49.4006 20.776 48.9539 20.0937 48.7676C16.8777 47.8798 14.0875 45.8661 12.2312 43.0933C10.3748 40.3206 9.57584 36.9732 9.9797 33.6607C10.3836 30.3482 11.9634 27.2909 14.4316 25.0457C16.8997 22.8004 20.0919 21.5165 23.427 21.4277H23.4803C23.4803 21.4277 23.4803 21.4677 23.4803 21.4811C23.7295 22.2759 24.0416 23.0497 24.4137 23.795C24.5634 24.108 24.7744 24.3879 25.0342 24.6179C25.2939 24.848 25.5973 25.0235 25.9261 25.1342C26.255 25.2449 26.6027 25.2884 26.9486 25.2623C27.2946 25.2361 27.6318 25.1408 27.9403 24.9819C28.5676 24.6507 29.0403 24.0869 29.2571 23.4114C29.4739 22.7358 29.4176 22.0022 29.1003 21.3677C28.8537 20.8712 28.6464 20.3562 28.4803 19.8273C27.5901 17.0411 27.8295 14.0167 29.147 11.4053C30.2628 9.16957 32.1194 7.39024 34.4003 6.37075C35.5867 5.90903 36.8472 5.66725 38.1203 5.65724C40.9967 5.70634 43.7379 6.88747 45.7496 8.94458C47.7613 11.0017 48.8813 13.769 48.8669 16.6466V40.2656C46.1066 37.5149 42.6031 35.6307 38.7869 34.8443C40.2112 32.7004 41.1906 30.2922 41.6669 27.7626C41.7982 27.0714 41.6512 26.3563 41.2579 25.7731C40.8646 25.1898 40.2568 24.7856 39.5669 24.6485C39.2253 24.5862 38.8747 24.5923 38.5355 24.6664C38.1962 24.7404 37.875 24.8811 37.5904 25.0802C37.3059 25.2792 37.0636 25.5327 36.8776 25.8261C36.6916 26.1194 36.5656 26.4467 36.5069 26.789C36.0043 29.5828 34.6507 32.1528 32.6315 34.1475C30.6123 36.1421 28.0261 37.4638 25.227 37.9317C24.5297 38.0462 23.9063 38.4329 23.4938 39.0067C23.0813 39.5806 22.9134 40.2948 23.027 40.9924C23.1186 41.6185 23.4297 42.1915 23.9048 42.6093C24.3798 43.027 24.9879 43.2623 25.6203 43.273C25.7569 43.2729 25.8931 43.2595 26.027 43.233C29.0875 42.7377 31.9753 41.4837 34.4269 39.5854C34.7361 39.7327 35.0716 39.8166 35.4136 39.8322C38.4297 39.9502 41.337 40.9911 43.7428 42.8144C46.1487 44.6377 47.9372 47.1556 48.8669 50.0279V61.1106C48.8793 63.9598 48.0163 66.744 46.3947 69.0864C44.773 71.4289 42.471 73.2164 39.8003 74.2071C39.4696 74.3262 39.1658 74.5096 38.9062 74.7466C38.6466 74.9836 38.4364 75.2696 38.2878 75.5881C38.1391 75.9066 38.0548 76.2514 38.0398 76.6026C38.0248 76.9538 38.0793 77.3046 38.2003 77.6346C38.3748 78.1519 38.7061 78.602 39.1482 78.9223C39.5903 79.2425 40.1211 79.4171 40.6669 79.4217C40.9648 79.4228 41.2605 79.3708 41.5402 79.2683C44.3327 78.2632 46.8463 76.6085 48.8735 74.4405V81.1088C48.9055 84.6678 47.5245 88.0942 45.0335 90.6358C42.5425 93.1775 39.1451 94.6267 35.5869 94.6654ZM54.1202 33.2772H70.3268V66.2385H54.1202V33.2772ZM91.4533 79.2883C90.7922 79.2976 90.1432 79.11 89.5889 78.7493C89.0346 78.3886 88.6002 77.8712 88.3407 77.2628C88.0812 76.6544 88.0085 75.9826 88.1318 75.3328C88.2551 74.683 88.5689 74.0846 89.0331 73.6136C89.4974 73.1426 90.0912 72.8204 90.739 72.688C91.3869 72.5555 92.0595 72.6187 92.6713 72.8696C93.2831 73.1206 93.8064 73.5478 94.1748 74.0971C94.5432 74.6464 94.7399 75.2928 94.74 75.9542C94.7331 76.8258 94.3853 77.6601 93.7709 78.2783C93.1566 78.8965 92.3247 79.2495 91.4533 79.2617V79.2883Z" fill="#E6E7E8"/>
</svg>
