<svg width="16" height="16" viewBox="0 0 16 16" fill="none" xmlns="http://www.w3.org/2000/svg">
<path d="M10.3333 9.33333H9.80667L9.62 9.15333C10.3511 8.30159 10.7237 7.19974 10.6596 6.07911C10.5956 4.95849 10.0999 3.90626 9.27658 3.14333C8.45327 2.38041 7.36639 1.96614 6.24414 1.98749C5.12189 2.00885 4.05156 2.46417 3.25787 3.25786C2.46417 4.05156 2.00885 5.12189 1.9875 6.24414C1.96614 7.36638 2.38041 8.45326 3.14334 9.27658C3.90626 10.0999 4.95849 10.5956 6.07912 10.6596C7.19974 10.7237 8.30159 10.351 9.15334 9.62L9.33334 9.80667V10.3333L12.6667 13.6667L13.66 12.6667L10.3333 9.33333ZM6.33334 9.33333C5.73999 9.33333 5.15997 9.15739 4.66663 8.82774C4.17328 8.4981 3.78876 8.02956 3.5617 7.48138C3.33464 6.93321 3.27523 6.33 3.39098 5.74806C3.50674 5.16612 3.79246 4.63157 4.21202 4.21201C4.63157 3.79246 5.16612 3.50673 5.74807 3.39098C6.33001 3.27522 6.93321 3.33463 7.48139 3.56169C8.02957 3.78876 8.4981 4.17327 8.82775 4.66662C9.15739 5.15997 9.33334 5.73999 9.33334 6.33333C9.33422 6.72755 9.25722 7.11805 9.10677 7.48242C8.95631 7.8468 8.73537 8.17786 8.45662 8.45661C8.17787 8.73536 7.8468 8.95631 7.48243 9.10676C7.11805 9.25721 6.72755 9.33421 6.33334 9.33333Z" fill="#BCBEC0"/>
</svg>
