<svg width="30" height="30" viewBox="2 0 28 30" fill="none" xmlns="http://www.w3.org/2000/svg">
<rect width="30" height="30" fill="white" fill-opacity="0.8"/>
<path d="M21.4467 19.1133L17.9133 15.58H17.2467L15.5533 17.2733V17.94L19.0867 21.4733C19.2116 21.5975 19.3805 21.6672 19.5567 21.6672C19.7328 21.6672 19.9018 21.5975 20.0267 21.4733L21.44 20.06C21.5029 19.9984 21.553 19.925 21.5875 19.844C21.6219 19.763 21.6399 19.676 21.6405 19.588C21.6412 19.5 21.6243 19.4127 21.5911 19.3313C21.5578 19.2498 21.5087 19.1757 21.4467 19.1133Z" fill="#3C4749"/>
<path d="M18.56 13.7933L19.5 12.8533L20.9133 14.2666C21.2879 13.8916 21.4982 13.3833 21.4982 12.8533C21.4982 12.3233 21.2879 11.815 20.9133 11.44L18.5533 9.07996L17.6133 10.02V8.13996L17.1467 7.66663L14.7867 10.0266L15.26 10.5H17.1467L16.2067 11.44L16.9133 12.1466L15 14.0733L12.2333 11.32V10.3733L10.2333 8.37329L8.33334 10.2466L10.3333 12.2466H11.2933L14.0467 15L13.48 15.5666H12.0667L8.53334 19.1C8.40917 19.2249 8.33947 19.3938 8.33947 19.57C8.33947 19.7461 8.40917 19.915 8.53334 20.04L9.94667 21.4533C10.0716 21.5775 10.2405 21.6472 10.4167 21.6472C10.5928 21.6472 10.7618 21.5775 10.8867 21.4533L14.42 17.92V16.5266L17.8533 13.0933L18.56 13.7933Z" fill="#3C4749"/>
</svg>
