<svg width="26" height="28" viewBox="0 0 26 28" fill="none" xmlns="http://www.w3.org/2000/svg">
<rect width="26" height="28" fill="white" fill-opacity="0.8"/>
<path d="M17.6667 8H8.33333C7.97971 8 7.64057 8.14048 7.39052 8.39052C7.14048 8.64057 7 8.97971 7 9.33333V18.6667C7 19.0203 7.14048 19.3594 7.39052 19.6095C7.64057 19.8595 7.97971 20 8.33333 20H17.6667C18.0203 20 18.3594 19.8595 18.6095 19.6095C18.8595 19.3594 19 19.0203 19 18.6667V9.33333C19 8.97971 18.8595 8.64057 18.6095 8.39052C18.3594 8.14048 18.0203 8 17.6667 8ZM16.3333 14.6667H13.6667V17.3333H12.3333V14.6667H9.66667V13.3333H12.3333V10.6667H13.6667V13.3333H16.3333V14.6667Z" fill="#58BA00"/>
</svg>
