<?xml version="1.0" encoding="utf-8"?>
<!-- Generator: Adobe Illustrator 26.3.1, SVG Export Plug-In . SVG Version: 6.00 Build 0)  -->
<svg version="1.1" id="Layer_1" xmlns="http://www.w3.org/2000/svg" xmlns:xlink="http://www.w3.org/1999/xlink" x="0px" y="0px"
	 viewBox="0 0 48 48" style="enable-background:new 0 0 48 48;" xml:space="preserve">
<path d="M9,38.3c-0.7,0-1.3-0.3-1.9-0.8c-0.6-0.6-0.8-1.2-0.8-1.9V12.4c0-0.7,0.3-1.3,0.8-1.9S8.3,9.7,9,9.7h12.5l2.7,2.7h15.1
	c0.7,0,1.3,0.3,1.9,0.8c0.6,0.6,0.8,1.2,0.8,1.9H23l-2.7-2.7H9l0,0l0,0v23.2l0,0l0,0l4.6-17.8h31.1l-4.8,18.5
	c-0.2,0.7-0.5,1.2-1,1.6c-0.5,0.3-1.1,0.5-1.8,0.5H9z M11.8,35.6h25.5l3.7-15.2H15.5L11.8,35.6z M11.8,35.6l3.7-15.2L11.8,35.6z
	 M9,15.1v-2.7l0,0l0,0V15.1z"/>
</svg>
