<svg width="26" height="28" viewBox="0 0 26 28" fill="none" xmlns="http://www.w3.org/2000/svg">
<rect width="26" height="28" fill="white" fill-opacity="0.8"/>
<g clip-path="url(#clip0_11_755)">
<path d="M15.9733 6.91284V8.15729H18.3667L15.8867 10.3848L16.8267 11.2622L19.3067 9.02218V11.2684H20.64V6.91284H15.9733Z" fill="#58BA00"/>
<path d="M14.42 15.2071L15 12.2267H16.22L15.14 16.9805H13.8733L13.2067 14.2676L12.54 16.9805H11.2533L10.1667 12.2267H11.3867L11.9733 15.2071L12.64 12.2267H13.68L14.42 15.2071Z" fill="#58BA00"/>
<path d="M17.6667 18.3556H8.33333V9.64447H13V8.40002H8.33333C7.97971 8.40002 7.64057 8.53114 7.39052 8.76451C7.14048 8.99789 7 9.31442 7 9.64447V18.3556C7 18.6856 7.14048 19.0022 7.39052 19.2355C7.64057 19.4689 7.97971 19.6 8.33333 19.6H17.6667C18.0203 19.6 18.3594 19.4689 18.6095 19.2355C18.8595 19.0022 19 18.6856 19 18.3556V14H17.6667V18.3556Z" fill="#58BA00"/>
</g>
<defs>
<clipPath id="clip0_11_755">
<rect width="16" height="14.9333" fill="white" transform="translate(5 6.53333)"/>
</clipPath>
</defs>
</svg>
